G04 #@! TF.GenerationSoftware,KiCad,Pcbnew,7.0.7*
G04 #@! TF.CreationDate,2023-09-10T11:25:55+02:00*
G04 #@! TF.ProjectId,ESP32Vfo,45535033-3256-4666-9f2e-6b696361645f,rev?*
G04 #@! TF.SameCoordinates,Original*
G04 #@! TF.FileFunction,Legend,Top*
G04 #@! TF.FilePolarity,Positive*
%FSLAX46Y46*%
G04 Gerber Fmt 4.6, Leading zero omitted, Abs format (unit mm)*
G04 Created by KiCad (PCBNEW 7.0.7) date 2023-09-10 11:25:55*
%MOMM*%
%LPD*%
G01*
G04 APERTURE LIST*
%ADD10C,0.100000*%
%ADD11C,0.200000*%
%ADD12C,0.150000*%
%ADD13C,0.250000*%
%ADD14C,0.120000*%
G04 APERTURE END LIST*
D10*
X94721000Y-93878000D02*
X94331000Y-93508000D01*
X94721000Y-93118000D01*
X94721000Y-93878000D01*
G36*
X94721000Y-93878000D02*
G01*
X94331000Y-93508000D01*
X94721000Y-93118000D01*
X94721000Y-93878000D01*
G37*
D11*
X121717028Y-40899142D02*
X122117028Y-42099142D01*
X122117028Y-42099142D02*
X122517028Y-40899142D01*
X123545599Y-42099142D02*
X122859885Y-42099142D01*
X123202742Y-42099142D02*
X123202742Y-40899142D01*
X123202742Y-40899142D02*
X123088456Y-41070571D01*
X123088456Y-41070571D02*
X122974171Y-41184857D01*
X122974171Y-41184857D02*
X122859885Y-41242000D01*
X124059885Y-41984857D02*
X124117028Y-42042000D01*
X124117028Y-42042000D02*
X124059885Y-42099142D01*
X124059885Y-42099142D02*
X124002742Y-42042000D01*
X124002742Y-42042000D02*
X124059885Y-41984857D01*
X124059885Y-41984857D02*
X124059885Y-42099142D01*
X124859885Y-40899142D02*
X124974171Y-40899142D01*
X124974171Y-40899142D02*
X125088457Y-40956285D01*
X125088457Y-40956285D02*
X125145600Y-41013428D01*
X125145600Y-41013428D02*
X125202742Y-41127714D01*
X125202742Y-41127714D02*
X125259885Y-41356285D01*
X125259885Y-41356285D02*
X125259885Y-41642000D01*
X125259885Y-41642000D02*
X125202742Y-41870571D01*
X125202742Y-41870571D02*
X125145600Y-41984857D01*
X125145600Y-41984857D02*
X125088457Y-42042000D01*
X125088457Y-42042000D02*
X124974171Y-42099142D01*
X124974171Y-42099142D02*
X124859885Y-42099142D01*
X124859885Y-42099142D02*
X124745600Y-42042000D01*
X124745600Y-42042000D02*
X124688457Y-41984857D01*
X124688457Y-41984857D02*
X124631314Y-41870571D01*
X124631314Y-41870571D02*
X124574171Y-41642000D01*
X124574171Y-41642000D02*
X124574171Y-41356285D01*
X124574171Y-41356285D02*
X124631314Y-41127714D01*
X124631314Y-41127714D02*
X124688457Y-41013428D01*
X124688457Y-41013428D02*
X124745600Y-40956285D01*
X124745600Y-40956285D02*
X124859885Y-40899142D01*
D12*
X107670476Y-52761704D02*
X107175238Y-52761704D01*
X107175238Y-52761704D02*
X107441904Y-52456942D01*
X107441904Y-52456942D02*
X107327619Y-52456942D01*
X107327619Y-52456942D02*
X107251428Y-52418847D01*
X107251428Y-52418847D02*
X107213333Y-52380752D01*
X107213333Y-52380752D02*
X107175238Y-52304561D01*
X107175238Y-52304561D02*
X107175238Y-52114085D01*
X107175238Y-52114085D02*
X107213333Y-52037895D01*
X107213333Y-52037895D02*
X107251428Y-51999800D01*
X107251428Y-51999800D02*
X107327619Y-51961704D01*
X107327619Y-51961704D02*
X107556190Y-51961704D01*
X107556190Y-51961704D02*
X107632381Y-51999800D01*
X107632381Y-51999800D02*
X107670476Y-52037895D01*
X106946666Y-52761704D02*
X106679999Y-51961704D01*
X106679999Y-51961704D02*
X106413333Y-52761704D01*
X106222857Y-52761704D02*
X105727619Y-52761704D01*
X105727619Y-52761704D02*
X105994285Y-52456942D01*
X105994285Y-52456942D02*
X105880000Y-52456942D01*
X105880000Y-52456942D02*
X105803809Y-52418847D01*
X105803809Y-52418847D02*
X105765714Y-52380752D01*
X105765714Y-52380752D02*
X105727619Y-52304561D01*
X105727619Y-52304561D02*
X105727619Y-52114085D01*
X105727619Y-52114085D02*
X105765714Y-52037895D01*
X105765714Y-52037895D02*
X105803809Y-51999800D01*
X105803809Y-51999800D02*
X105880000Y-51961704D01*
X105880000Y-51961704D02*
X106108571Y-51961704D01*
X106108571Y-51961704D02*
X106184762Y-51999800D01*
X106184762Y-51999800D02*
X106222857Y-52037895D01*
D11*
X121742857Y-39644742D02*
X121742857Y-38444742D01*
X121742857Y-38444742D02*
X122200000Y-38444742D01*
X122200000Y-38444742D02*
X122314285Y-38501885D01*
X122314285Y-38501885D02*
X122371428Y-38559028D01*
X122371428Y-38559028D02*
X122428571Y-38673314D01*
X122428571Y-38673314D02*
X122428571Y-38844742D01*
X122428571Y-38844742D02*
X122371428Y-38959028D01*
X122371428Y-38959028D02*
X122314285Y-39016171D01*
X122314285Y-39016171D02*
X122200000Y-39073314D01*
X122200000Y-39073314D02*
X121742857Y-39073314D01*
X122885714Y-39301885D02*
X123457143Y-39301885D01*
X122771428Y-39644742D02*
X123171428Y-38444742D01*
X123171428Y-38444742D02*
X123571428Y-39644742D01*
X124199999Y-38444742D02*
X124314285Y-38444742D01*
X124314285Y-38444742D02*
X124428571Y-38501885D01*
X124428571Y-38501885D02*
X124485714Y-38559028D01*
X124485714Y-38559028D02*
X124542856Y-38673314D01*
X124542856Y-38673314D02*
X124599999Y-38901885D01*
X124599999Y-38901885D02*
X124599999Y-39187600D01*
X124599999Y-39187600D02*
X124542856Y-39416171D01*
X124542856Y-39416171D02*
X124485714Y-39530457D01*
X124485714Y-39530457D02*
X124428571Y-39587600D01*
X124428571Y-39587600D02*
X124314285Y-39644742D01*
X124314285Y-39644742D02*
X124199999Y-39644742D01*
X124199999Y-39644742D02*
X124085714Y-39587600D01*
X124085714Y-39587600D02*
X124028571Y-39530457D01*
X124028571Y-39530457D02*
X123971428Y-39416171D01*
X123971428Y-39416171D02*
X123914285Y-39187600D01*
X123914285Y-39187600D02*
X123914285Y-38901885D01*
X123914285Y-38901885D02*
X123971428Y-38673314D01*
X123971428Y-38673314D02*
X124028571Y-38559028D01*
X124028571Y-38559028D02*
X124085714Y-38501885D01*
X124085714Y-38501885D02*
X124199999Y-38444742D01*
X125114285Y-39644742D02*
X125114285Y-38444742D01*
X125114285Y-38444742D02*
X125571428Y-38444742D01*
X125571428Y-38444742D02*
X125685713Y-38501885D01*
X125685713Y-38501885D02*
X125742856Y-38559028D01*
X125742856Y-38559028D02*
X125799999Y-38673314D01*
X125799999Y-38673314D02*
X125799999Y-38844742D01*
X125799999Y-38844742D02*
X125742856Y-38959028D01*
X125742856Y-38959028D02*
X125685713Y-39016171D01*
X125685713Y-39016171D02*
X125571428Y-39073314D01*
X125571428Y-39073314D02*
X125114285Y-39073314D01*
X126314285Y-39644742D02*
X126314285Y-38444742D01*
X126314285Y-39016171D02*
X126999999Y-39016171D01*
X126999999Y-39644742D02*
X126999999Y-38444742D01*
X127571428Y-39644742D02*
X127571428Y-38444742D01*
X127571428Y-39016171D02*
X128257142Y-39016171D01*
X128257142Y-39644742D02*
X128257142Y-38444742D01*
D13*
X62647619Y-92566904D02*
X62114286Y-92566904D01*
X61885714Y-91728809D02*
X62647619Y-91728809D01*
X62647619Y-91728809D02*
X62647619Y-93328809D01*
X62647619Y-93328809D02*
X61885714Y-93328809D01*
X61276191Y-91805000D02*
X61047619Y-91728809D01*
X61047619Y-91728809D02*
X60666667Y-91728809D01*
X60666667Y-91728809D02*
X60514286Y-91805000D01*
X60514286Y-91805000D02*
X60438095Y-91881190D01*
X60438095Y-91881190D02*
X60361905Y-92033571D01*
X60361905Y-92033571D02*
X60361905Y-92185952D01*
X60361905Y-92185952D02*
X60438095Y-92338333D01*
X60438095Y-92338333D02*
X60514286Y-92414523D01*
X60514286Y-92414523D02*
X60666667Y-92490714D01*
X60666667Y-92490714D02*
X60971429Y-92566904D01*
X60971429Y-92566904D02*
X61123810Y-92643095D01*
X61123810Y-92643095D02*
X61200000Y-92719285D01*
X61200000Y-92719285D02*
X61276191Y-92871666D01*
X61276191Y-92871666D02*
X61276191Y-93024047D01*
X61276191Y-93024047D02*
X61200000Y-93176428D01*
X61200000Y-93176428D02*
X61123810Y-93252619D01*
X61123810Y-93252619D02*
X60971429Y-93328809D01*
X60971429Y-93328809D02*
X60590476Y-93328809D01*
X60590476Y-93328809D02*
X60361905Y-93252619D01*
X59676190Y-91728809D02*
X59676190Y-93328809D01*
X59676190Y-93328809D02*
X59066666Y-93328809D01*
X59066666Y-93328809D02*
X58914285Y-93252619D01*
X58914285Y-93252619D02*
X58838095Y-93176428D01*
X58838095Y-93176428D02*
X58761904Y-93024047D01*
X58761904Y-93024047D02*
X58761904Y-92795476D01*
X58761904Y-92795476D02*
X58838095Y-92643095D01*
X58838095Y-92643095D02*
X58914285Y-92566904D01*
X58914285Y-92566904D02*
X59066666Y-92490714D01*
X59066666Y-92490714D02*
X59676190Y-92490714D01*
X58228571Y-93328809D02*
X57238095Y-93328809D01*
X57238095Y-93328809D02*
X57771428Y-92719285D01*
X57771428Y-92719285D02*
X57542857Y-92719285D01*
X57542857Y-92719285D02*
X57390476Y-92643095D01*
X57390476Y-92643095D02*
X57314285Y-92566904D01*
X57314285Y-92566904D02*
X57238095Y-92414523D01*
X57238095Y-92414523D02*
X57238095Y-92033571D01*
X57238095Y-92033571D02*
X57314285Y-91881190D01*
X57314285Y-91881190D02*
X57390476Y-91805000D01*
X57390476Y-91805000D02*
X57542857Y-91728809D01*
X57542857Y-91728809D02*
X58000000Y-91728809D01*
X58000000Y-91728809D02*
X58152381Y-91805000D01*
X58152381Y-91805000D02*
X58228571Y-91881190D01*
X56628571Y-93176428D02*
X56552380Y-93252619D01*
X56552380Y-93252619D02*
X56399999Y-93328809D01*
X56399999Y-93328809D02*
X56019047Y-93328809D01*
X56019047Y-93328809D02*
X55866666Y-93252619D01*
X55866666Y-93252619D02*
X55790475Y-93176428D01*
X55790475Y-93176428D02*
X55714285Y-93024047D01*
X55714285Y-93024047D02*
X55714285Y-92871666D01*
X55714285Y-92871666D02*
X55790475Y-92643095D01*
X55790475Y-92643095D02*
X56704761Y-91728809D01*
X56704761Y-91728809D02*
X55714285Y-91728809D01*
X54038094Y-93328809D02*
X53504760Y-91728809D01*
X53504760Y-91728809D02*
X52971427Y-93328809D01*
X51904760Y-92566904D02*
X52438093Y-92566904D01*
X52438093Y-91728809D02*
X52438093Y-93328809D01*
X52438093Y-93328809D02*
X51676188Y-93328809D01*
X50761902Y-93328809D02*
X50457140Y-93328809D01*
X50457140Y-93328809D02*
X50304759Y-93252619D01*
X50304759Y-93252619D02*
X50152378Y-93100238D01*
X50152378Y-93100238D02*
X50076188Y-92795476D01*
X50076188Y-92795476D02*
X50076188Y-92262142D01*
X50076188Y-92262142D02*
X50152378Y-91957380D01*
X50152378Y-91957380D02*
X50304759Y-91805000D01*
X50304759Y-91805000D02*
X50457140Y-91728809D01*
X50457140Y-91728809D02*
X50761902Y-91728809D01*
X50761902Y-91728809D02*
X50914283Y-91805000D01*
X50914283Y-91805000D02*
X51066664Y-91957380D01*
X51066664Y-91957380D02*
X51142855Y-92262142D01*
X51142855Y-92262142D02*
X51142855Y-92795476D01*
X51142855Y-92795476D02*
X51066664Y-93100238D01*
X51066664Y-93100238D02*
X50914283Y-93252619D01*
X50914283Y-93252619D02*
X50761902Y-93328809D01*
D12*
X60811580Y-80684666D02*
X60859200Y-80732285D01*
X60859200Y-80732285D02*
X60906819Y-80875142D01*
X60906819Y-80875142D02*
X60906819Y-80970380D01*
X60906819Y-80970380D02*
X60859200Y-81113237D01*
X60859200Y-81113237D02*
X60763961Y-81208475D01*
X60763961Y-81208475D02*
X60668723Y-81256094D01*
X60668723Y-81256094D02*
X60478247Y-81303713D01*
X60478247Y-81303713D02*
X60335390Y-81303713D01*
X60335390Y-81303713D02*
X60144914Y-81256094D01*
X60144914Y-81256094D02*
X60049676Y-81208475D01*
X60049676Y-81208475D02*
X59954438Y-81113237D01*
X59954438Y-81113237D02*
X59906819Y-80970380D01*
X59906819Y-80970380D02*
X59906819Y-80875142D01*
X59906819Y-80875142D02*
X59954438Y-80732285D01*
X59954438Y-80732285D02*
X60002057Y-80684666D01*
X60906819Y-79732285D02*
X60906819Y-80303713D01*
X60906819Y-80017999D02*
X59906819Y-80017999D01*
X59906819Y-80017999D02*
X60049676Y-80113237D01*
X60049676Y-80113237D02*
X60144914Y-80208475D01*
X60144914Y-80208475D02*
X60192533Y-80303713D01*
X87590333Y-51286580D02*
X87542714Y-51334200D01*
X87542714Y-51334200D02*
X87399857Y-51381819D01*
X87399857Y-51381819D02*
X87304619Y-51381819D01*
X87304619Y-51381819D02*
X87161762Y-51334200D01*
X87161762Y-51334200D02*
X87066524Y-51238961D01*
X87066524Y-51238961D02*
X87018905Y-51143723D01*
X87018905Y-51143723D02*
X86971286Y-50953247D01*
X86971286Y-50953247D02*
X86971286Y-50810390D01*
X86971286Y-50810390D02*
X87018905Y-50619914D01*
X87018905Y-50619914D02*
X87066524Y-50524676D01*
X87066524Y-50524676D02*
X87161762Y-50429438D01*
X87161762Y-50429438D02*
X87304619Y-50381819D01*
X87304619Y-50381819D02*
X87399857Y-50381819D01*
X87399857Y-50381819D02*
X87542714Y-50429438D01*
X87542714Y-50429438D02*
X87590333Y-50477057D01*
X87971286Y-50477057D02*
X88018905Y-50429438D01*
X88018905Y-50429438D02*
X88114143Y-50381819D01*
X88114143Y-50381819D02*
X88352238Y-50381819D01*
X88352238Y-50381819D02*
X88447476Y-50429438D01*
X88447476Y-50429438D02*
X88495095Y-50477057D01*
X88495095Y-50477057D02*
X88542714Y-50572295D01*
X88542714Y-50572295D02*
X88542714Y-50667533D01*
X88542714Y-50667533D02*
X88495095Y-50810390D01*
X88495095Y-50810390D02*
X87923667Y-51381819D01*
X87923667Y-51381819D02*
X88542714Y-51381819D01*
X108037333Y-50778580D02*
X107989714Y-50826200D01*
X107989714Y-50826200D02*
X107846857Y-50873819D01*
X107846857Y-50873819D02*
X107751619Y-50873819D01*
X107751619Y-50873819D02*
X107608762Y-50826200D01*
X107608762Y-50826200D02*
X107513524Y-50730961D01*
X107513524Y-50730961D02*
X107465905Y-50635723D01*
X107465905Y-50635723D02*
X107418286Y-50445247D01*
X107418286Y-50445247D02*
X107418286Y-50302390D01*
X107418286Y-50302390D02*
X107465905Y-50111914D01*
X107465905Y-50111914D02*
X107513524Y-50016676D01*
X107513524Y-50016676D02*
X107608762Y-49921438D01*
X107608762Y-49921438D02*
X107751619Y-49873819D01*
X107751619Y-49873819D02*
X107846857Y-49873819D01*
X107846857Y-49873819D02*
X107989714Y-49921438D01*
X107989714Y-49921438D02*
X108037333Y-49969057D01*
X108370667Y-49873819D02*
X108989714Y-49873819D01*
X108989714Y-49873819D02*
X108656381Y-50254771D01*
X108656381Y-50254771D02*
X108799238Y-50254771D01*
X108799238Y-50254771D02*
X108894476Y-50302390D01*
X108894476Y-50302390D02*
X108942095Y-50350009D01*
X108942095Y-50350009D02*
X108989714Y-50445247D01*
X108989714Y-50445247D02*
X108989714Y-50683342D01*
X108989714Y-50683342D02*
X108942095Y-50778580D01*
X108942095Y-50778580D02*
X108894476Y-50826200D01*
X108894476Y-50826200D02*
X108799238Y-50873819D01*
X108799238Y-50873819D02*
X108513524Y-50873819D01*
X108513524Y-50873819D02*
X108418286Y-50826200D01*
X108418286Y-50826200D02*
X108370667Y-50778580D01*
X101179333Y-47984580D02*
X101131714Y-48032200D01*
X101131714Y-48032200D02*
X100988857Y-48079819D01*
X100988857Y-48079819D02*
X100893619Y-48079819D01*
X100893619Y-48079819D02*
X100750762Y-48032200D01*
X100750762Y-48032200D02*
X100655524Y-47936961D01*
X100655524Y-47936961D02*
X100607905Y-47841723D01*
X100607905Y-47841723D02*
X100560286Y-47651247D01*
X100560286Y-47651247D02*
X100560286Y-47508390D01*
X100560286Y-47508390D02*
X100607905Y-47317914D01*
X100607905Y-47317914D02*
X100655524Y-47222676D01*
X100655524Y-47222676D02*
X100750762Y-47127438D01*
X100750762Y-47127438D02*
X100893619Y-47079819D01*
X100893619Y-47079819D02*
X100988857Y-47079819D01*
X100988857Y-47079819D02*
X101131714Y-47127438D01*
X101131714Y-47127438D02*
X101179333Y-47175057D01*
X102036476Y-47413152D02*
X102036476Y-48079819D01*
X101798381Y-47032200D02*
X101560286Y-47746485D01*
X101560286Y-47746485D02*
X102179333Y-47746485D01*
X115784333Y-51286580D02*
X115736714Y-51334200D01*
X115736714Y-51334200D02*
X115593857Y-51381819D01*
X115593857Y-51381819D02*
X115498619Y-51381819D01*
X115498619Y-51381819D02*
X115355762Y-51334200D01*
X115355762Y-51334200D02*
X115260524Y-51238961D01*
X115260524Y-51238961D02*
X115212905Y-51143723D01*
X115212905Y-51143723D02*
X115165286Y-50953247D01*
X115165286Y-50953247D02*
X115165286Y-50810390D01*
X115165286Y-50810390D02*
X115212905Y-50619914D01*
X115212905Y-50619914D02*
X115260524Y-50524676D01*
X115260524Y-50524676D02*
X115355762Y-50429438D01*
X115355762Y-50429438D02*
X115498619Y-50381819D01*
X115498619Y-50381819D02*
X115593857Y-50381819D01*
X115593857Y-50381819D02*
X115736714Y-50429438D01*
X115736714Y-50429438D02*
X115784333Y-50477057D01*
X116689095Y-50381819D02*
X116212905Y-50381819D01*
X116212905Y-50381819D02*
X116165286Y-50858009D01*
X116165286Y-50858009D02*
X116212905Y-50810390D01*
X116212905Y-50810390D02*
X116308143Y-50762771D01*
X116308143Y-50762771D02*
X116546238Y-50762771D01*
X116546238Y-50762771D02*
X116641476Y-50810390D01*
X116641476Y-50810390D02*
X116689095Y-50858009D01*
X116689095Y-50858009D02*
X116736714Y-50953247D01*
X116736714Y-50953247D02*
X116736714Y-51191342D01*
X116736714Y-51191342D02*
X116689095Y-51286580D01*
X116689095Y-51286580D02*
X116641476Y-51334200D01*
X116641476Y-51334200D02*
X116546238Y-51381819D01*
X116546238Y-51381819D02*
X116308143Y-51381819D01*
X116308143Y-51381819D02*
X116212905Y-51334200D01*
X116212905Y-51334200D02*
X116165286Y-51286580D01*
X56493580Y-79414666D02*
X56541200Y-79462285D01*
X56541200Y-79462285D02*
X56588819Y-79605142D01*
X56588819Y-79605142D02*
X56588819Y-79700380D01*
X56588819Y-79700380D02*
X56541200Y-79843237D01*
X56541200Y-79843237D02*
X56445961Y-79938475D01*
X56445961Y-79938475D02*
X56350723Y-79986094D01*
X56350723Y-79986094D02*
X56160247Y-80033713D01*
X56160247Y-80033713D02*
X56017390Y-80033713D01*
X56017390Y-80033713D02*
X55826914Y-79986094D01*
X55826914Y-79986094D02*
X55731676Y-79938475D01*
X55731676Y-79938475D02*
X55636438Y-79843237D01*
X55636438Y-79843237D02*
X55588819Y-79700380D01*
X55588819Y-79700380D02*
X55588819Y-79605142D01*
X55588819Y-79605142D02*
X55636438Y-79462285D01*
X55636438Y-79462285D02*
X55684057Y-79414666D01*
X55588819Y-78557523D02*
X55588819Y-78747999D01*
X55588819Y-78747999D02*
X55636438Y-78843237D01*
X55636438Y-78843237D02*
X55684057Y-78890856D01*
X55684057Y-78890856D02*
X55826914Y-78986094D01*
X55826914Y-78986094D02*
X56017390Y-79033713D01*
X56017390Y-79033713D02*
X56398342Y-79033713D01*
X56398342Y-79033713D02*
X56493580Y-78986094D01*
X56493580Y-78986094D02*
X56541200Y-78938475D01*
X56541200Y-78938475D02*
X56588819Y-78843237D01*
X56588819Y-78843237D02*
X56588819Y-78652761D01*
X56588819Y-78652761D02*
X56541200Y-78557523D01*
X56541200Y-78557523D02*
X56493580Y-78509904D01*
X56493580Y-78509904D02*
X56398342Y-78462285D01*
X56398342Y-78462285D02*
X56160247Y-78462285D01*
X56160247Y-78462285D02*
X56065009Y-78509904D01*
X56065009Y-78509904D02*
X56017390Y-78557523D01*
X56017390Y-78557523D02*
X55969771Y-78652761D01*
X55969771Y-78652761D02*
X55969771Y-78843237D01*
X55969771Y-78843237D02*
X56017390Y-78938475D01*
X56017390Y-78938475D02*
X56065009Y-78986094D01*
X56065009Y-78986094D02*
X56160247Y-79033713D01*
X104135366Y-78428000D02*
X104168700Y-78461333D01*
X104168700Y-78461333D02*
X104202033Y-78561333D01*
X104202033Y-78561333D02*
X104202033Y-78628000D01*
X104202033Y-78628000D02*
X104168700Y-78728000D01*
X104168700Y-78728000D02*
X104102033Y-78794667D01*
X104102033Y-78794667D02*
X104035366Y-78828000D01*
X104035366Y-78828000D02*
X103902033Y-78861333D01*
X103902033Y-78861333D02*
X103802033Y-78861333D01*
X103802033Y-78861333D02*
X103668700Y-78828000D01*
X103668700Y-78828000D02*
X103602033Y-78794667D01*
X103602033Y-78794667D02*
X103535366Y-78728000D01*
X103535366Y-78728000D02*
X103502033Y-78628000D01*
X103502033Y-78628000D02*
X103502033Y-78561333D01*
X103502033Y-78561333D02*
X103535366Y-78461333D01*
X103535366Y-78461333D02*
X103568700Y-78428000D01*
X104202033Y-77761333D02*
X104202033Y-78161333D01*
X104202033Y-77961333D02*
X103502033Y-77961333D01*
X103502033Y-77961333D02*
X103602033Y-78028000D01*
X103602033Y-78028000D02*
X103668700Y-78094667D01*
X103668700Y-78094667D02*
X103702033Y-78161333D01*
X103502033Y-77328000D02*
X103502033Y-77261333D01*
X103502033Y-77261333D02*
X103535366Y-77194666D01*
X103535366Y-77194666D02*
X103568700Y-77161333D01*
X103568700Y-77161333D02*
X103635366Y-77128000D01*
X103635366Y-77128000D02*
X103768700Y-77094666D01*
X103768700Y-77094666D02*
X103935366Y-77094666D01*
X103935366Y-77094666D02*
X104068700Y-77128000D01*
X104068700Y-77128000D02*
X104135366Y-77161333D01*
X104135366Y-77161333D02*
X104168700Y-77194666D01*
X104168700Y-77194666D02*
X104202033Y-77261333D01*
X104202033Y-77261333D02*
X104202033Y-77328000D01*
X104202033Y-77328000D02*
X104168700Y-77394666D01*
X104168700Y-77394666D02*
X104135366Y-77428000D01*
X104135366Y-77428000D02*
X104068700Y-77461333D01*
X104068700Y-77461333D02*
X103935366Y-77494666D01*
X103935366Y-77494666D02*
X103768700Y-77494666D01*
X103768700Y-77494666D02*
X103635366Y-77461333D01*
X103635366Y-77461333D02*
X103568700Y-77428000D01*
X103568700Y-77428000D02*
X103535366Y-77394666D01*
X103535366Y-77394666D02*
X103502033Y-77328000D01*
X101595366Y-78428000D02*
X101628700Y-78461333D01*
X101628700Y-78461333D02*
X101662033Y-78561333D01*
X101662033Y-78561333D02*
X101662033Y-78628000D01*
X101662033Y-78628000D02*
X101628700Y-78728000D01*
X101628700Y-78728000D02*
X101562033Y-78794667D01*
X101562033Y-78794667D02*
X101495366Y-78828000D01*
X101495366Y-78828000D02*
X101362033Y-78861333D01*
X101362033Y-78861333D02*
X101262033Y-78861333D01*
X101262033Y-78861333D02*
X101128700Y-78828000D01*
X101128700Y-78828000D02*
X101062033Y-78794667D01*
X101062033Y-78794667D02*
X100995366Y-78728000D01*
X100995366Y-78728000D02*
X100962033Y-78628000D01*
X100962033Y-78628000D02*
X100962033Y-78561333D01*
X100962033Y-78561333D02*
X100995366Y-78461333D01*
X100995366Y-78461333D02*
X101028700Y-78428000D01*
X101662033Y-77761333D02*
X101662033Y-78161333D01*
X101662033Y-77961333D02*
X100962033Y-77961333D01*
X100962033Y-77961333D02*
X101062033Y-78028000D01*
X101062033Y-78028000D02*
X101128700Y-78094667D01*
X101128700Y-78094667D02*
X101162033Y-78161333D01*
X101662033Y-77094666D02*
X101662033Y-77494666D01*
X101662033Y-77294666D02*
X100962033Y-77294666D01*
X100962033Y-77294666D02*
X101062033Y-77361333D01*
X101062033Y-77361333D02*
X101128700Y-77428000D01*
X101128700Y-77428000D02*
X101162033Y-77494666D01*
X99055366Y-78428000D02*
X99088700Y-78461333D01*
X99088700Y-78461333D02*
X99122033Y-78561333D01*
X99122033Y-78561333D02*
X99122033Y-78628000D01*
X99122033Y-78628000D02*
X99088700Y-78728000D01*
X99088700Y-78728000D02*
X99022033Y-78794667D01*
X99022033Y-78794667D02*
X98955366Y-78828000D01*
X98955366Y-78828000D02*
X98822033Y-78861333D01*
X98822033Y-78861333D02*
X98722033Y-78861333D01*
X98722033Y-78861333D02*
X98588700Y-78828000D01*
X98588700Y-78828000D02*
X98522033Y-78794667D01*
X98522033Y-78794667D02*
X98455366Y-78728000D01*
X98455366Y-78728000D02*
X98422033Y-78628000D01*
X98422033Y-78628000D02*
X98422033Y-78561333D01*
X98422033Y-78561333D02*
X98455366Y-78461333D01*
X98455366Y-78461333D02*
X98488700Y-78428000D01*
X99122033Y-77761333D02*
X99122033Y-78161333D01*
X99122033Y-77961333D02*
X98422033Y-77961333D01*
X98422033Y-77961333D02*
X98522033Y-78028000D01*
X98522033Y-78028000D02*
X98588700Y-78094667D01*
X98588700Y-78094667D02*
X98622033Y-78161333D01*
X98488700Y-77494666D02*
X98455366Y-77461333D01*
X98455366Y-77461333D02*
X98422033Y-77394666D01*
X98422033Y-77394666D02*
X98422033Y-77228000D01*
X98422033Y-77228000D02*
X98455366Y-77161333D01*
X98455366Y-77161333D02*
X98488700Y-77128000D01*
X98488700Y-77128000D02*
X98555366Y-77094666D01*
X98555366Y-77094666D02*
X98622033Y-77094666D01*
X98622033Y-77094666D02*
X98722033Y-77128000D01*
X98722033Y-77128000D02*
X99122033Y-77528000D01*
X99122033Y-77528000D02*
X99122033Y-77094666D01*
X96388366Y-78428000D02*
X96421700Y-78461333D01*
X96421700Y-78461333D02*
X96455033Y-78561333D01*
X96455033Y-78561333D02*
X96455033Y-78628000D01*
X96455033Y-78628000D02*
X96421700Y-78728000D01*
X96421700Y-78728000D02*
X96355033Y-78794667D01*
X96355033Y-78794667D02*
X96288366Y-78828000D01*
X96288366Y-78828000D02*
X96155033Y-78861333D01*
X96155033Y-78861333D02*
X96055033Y-78861333D01*
X96055033Y-78861333D02*
X95921700Y-78828000D01*
X95921700Y-78828000D02*
X95855033Y-78794667D01*
X95855033Y-78794667D02*
X95788366Y-78728000D01*
X95788366Y-78728000D02*
X95755033Y-78628000D01*
X95755033Y-78628000D02*
X95755033Y-78561333D01*
X95755033Y-78561333D02*
X95788366Y-78461333D01*
X95788366Y-78461333D02*
X95821700Y-78428000D01*
X96455033Y-77761333D02*
X96455033Y-78161333D01*
X96455033Y-77961333D02*
X95755033Y-77961333D01*
X95755033Y-77961333D02*
X95855033Y-78028000D01*
X95855033Y-78028000D02*
X95921700Y-78094667D01*
X95921700Y-78094667D02*
X95955033Y-78161333D01*
X95755033Y-77528000D02*
X95755033Y-77094666D01*
X95755033Y-77094666D02*
X96021700Y-77328000D01*
X96021700Y-77328000D02*
X96021700Y-77228000D01*
X96021700Y-77228000D02*
X96055033Y-77161333D01*
X96055033Y-77161333D02*
X96088366Y-77128000D01*
X96088366Y-77128000D02*
X96155033Y-77094666D01*
X96155033Y-77094666D02*
X96321700Y-77094666D01*
X96321700Y-77094666D02*
X96388366Y-77128000D01*
X96388366Y-77128000D02*
X96421700Y-77161333D01*
X96421700Y-77161333D02*
X96455033Y-77228000D01*
X96455033Y-77228000D02*
X96455033Y-77428000D01*
X96455033Y-77428000D02*
X96421700Y-77494666D01*
X96421700Y-77494666D02*
X96388366Y-77528000D01*
X93975366Y-78428000D02*
X94008700Y-78461333D01*
X94008700Y-78461333D02*
X94042033Y-78561333D01*
X94042033Y-78561333D02*
X94042033Y-78628000D01*
X94042033Y-78628000D02*
X94008700Y-78728000D01*
X94008700Y-78728000D02*
X93942033Y-78794667D01*
X93942033Y-78794667D02*
X93875366Y-78828000D01*
X93875366Y-78828000D02*
X93742033Y-78861333D01*
X93742033Y-78861333D02*
X93642033Y-78861333D01*
X93642033Y-78861333D02*
X93508700Y-78828000D01*
X93508700Y-78828000D02*
X93442033Y-78794667D01*
X93442033Y-78794667D02*
X93375366Y-78728000D01*
X93375366Y-78728000D02*
X93342033Y-78628000D01*
X93342033Y-78628000D02*
X93342033Y-78561333D01*
X93342033Y-78561333D02*
X93375366Y-78461333D01*
X93375366Y-78461333D02*
X93408700Y-78428000D01*
X94042033Y-77761333D02*
X94042033Y-78161333D01*
X94042033Y-77961333D02*
X93342033Y-77961333D01*
X93342033Y-77961333D02*
X93442033Y-78028000D01*
X93442033Y-78028000D02*
X93508700Y-78094667D01*
X93508700Y-78094667D02*
X93542033Y-78161333D01*
X93575366Y-77161333D02*
X94042033Y-77161333D01*
X93308700Y-77328000D02*
X93808700Y-77494666D01*
X93808700Y-77494666D02*
X93808700Y-77061333D01*
X90038366Y-81222000D02*
X90071700Y-81255333D01*
X90071700Y-81255333D02*
X90105033Y-81355333D01*
X90105033Y-81355333D02*
X90105033Y-81422000D01*
X90105033Y-81422000D02*
X90071700Y-81522000D01*
X90071700Y-81522000D02*
X90005033Y-81588667D01*
X90005033Y-81588667D02*
X89938366Y-81622000D01*
X89938366Y-81622000D02*
X89805033Y-81655333D01*
X89805033Y-81655333D02*
X89705033Y-81655333D01*
X89705033Y-81655333D02*
X89571700Y-81622000D01*
X89571700Y-81622000D02*
X89505033Y-81588667D01*
X89505033Y-81588667D02*
X89438366Y-81522000D01*
X89438366Y-81522000D02*
X89405033Y-81422000D01*
X89405033Y-81422000D02*
X89405033Y-81355333D01*
X89405033Y-81355333D02*
X89438366Y-81255333D01*
X89438366Y-81255333D02*
X89471700Y-81222000D01*
X90105033Y-80555333D02*
X90105033Y-80955333D01*
X90105033Y-80755333D02*
X89405033Y-80755333D01*
X89405033Y-80755333D02*
X89505033Y-80822000D01*
X89505033Y-80822000D02*
X89571700Y-80888667D01*
X89571700Y-80888667D02*
X89605033Y-80955333D01*
X89405033Y-79922000D02*
X89405033Y-80255333D01*
X89405033Y-80255333D02*
X89738366Y-80288666D01*
X89738366Y-80288666D02*
X89705033Y-80255333D01*
X89705033Y-80255333D02*
X89671700Y-80188666D01*
X89671700Y-80188666D02*
X89671700Y-80022000D01*
X89671700Y-80022000D02*
X89705033Y-79955333D01*
X89705033Y-79955333D02*
X89738366Y-79922000D01*
X89738366Y-79922000D02*
X89805033Y-79888666D01*
X89805033Y-79888666D02*
X89971700Y-79888666D01*
X89971700Y-79888666D02*
X90038366Y-79922000D01*
X90038366Y-79922000D02*
X90071700Y-79955333D01*
X90071700Y-79955333D02*
X90105033Y-80022000D01*
X90105033Y-80022000D02*
X90105033Y-80188666D01*
X90105033Y-80188666D02*
X90071700Y-80255333D01*
X90071700Y-80255333D02*
X90038366Y-80288666D01*
X82193366Y-45258000D02*
X82226700Y-45291333D01*
X82226700Y-45291333D02*
X82260033Y-45391333D01*
X82260033Y-45391333D02*
X82260033Y-45458000D01*
X82260033Y-45458000D02*
X82226700Y-45558000D01*
X82226700Y-45558000D02*
X82160033Y-45624667D01*
X82160033Y-45624667D02*
X82093366Y-45658000D01*
X82093366Y-45658000D02*
X81960033Y-45691333D01*
X81960033Y-45691333D02*
X81860033Y-45691333D01*
X81860033Y-45691333D02*
X81726700Y-45658000D01*
X81726700Y-45658000D02*
X81660033Y-45624667D01*
X81660033Y-45624667D02*
X81593366Y-45558000D01*
X81593366Y-45558000D02*
X81560033Y-45458000D01*
X81560033Y-45458000D02*
X81560033Y-45391333D01*
X81560033Y-45391333D02*
X81593366Y-45291333D01*
X81593366Y-45291333D02*
X81626700Y-45258000D01*
X82260033Y-44591333D02*
X82260033Y-44991333D01*
X82260033Y-44791333D02*
X81560033Y-44791333D01*
X81560033Y-44791333D02*
X81660033Y-44858000D01*
X81660033Y-44858000D02*
X81726700Y-44924667D01*
X81726700Y-44924667D02*
X81760033Y-44991333D01*
X81560033Y-43991333D02*
X81560033Y-44124666D01*
X81560033Y-44124666D02*
X81593366Y-44191333D01*
X81593366Y-44191333D02*
X81626700Y-44224666D01*
X81626700Y-44224666D02*
X81726700Y-44291333D01*
X81726700Y-44291333D02*
X81860033Y-44324666D01*
X81860033Y-44324666D02*
X82126700Y-44324666D01*
X82126700Y-44324666D02*
X82193366Y-44291333D01*
X82193366Y-44291333D02*
X82226700Y-44258000D01*
X82226700Y-44258000D02*
X82260033Y-44191333D01*
X82260033Y-44191333D02*
X82260033Y-44058000D01*
X82260033Y-44058000D02*
X82226700Y-43991333D01*
X82226700Y-43991333D02*
X82193366Y-43958000D01*
X82193366Y-43958000D02*
X82126700Y-43924666D01*
X82126700Y-43924666D02*
X81960033Y-43924666D01*
X81960033Y-43924666D02*
X81893366Y-43958000D01*
X81893366Y-43958000D02*
X81860033Y-43991333D01*
X81860033Y-43991333D02*
X81826700Y-44058000D01*
X81826700Y-44058000D02*
X81826700Y-44191333D01*
X81826700Y-44191333D02*
X81860033Y-44258000D01*
X81860033Y-44258000D02*
X81893366Y-44291333D01*
X81893366Y-44291333D02*
X81960033Y-44324666D01*
X52827366Y-90620000D02*
X52860700Y-90653333D01*
X52860700Y-90653333D02*
X52894033Y-90753333D01*
X52894033Y-90753333D02*
X52894033Y-90820000D01*
X52894033Y-90820000D02*
X52860700Y-90920000D01*
X52860700Y-90920000D02*
X52794033Y-90986667D01*
X52794033Y-90986667D02*
X52727366Y-91020000D01*
X52727366Y-91020000D02*
X52594033Y-91053333D01*
X52594033Y-91053333D02*
X52494033Y-91053333D01*
X52494033Y-91053333D02*
X52360700Y-91020000D01*
X52360700Y-91020000D02*
X52294033Y-90986667D01*
X52294033Y-90986667D02*
X52227366Y-90920000D01*
X52227366Y-90920000D02*
X52194033Y-90820000D01*
X52194033Y-90820000D02*
X52194033Y-90753333D01*
X52194033Y-90753333D02*
X52227366Y-90653333D01*
X52227366Y-90653333D02*
X52260700Y-90620000D01*
X52894033Y-89953333D02*
X52894033Y-90353333D01*
X52894033Y-90153333D02*
X52194033Y-90153333D01*
X52194033Y-90153333D02*
X52294033Y-90220000D01*
X52294033Y-90220000D02*
X52360700Y-90286667D01*
X52360700Y-90286667D02*
X52394033Y-90353333D01*
X52194033Y-89720000D02*
X52194033Y-89253333D01*
X52194033Y-89253333D02*
X52894033Y-89553333D01*
X55113366Y-90620000D02*
X55146700Y-90653333D01*
X55146700Y-90653333D02*
X55180033Y-90753333D01*
X55180033Y-90753333D02*
X55180033Y-90820000D01*
X55180033Y-90820000D02*
X55146700Y-90920000D01*
X55146700Y-90920000D02*
X55080033Y-90986667D01*
X55080033Y-90986667D02*
X55013366Y-91020000D01*
X55013366Y-91020000D02*
X54880033Y-91053333D01*
X54880033Y-91053333D02*
X54780033Y-91053333D01*
X54780033Y-91053333D02*
X54646700Y-91020000D01*
X54646700Y-91020000D02*
X54580033Y-90986667D01*
X54580033Y-90986667D02*
X54513366Y-90920000D01*
X54513366Y-90920000D02*
X54480033Y-90820000D01*
X54480033Y-90820000D02*
X54480033Y-90753333D01*
X54480033Y-90753333D02*
X54513366Y-90653333D01*
X54513366Y-90653333D02*
X54546700Y-90620000D01*
X55180033Y-89953333D02*
X55180033Y-90353333D01*
X55180033Y-90153333D02*
X54480033Y-90153333D01*
X54480033Y-90153333D02*
X54580033Y-90220000D01*
X54580033Y-90220000D02*
X54646700Y-90286667D01*
X54646700Y-90286667D02*
X54680033Y-90353333D01*
X54780033Y-89553333D02*
X54746700Y-89620000D01*
X54746700Y-89620000D02*
X54713366Y-89653333D01*
X54713366Y-89653333D02*
X54646700Y-89686666D01*
X54646700Y-89686666D02*
X54613366Y-89686666D01*
X54613366Y-89686666D02*
X54546700Y-89653333D01*
X54546700Y-89653333D02*
X54513366Y-89620000D01*
X54513366Y-89620000D02*
X54480033Y-89553333D01*
X54480033Y-89553333D02*
X54480033Y-89420000D01*
X54480033Y-89420000D02*
X54513366Y-89353333D01*
X54513366Y-89353333D02*
X54546700Y-89320000D01*
X54546700Y-89320000D02*
X54613366Y-89286666D01*
X54613366Y-89286666D02*
X54646700Y-89286666D01*
X54646700Y-89286666D02*
X54713366Y-89320000D01*
X54713366Y-89320000D02*
X54746700Y-89353333D01*
X54746700Y-89353333D02*
X54780033Y-89420000D01*
X54780033Y-89420000D02*
X54780033Y-89553333D01*
X54780033Y-89553333D02*
X54813366Y-89620000D01*
X54813366Y-89620000D02*
X54846700Y-89653333D01*
X54846700Y-89653333D02*
X54913366Y-89686666D01*
X54913366Y-89686666D02*
X55046700Y-89686666D01*
X55046700Y-89686666D02*
X55113366Y-89653333D01*
X55113366Y-89653333D02*
X55146700Y-89620000D01*
X55146700Y-89620000D02*
X55180033Y-89553333D01*
X55180033Y-89553333D02*
X55180033Y-89420000D01*
X55180033Y-89420000D02*
X55146700Y-89353333D01*
X55146700Y-89353333D02*
X55113366Y-89320000D01*
X55113366Y-89320000D02*
X55046700Y-89286666D01*
X55046700Y-89286666D02*
X54913366Y-89286666D01*
X54913366Y-89286666D02*
X54846700Y-89320000D01*
X54846700Y-89320000D02*
X54813366Y-89353333D01*
X54813366Y-89353333D02*
X54780033Y-89420000D01*
X59939366Y-90620000D02*
X59972700Y-90653333D01*
X59972700Y-90653333D02*
X60006033Y-90753333D01*
X60006033Y-90753333D02*
X60006033Y-90820000D01*
X60006033Y-90820000D02*
X59972700Y-90920000D01*
X59972700Y-90920000D02*
X59906033Y-90986667D01*
X59906033Y-90986667D02*
X59839366Y-91020000D01*
X59839366Y-91020000D02*
X59706033Y-91053333D01*
X59706033Y-91053333D02*
X59606033Y-91053333D01*
X59606033Y-91053333D02*
X59472700Y-91020000D01*
X59472700Y-91020000D02*
X59406033Y-90986667D01*
X59406033Y-90986667D02*
X59339366Y-90920000D01*
X59339366Y-90920000D02*
X59306033Y-90820000D01*
X59306033Y-90820000D02*
X59306033Y-90753333D01*
X59306033Y-90753333D02*
X59339366Y-90653333D01*
X59339366Y-90653333D02*
X59372700Y-90620000D01*
X60006033Y-89953333D02*
X60006033Y-90353333D01*
X60006033Y-90153333D02*
X59306033Y-90153333D01*
X59306033Y-90153333D02*
X59406033Y-90220000D01*
X59406033Y-90220000D02*
X59472700Y-90286667D01*
X59472700Y-90286667D02*
X59506033Y-90353333D01*
X60006033Y-89620000D02*
X60006033Y-89486666D01*
X60006033Y-89486666D02*
X59972700Y-89420000D01*
X59972700Y-89420000D02*
X59939366Y-89386666D01*
X59939366Y-89386666D02*
X59839366Y-89320000D01*
X59839366Y-89320000D02*
X59706033Y-89286666D01*
X59706033Y-89286666D02*
X59439366Y-89286666D01*
X59439366Y-89286666D02*
X59372700Y-89320000D01*
X59372700Y-89320000D02*
X59339366Y-89353333D01*
X59339366Y-89353333D02*
X59306033Y-89420000D01*
X59306033Y-89420000D02*
X59306033Y-89553333D01*
X59306033Y-89553333D02*
X59339366Y-89620000D01*
X59339366Y-89620000D02*
X59372700Y-89653333D01*
X59372700Y-89653333D02*
X59439366Y-89686666D01*
X59439366Y-89686666D02*
X59606033Y-89686666D01*
X59606033Y-89686666D02*
X59672700Y-89653333D01*
X59672700Y-89653333D02*
X59706033Y-89620000D01*
X59706033Y-89620000D02*
X59739366Y-89553333D01*
X59739366Y-89553333D02*
X59739366Y-89420000D01*
X59739366Y-89420000D02*
X59706033Y-89353333D01*
X59706033Y-89353333D02*
X59672700Y-89320000D01*
X59672700Y-89320000D02*
X59606033Y-89286666D01*
X57653366Y-90620000D02*
X57686700Y-90653333D01*
X57686700Y-90653333D02*
X57720033Y-90753333D01*
X57720033Y-90753333D02*
X57720033Y-90820000D01*
X57720033Y-90820000D02*
X57686700Y-90920000D01*
X57686700Y-90920000D02*
X57620033Y-90986667D01*
X57620033Y-90986667D02*
X57553366Y-91020000D01*
X57553366Y-91020000D02*
X57420033Y-91053333D01*
X57420033Y-91053333D02*
X57320033Y-91053333D01*
X57320033Y-91053333D02*
X57186700Y-91020000D01*
X57186700Y-91020000D02*
X57120033Y-90986667D01*
X57120033Y-90986667D02*
X57053366Y-90920000D01*
X57053366Y-90920000D02*
X57020033Y-90820000D01*
X57020033Y-90820000D02*
X57020033Y-90753333D01*
X57020033Y-90753333D02*
X57053366Y-90653333D01*
X57053366Y-90653333D02*
X57086700Y-90620000D01*
X57086700Y-90353333D02*
X57053366Y-90320000D01*
X57053366Y-90320000D02*
X57020033Y-90253333D01*
X57020033Y-90253333D02*
X57020033Y-90086667D01*
X57020033Y-90086667D02*
X57053366Y-90020000D01*
X57053366Y-90020000D02*
X57086700Y-89986667D01*
X57086700Y-89986667D02*
X57153366Y-89953333D01*
X57153366Y-89953333D02*
X57220033Y-89953333D01*
X57220033Y-89953333D02*
X57320033Y-89986667D01*
X57320033Y-89986667D02*
X57720033Y-90386667D01*
X57720033Y-90386667D02*
X57720033Y-89953333D01*
X57020033Y-89520000D02*
X57020033Y-89453333D01*
X57020033Y-89453333D02*
X57053366Y-89386666D01*
X57053366Y-89386666D02*
X57086700Y-89353333D01*
X57086700Y-89353333D02*
X57153366Y-89320000D01*
X57153366Y-89320000D02*
X57286700Y-89286666D01*
X57286700Y-89286666D02*
X57453366Y-89286666D01*
X57453366Y-89286666D02*
X57586700Y-89320000D01*
X57586700Y-89320000D02*
X57653366Y-89353333D01*
X57653366Y-89353333D02*
X57686700Y-89386666D01*
X57686700Y-89386666D02*
X57720033Y-89453333D01*
X57720033Y-89453333D02*
X57720033Y-89520000D01*
X57720033Y-89520000D02*
X57686700Y-89586666D01*
X57686700Y-89586666D02*
X57653366Y-89620000D01*
X57653366Y-89620000D02*
X57586700Y-89653333D01*
X57586700Y-89653333D02*
X57453366Y-89686666D01*
X57453366Y-89686666D02*
X57286700Y-89686666D01*
X57286700Y-89686666D02*
X57153366Y-89653333D01*
X57153366Y-89653333D02*
X57086700Y-89620000D01*
X57086700Y-89620000D02*
X57053366Y-89586666D01*
X57053366Y-89586666D02*
X57020033Y-89520000D01*
X45415580Y-87593466D02*
X45463200Y-87641085D01*
X45463200Y-87641085D02*
X45510819Y-87783942D01*
X45510819Y-87783942D02*
X45510819Y-87879180D01*
X45510819Y-87879180D02*
X45463200Y-88022037D01*
X45463200Y-88022037D02*
X45367961Y-88117275D01*
X45367961Y-88117275D02*
X45272723Y-88164894D01*
X45272723Y-88164894D02*
X45082247Y-88212513D01*
X45082247Y-88212513D02*
X44939390Y-88212513D01*
X44939390Y-88212513D02*
X44748914Y-88164894D01*
X44748914Y-88164894D02*
X44653676Y-88117275D01*
X44653676Y-88117275D02*
X44558438Y-88022037D01*
X44558438Y-88022037D02*
X44510819Y-87879180D01*
X44510819Y-87879180D02*
X44510819Y-87783942D01*
X44510819Y-87783942D02*
X44558438Y-87641085D01*
X44558438Y-87641085D02*
X44606057Y-87593466D01*
X45510819Y-87117275D02*
X45510819Y-86926799D01*
X45510819Y-86926799D02*
X45463200Y-86831561D01*
X45463200Y-86831561D02*
X45415580Y-86783942D01*
X45415580Y-86783942D02*
X45272723Y-86688704D01*
X45272723Y-86688704D02*
X45082247Y-86641085D01*
X45082247Y-86641085D02*
X44701295Y-86641085D01*
X44701295Y-86641085D02*
X44606057Y-86688704D01*
X44606057Y-86688704D02*
X44558438Y-86736323D01*
X44558438Y-86736323D02*
X44510819Y-86831561D01*
X44510819Y-86831561D02*
X44510819Y-87022037D01*
X44510819Y-87022037D02*
X44558438Y-87117275D01*
X44558438Y-87117275D02*
X44606057Y-87164894D01*
X44606057Y-87164894D02*
X44701295Y-87212513D01*
X44701295Y-87212513D02*
X44939390Y-87212513D01*
X44939390Y-87212513D02*
X45034628Y-87164894D01*
X45034628Y-87164894D02*
X45082247Y-87117275D01*
X45082247Y-87117275D02*
X45129866Y-87022037D01*
X45129866Y-87022037D02*
X45129866Y-86831561D01*
X45129866Y-86831561D02*
X45082247Y-86736323D01*
X45082247Y-86736323D02*
X45034628Y-86688704D01*
X45034628Y-86688704D02*
X44939390Y-86641085D01*
X66280819Y-91011333D02*
X66995104Y-91011333D01*
X66995104Y-91011333D02*
X67137961Y-91058952D01*
X67137961Y-91058952D02*
X67233200Y-91154190D01*
X67233200Y-91154190D02*
X67280819Y-91297047D01*
X67280819Y-91297047D02*
X67280819Y-91392285D01*
X66280819Y-90630380D02*
X66280819Y-90011333D01*
X66280819Y-90011333D02*
X66661771Y-90344666D01*
X66661771Y-90344666D02*
X66661771Y-90201809D01*
X66661771Y-90201809D02*
X66709390Y-90106571D01*
X66709390Y-90106571D02*
X66757009Y-90058952D01*
X66757009Y-90058952D02*
X66852247Y-90011333D01*
X66852247Y-90011333D02*
X67090342Y-90011333D01*
X67090342Y-90011333D02*
X67185580Y-90058952D01*
X67185580Y-90058952D02*
X67233200Y-90106571D01*
X67233200Y-90106571D02*
X67280819Y-90201809D01*
X67280819Y-90201809D02*
X67280819Y-90487523D01*
X67280819Y-90487523D02*
X67233200Y-90582761D01*
X67233200Y-90582761D02*
X67185580Y-90630380D01*
X109793819Y-89487333D02*
X110508104Y-89487333D01*
X110508104Y-89487333D02*
X110650961Y-89534952D01*
X110650961Y-89534952D02*
X110746200Y-89630190D01*
X110746200Y-89630190D02*
X110793819Y-89773047D01*
X110793819Y-89773047D02*
X110793819Y-89868285D01*
X109793819Y-89106380D02*
X109793819Y-88439714D01*
X109793819Y-88439714D02*
X110793819Y-88868285D01*
X64732819Y-83645333D02*
X65447104Y-83645333D01*
X65447104Y-83645333D02*
X65589961Y-83692952D01*
X65589961Y-83692952D02*
X65685200Y-83788190D01*
X65685200Y-83788190D02*
X65732819Y-83931047D01*
X65732819Y-83931047D02*
X65732819Y-84026285D01*
X64732819Y-82740571D02*
X64732819Y-82931047D01*
X64732819Y-82931047D02*
X64780438Y-83026285D01*
X64780438Y-83026285D02*
X64828057Y-83073904D01*
X64828057Y-83073904D02*
X64970914Y-83169142D01*
X64970914Y-83169142D02*
X65161390Y-83216761D01*
X65161390Y-83216761D02*
X65542342Y-83216761D01*
X65542342Y-83216761D02*
X65637580Y-83169142D01*
X65637580Y-83169142D02*
X65685200Y-83121523D01*
X65685200Y-83121523D02*
X65732819Y-83026285D01*
X65732819Y-83026285D02*
X65732819Y-82835809D01*
X65732819Y-82835809D02*
X65685200Y-82740571D01*
X65685200Y-82740571D02*
X65637580Y-82692952D01*
X65637580Y-82692952D02*
X65542342Y-82645333D01*
X65542342Y-82645333D02*
X65304247Y-82645333D01*
X65304247Y-82645333D02*
X65209009Y-82692952D01*
X65209009Y-82692952D02*
X65161390Y-82740571D01*
X65161390Y-82740571D02*
X65113771Y-82835809D01*
X65113771Y-82835809D02*
X65113771Y-83026285D01*
X65113771Y-83026285D02*
X65161390Y-83121523D01*
X65161390Y-83121523D02*
X65209009Y-83169142D01*
X65209009Y-83169142D02*
X65304247Y-83216761D01*
X64248819Y-40973333D02*
X64963104Y-40973333D01*
X64963104Y-40973333D02*
X65105961Y-41020952D01*
X65105961Y-41020952D02*
X65201200Y-41116190D01*
X65201200Y-41116190D02*
X65248819Y-41259047D01*
X65248819Y-41259047D02*
X65248819Y-41354285D01*
X64677390Y-40354285D02*
X64629771Y-40449523D01*
X64629771Y-40449523D02*
X64582152Y-40497142D01*
X64582152Y-40497142D02*
X64486914Y-40544761D01*
X64486914Y-40544761D02*
X64439295Y-40544761D01*
X64439295Y-40544761D02*
X64344057Y-40497142D01*
X64344057Y-40497142D02*
X64296438Y-40449523D01*
X64296438Y-40449523D02*
X64248819Y-40354285D01*
X64248819Y-40354285D02*
X64248819Y-40163809D01*
X64248819Y-40163809D02*
X64296438Y-40068571D01*
X64296438Y-40068571D02*
X64344057Y-40020952D01*
X64344057Y-40020952D02*
X64439295Y-39973333D01*
X64439295Y-39973333D02*
X64486914Y-39973333D01*
X64486914Y-39973333D02*
X64582152Y-40020952D01*
X64582152Y-40020952D02*
X64629771Y-40068571D01*
X64629771Y-40068571D02*
X64677390Y-40163809D01*
X64677390Y-40163809D02*
X64677390Y-40354285D01*
X64677390Y-40354285D02*
X64725009Y-40449523D01*
X64725009Y-40449523D02*
X64772628Y-40497142D01*
X64772628Y-40497142D02*
X64867866Y-40544761D01*
X64867866Y-40544761D02*
X65058342Y-40544761D01*
X65058342Y-40544761D02*
X65153580Y-40497142D01*
X65153580Y-40497142D02*
X65201200Y-40449523D01*
X65201200Y-40449523D02*
X65248819Y-40354285D01*
X65248819Y-40354285D02*
X65248819Y-40163809D01*
X65248819Y-40163809D02*
X65201200Y-40068571D01*
X65201200Y-40068571D02*
X65153580Y-40020952D01*
X65153580Y-40020952D02*
X65058342Y-39973333D01*
X65058342Y-39973333D02*
X64867866Y-39973333D01*
X64867866Y-39973333D02*
X64772628Y-40020952D01*
X64772628Y-40020952D02*
X64725009Y-40068571D01*
X64725009Y-40068571D02*
X64677390Y-40163809D01*
X44412819Y-83645333D02*
X45127104Y-83645333D01*
X45127104Y-83645333D02*
X45269961Y-83692952D01*
X45269961Y-83692952D02*
X45365200Y-83788190D01*
X45365200Y-83788190D02*
X45412819Y-83931047D01*
X45412819Y-83931047D02*
X45412819Y-84026285D01*
X45412819Y-83121523D02*
X45412819Y-82931047D01*
X45412819Y-82931047D02*
X45365200Y-82835809D01*
X45365200Y-82835809D02*
X45317580Y-82788190D01*
X45317580Y-82788190D02*
X45174723Y-82692952D01*
X45174723Y-82692952D02*
X44984247Y-82645333D01*
X44984247Y-82645333D02*
X44603295Y-82645333D01*
X44603295Y-82645333D02*
X44508057Y-82692952D01*
X44508057Y-82692952D02*
X44460438Y-82740571D01*
X44460438Y-82740571D02*
X44412819Y-82835809D01*
X44412819Y-82835809D02*
X44412819Y-83026285D01*
X44412819Y-83026285D02*
X44460438Y-83121523D01*
X44460438Y-83121523D02*
X44508057Y-83169142D01*
X44508057Y-83169142D02*
X44603295Y-83216761D01*
X44603295Y-83216761D02*
X44841390Y-83216761D01*
X44841390Y-83216761D02*
X44936628Y-83169142D01*
X44936628Y-83169142D02*
X44984247Y-83121523D01*
X44984247Y-83121523D02*
X45031866Y-83026285D01*
X45031866Y-83026285D02*
X45031866Y-82835809D01*
X45031866Y-82835809D02*
X44984247Y-82740571D01*
X44984247Y-82740571D02*
X44936628Y-82692952D01*
X44936628Y-82692952D02*
X44841390Y-82645333D01*
X90812666Y-42634819D02*
X90812666Y-43349104D01*
X90812666Y-43349104D02*
X90765047Y-43491961D01*
X90765047Y-43491961D02*
X90669809Y-43587200D01*
X90669809Y-43587200D02*
X90526952Y-43634819D01*
X90526952Y-43634819D02*
X90431714Y-43634819D01*
X91241238Y-42730057D02*
X91288857Y-42682438D01*
X91288857Y-42682438D02*
X91384095Y-42634819D01*
X91384095Y-42634819D02*
X91622190Y-42634819D01*
X91622190Y-42634819D02*
X91717428Y-42682438D01*
X91717428Y-42682438D02*
X91765047Y-42730057D01*
X91765047Y-42730057D02*
X91812666Y-42825295D01*
X91812666Y-42825295D02*
X91812666Y-42920533D01*
X91812666Y-42920533D02*
X91765047Y-43063390D01*
X91765047Y-43063390D02*
X91193619Y-43634819D01*
X91193619Y-43634819D02*
X91812666Y-43634819D01*
X58747819Y-79772666D02*
X58271628Y-80105999D01*
X58747819Y-80344094D02*
X57747819Y-80344094D01*
X57747819Y-80344094D02*
X57747819Y-79963142D01*
X57747819Y-79963142D02*
X57795438Y-79867904D01*
X57795438Y-79867904D02*
X57843057Y-79820285D01*
X57843057Y-79820285D02*
X57938295Y-79772666D01*
X57938295Y-79772666D02*
X58081152Y-79772666D01*
X58081152Y-79772666D02*
X58176390Y-79820285D01*
X58176390Y-79820285D02*
X58224009Y-79867904D01*
X58224009Y-79867904D02*
X58271628Y-79963142D01*
X58271628Y-79963142D02*
X58271628Y-80344094D01*
X57843057Y-79391713D02*
X57795438Y-79344094D01*
X57795438Y-79344094D02*
X57747819Y-79248856D01*
X57747819Y-79248856D02*
X57747819Y-79010761D01*
X57747819Y-79010761D02*
X57795438Y-78915523D01*
X57795438Y-78915523D02*
X57843057Y-78867904D01*
X57843057Y-78867904D02*
X57938295Y-78820285D01*
X57938295Y-78820285D02*
X58033533Y-78820285D01*
X58033533Y-78820285D02*
X58176390Y-78867904D01*
X58176390Y-78867904D02*
X58747819Y-79439332D01*
X58747819Y-79439332D02*
X58747819Y-78820285D01*
X112330033Y-92572666D02*
X111996700Y-92805999D01*
X112330033Y-92972666D02*
X111630033Y-92972666D01*
X111630033Y-92972666D02*
X111630033Y-92705999D01*
X111630033Y-92705999D02*
X111663366Y-92639333D01*
X111663366Y-92639333D02*
X111696700Y-92605999D01*
X111696700Y-92605999D02*
X111763366Y-92572666D01*
X111763366Y-92572666D02*
X111863366Y-92572666D01*
X111863366Y-92572666D02*
X111930033Y-92605999D01*
X111930033Y-92605999D02*
X111963366Y-92639333D01*
X111963366Y-92639333D02*
X111996700Y-92705999D01*
X111996700Y-92705999D02*
X111996700Y-92972666D01*
X111630033Y-92339333D02*
X111630033Y-91872666D01*
X111630033Y-91872666D02*
X112330033Y-92172666D01*
X105420333Y-91375033D02*
X105187000Y-91041700D01*
X105020333Y-91375033D02*
X105020333Y-90675033D01*
X105020333Y-90675033D02*
X105287000Y-90675033D01*
X105287000Y-90675033D02*
X105353667Y-90708366D01*
X105353667Y-90708366D02*
X105387000Y-90741700D01*
X105387000Y-90741700D02*
X105420333Y-90808366D01*
X105420333Y-90808366D02*
X105420333Y-90908366D01*
X105420333Y-90908366D02*
X105387000Y-90975033D01*
X105387000Y-90975033D02*
X105353667Y-91008366D01*
X105353667Y-91008366D02*
X105287000Y-91041700D01*
X105287000Y-91041700D02*
X105020333Y-91041700D01*
X105820333Y-90975033D02*
X105753667Y-90941700D01*
X105753667Y-90941700D02*
X105720333Y-90908366D01*
X105720333Y-90908366D02*
X105687000Y-90841700D01*
X105687000Y-90841700D02*
X105687000Y-90808366D01*
X105687000Y-90808366D02*
X105720333Y-90741700D01*
X105720333Y-90741700D02*
X105753667Y-90708366D01*
X105753667Y-90708366D02*
X105820333Y-90675033D01*
X105820333Y-90675033D02*
X105953667Y-90675033D01*
X105953667Y-90675033D02*
X106020333Y-90708366D01*
X106020333Y-90708366D02*
X106053667Y-90741700D01*
X106053667Y-90741700D02*
X106087000Y-90808366D01*
X106087000Y-90808366D02*
X106087000Y-90841700D01*
X106087000Y-90841700D02*
X106053667Y-90908366D01*
X106053667Y-90908366D02*
X106020333Y-90941700D01*
X106020333Y-90941700D02*
X105953667Y-90975033D01*
X105953667Y-90975033D02*
X105820333Y-90975033D01*
X105820333Y-90975033D02*
X105753667Y-91008366D01*
X105753667Y-91008366D02*
X105720333Y-91041700D01*
X105720333Y-91041700D02*
X105687000Y-91108366D01*
X105687000Y-91108366D02*
X105687000Y-91241700D01*
X105687000Y-91241700D02*
X105720333Y-91308366D01*
X105720333Y-91308366D02*
X105753667Y-91341700D01*
X105753667Y-91341700D02*
X105820333Y-91375033D01*
X105820333Y-91375033D02*
X105953667Y-91375033D01*
X105953667Y-91375033D02*
X106020333Y-91341700D01*
X106020333Y-91341700D02*
X106053667Y-91308366D01*
X106053667Y-91308366D02*
X106087000Y-91241700D01*
X106087000Y-91241700D02*
X106087000Y-91108366D01*
X106087000Y-91108366D02*
X106053667Y-91041700D01*
X106053667Y-91041700D02*
X106020333Y-91008366D01*
X106020333Y-91008366D02*
X105953667Y-90975033D01*
X101356333Y-91375033D02*
X101123000Y-91041700D01*
X100956333Y-91375033D02*
X100956333Y-90675033D01*
X100956333Y-90675033D02*
X101223000Y-90675033D01*
X101223000Y-90675033D02*
X101289667Y-90708366D01*
X101289667Y-90708366D02*
X101323000Y-90741700D01*
X101323000Y-90741700D02*
X101356333Y-90808366D01*
X101356333Y-90808366D02*
X101356333Y-90908366D01*
X101356333Y-90908366D02*
X101323000Y-90975033D01*
X101323000Y-90975033D02*
X101289667Y-91008366D01*
X101289667Y-91008366D02*
X101223000Y-91041700D01*
X101223000Y-91041700D02*
X100956333Y-91041700D01*
X101689667Y-91375033D02*
X101823000Y-91375033D01*
X101823000Y-91375033D02*
X101889667Y-91341700D01*
X101889667Y-91341700D02*
X101923000Y-91308366D01*
X101923000Y-91308366D02*
X101989667Y-91208366D01*
X101989667Y-91208366D02*
X102023000Y-91075033D01*
X102023000Y-91075033D02*
X102023000Y-90808366D01*
X102023000Y-90808366D02*
X101989667Y-90741700D01*
X101989667Y-90741700D02*
X101956333Y-90708366D01*
X101956333Y-90708366D02*
X101889667Y-90675033D01*
X101889667Y-90675033D02*
X101756333Y-90675033D01*
X101756333Y-90675033D02*
X101689667Y-90708366D01*
X101689667Y-90708366D02*
X101656333Y-90741700D01*
X101656333Y-90741700D02*
X101623000Y-90808366D01*
X101623000Y-90808366D02*
X101623000Y-90975033D01*
X101623000Y-90975033D02*
X101656333Y-91041700D01*
X101656333Y-91041700D02*
X101689667Y-91075033D01*
X101689667Y-91075033D02*
X101756333Y-91108366D01*
X101756333Y-91108366D02*
X101889667Y-91108366D01*
X101889667Y-91108366D02*
X101956333Y-91075033D01*
X101956333Y-91075033D02*
X101989667Y-91041700D01*
X101989667Y-91041700D02*
X102023000Y-90975033D01*
X96958999Y-91375033D02*
X96725666Y-91041700D01*
X96558999Y-91375033D02*
X96558999Y-90675033D01*
X96558999Y-90675033D02*
X96825666Y-90675033D01*
X96825666Y-90675033D02*
X96892333Y-90708366D01*
X96892333Y-90708366D02*
X96925666Y-90741700D01*
X96925666Y-90741700D02*
X96958999Y-90808366D01*
X96958999Y-90808366D02*
X96958999Y-90908366D01*
X96958999Y-90908366D02*
X96925666Y-90975033D01*
X96925666Y-90975033D02*
X96892333Y-91008366D01*
X96892333Y-91008366D02*
X96825666Y-91041700D01*
X96825666Y-91041700D02*
X96558999Y-91041700D01*
X97625666Y-91375033D02*
X97225666Y-91375033D01*
X97425666Y-91375033D02*
X97425666Y-90675033D01*
X97425666Y-90675033D02*
X97358999Y-90775033D01*
X97358999Y-90775033D02*
X97292333Y-90841700D01*
X97292333Y-90841700D02*
X97225666Y-90875033D01*
X98059000Y-90675033D02*
X98125666Y-90675033D01*
X98125666Y-90675033D02*
X98192333Y-90708366D01*
X98192333Y-90708366D02*
X98225666Y-90741700D01*
X98225666Y-90741700D02*
X98259000Y-90808366D01*
X98259000Y-90808366D02*
X98292333Y-90941700D01*
X98292333Y-90941700D02*
X98292333Y-91108366D01*
X98292333Y-91108366D02*
X98259000Y-91241700D01*
X98259000Y-91241700D02*
X98225666Y-91308366D01*
X98225666Y-91308366D02*
X98192333Y-91341700D01*
X98192333Y-91341700D02*
X98125666Y-91375033D01*
X98125666Y-91375033D02*
X98059000Y-91375033D01*
X98059000Y-91375033D02*
X97992333Y-91341700D01*
X97992333Y-91341700D02*
X97959000Y-91308366D01*
X97959000Y-91308366D02*
X97925666Y-91241700D01*
X97925666Y-91241700D02*
X97892333Y-91108366D01*
X97892333Y-91108366D02*
X97892333Y-90941700D01*
X97892333Y-90941700D02*
X97925666Y-90808366D01*
X97925666Y-90808366D02*
X97959000Y-90741700D01*
X97959000Y-90741700D02*
X97992333Y-90708366D01*
X97992333Y-90708366D02*
X98059000Y-90675033D01*
X92894999Y-91375033D02*
X92661666Y-91041700D01*
X92494999Y-91375033D02*
X92494999Y-90675033D01*
X92494999Y-90675033D02*
X92761666Y-90675033D01*
X92761666Y-90675033D02*
X92828333Y-90708366D01*
X92828333Y-90708366D02*
X92861666Y-90741700D01*
X92861666Y-90741700D02*
X92894999Y-90808366D01*
X92894999Y-90808366D02*
X92894999Y-90908366D01*
X92894999Y-90908366D02*
X92861666Y-90975033D01*
X92861666Y-90975033D02*
X92828333Y-91008366D01*
X92828333Y-91008366D02*
X92761666Y-91041700D01*
X92761666Y-91041700D02*
X92494999Y-91041700D01*
X93561666Y-91375033D02*
X93161666Y-91375033D01*
X93361666Y-91375033D02*
X93361666Y-90675033D01*
X93361666Y-90675033D02*
X93294999Y-90775033D01*
X93294999Y-90775033D02*
X93228333Y-90841700D01*
X93228333Y-90841700D02*
X93161666Y-90875033D01*
X94228333Y-91375033D02*
X93828333Y-91375033D01*
X94028333Y-91375033D02*
X94028333Y-90675033D01*
X94028333Y-90675033D02*
X93961666Y-90775033D01*
X93961666Y-90775033D02*
X93895000Y-90841700D01*
X93895000Y-90841700D02*
X93828333Y-90875033D01*
X88839999Y-91375033D02*
X88606666Y-91041700D01*
X88439999Y-91375033D02*
X88439999Y-90675033D01*
X88439999Y-90675033D02*
X88706666Y-90675033D01*
X88706666Y-90675033D02*
X88773333Y-90708366D01*
X88773333Y-90708366D02*
X88806666Y-90741700D01*
X88806666Y-90741700D02*
X88839999Y-90808366D01*
X88839999Y-90808366D02*
X88839999Y-90908366D01*
X88839999Y-90908366D02*
X88806666Y-90975033D01*
X88806666Y-90975033D02*
X88773333Y-91008366D01*
X88773333Y-91008366D02*
X88706666Y-91041700D01*
X88706666Y-91041700D02*
X88439999Y-91041700D01*
X89506666Y-91375033D02*
X89106666Y-91375033D01*
X89306666Y-91375033D02*
X89306666Y-90675033D01*
X89306666Y-90675033D02*
X89239999Y-90775033D01*
X89239999Y-90775033D02*
X89173333Y-90841700D01*
X89173333Y-90841700D02*
X89106666Y-90875033D01*
X89773333Y-90741700D02*
X89806666Y-90708366D01*
X89806666Y-90708366D02*
X89873333Y-90675033D01*
X89873333Y-90675033D02*
X90040000Y-90675033D01*
X90040000Y-90675033D02*
X90106666Y-90708366D01*
X90106666Y-90708366D02*
X90140000Y-90741700D01*
X90140000Y-90741700D02*
X90173333Y-90808366D01*
X90173333Y-90808366D02*
X90173333Y-90875033D01*
X90173333Y-90875033D02*
X90140000Y-90975033D01*
X90140000Y-90975033D02*
X89740000Y-91375033D01*
X89740000Y-91375033D02*
X90173333Y-91375033D01*
X105979033Y-85413000D02*
X105645700Y-85646333D01*
X105979033Y-85813000D02*
X105279033Y-85813000D01*
X105279033Y-85813000D02*
X105279033Y-85546333D01*
X105279033Y-85546333D02*
X105312366Y-85479667D01*
X105312366Y-85479667D02*
X105345700Y-85446333D01*
X105345700Y-85446333D02*
X105412366Y-85413000D01*
X105412366Y-85413000D02*
X105512366Y-85413000D01*
X105512366Y-85413000D02*
X105579033Y-85446333D01*
X105579033Y-85446333D02*
X105612366Y-85479667D01*
X105612366Y-85479667D02*
X105645700Y-85546333D01*
X105645700Y-85546333D02*
X105645700Y-85813000D01*
X105979033Y-84746333D02*
X105979033Y-85146333D01*
X105979033Y-84946333D02*
X105279033Y-84946333D01*
X105279033Y-84946333D02*
X105379033Y-85013000D01*
X105379033Y-85013000D02*
X105445700Y-85079667D01*
X105445700Y-85079667D02*
X105479033Y-85146333D01*
X105279033Y-84146333D02*
X105279033Y-84279666D01*
X105279033Y-84279666D02*
X105312366Y-84346333D01*
X105312366Y-84346333D02*
X105345700Y-84379666D01*
X105345700Y-84379666D02*
X105445700Y-84446333D01*
X105445700Y-84446333D02*
X105579033Y-84479666D01*
X105579033Y-84479666D02*
X105845700Y-84479666D01*
X105845700Y-84479666D02*
X105912366Y-84446333D01*
X105912366Y-84446333D02*
X105945700Y-84413000D01*
X105945700Y-84413000D02*
X105979033Y-84346333D01*
X105979033Y-84346333D02*
X105979033Y-84213000D01*
X105979033Y-84213000D02*
X105945700Y-84146333D01*
X105945700Y-84146333D02*
X105912366Y-84113000D01*
X105912366Y-84113000D02*
X105845700Y-84079666D01*
X105845700Y-84079666D02*
X105679033Y-84079666D01*
X105679033Y-84079666D02*
X105612366Y-84113000D01*
X105612366Y-84113000D02*
X105579033Y-84146333D01*
X105579033Y-84146333D02*
X105545700Y-84213000D01*
X105545700Y-84213000D02*
X105545700Y-84346333D01*
X105545700Y-84346333D02*
X105579033Y-84413000D01*
X105579033Y-84413000D02*
X105612366Y-84446333D01*
X105612366Y-84446333D02*
X105679033Y-84479666D01*
X100895999Y-83374033D02*
X100662666Y-83040700D01*
X100495999Y-83374033D02*
X100495999Y-82674033D01*
X100495999Y-82674033D02*
X100762666Y-82674033D01*
X100762666Y-82674033D02*
X100829333Y-82707366D01*
X100829333Y-82707366D02*
X100862666Y-82740700D01*
X100862666Y-82740700D02*
X100895999Y-82807366D01*
X100895999Y-82807366D02*
X100895999Y-82907366D01*
X100895999Y-82907366D02*
X100862666Y-82974033D01*
X100862666Y-82974033D02*
X100829333Y-83007366D01*
X100829333Y-83007366D02*
X100762666Y-83040700D01*
X100762666Y-83040700D02*
X100495999Y-83040700D01*
X101562666Y-83374033D02*
X101162666Y-83374033D01*
X101362666Y-83374033D02*
X101362666Y-82674033D01*
X101362666Y-82674033D02*
X101295999Y-82774033D01*
X101295999Y-82774033D02*
X101229333Y-82840700D01*
X101229333Y-82840700D02*
X101162666Y-82874033D01*
X101796000Y-82674033D02*
X102262666Y-82674033D01*
X102262666Y-82674033D02*
X101962666Y-83374033D01*
X98355999Y-83374033D02*
X98122666Y-83040700D01*
X97955999Y-83374033D02*
X97955999Y-82674033D01*
X97955999Y-82674033D02*
X98222666Y-82674033D01*
X98222666Y-82674033D02*
X98289333Y-82707366D01*
X98289333Y-82707366D02*
X98322666Y-82740700D01*
X98322666Y-82740700D02*
X98355999Y-82807366D01*
X98355999Y-82807366D02*
X98355999Y-82907366D01*
X98355999Y-82907366D02*
X98322666Y-82974033D01*
X98322666Y-82974033D02*
X98289333Y-83007366D01*
X98289333Y-83007366D02*
X98222666Y-83040700D01*
X98222666Y-83040700D02*
X97955999Y-83040700D01*
X99022666Y-83374033D02*
X98622666Y-83374033D01*
X98822666Y-83374033D02*
X98822666Y-82674033D01*
X98822666Y-82674033D02*
X98755999Y-82774033D01*
X98755999Y-82774033D02*
X98689333Y-82840700D01*
X98689333Y-82840700D02*
X98622666Y-82874033D01*
X99422666Y-82974033D02*
X99356000Y-82940700D01*
X99356000Y-82940700D02*
X99322666Y-82907366D01*
X99322666Y-82907366D02*
X99289333Y-82840700D01*
X99289333Y-82840700D02*
X99289333Y-82807366D01*
X99289333Y-82807366D02*
X99322666Y-82740700D01*
X99322666Y-82740700D02*
X99356000Y-82707366D01*
X99356000Y-82707366D02*
X99422666Y-82674033D01*
X99422666Y-82674033D02*
X99556000Y-82674033D01*
X99556000Y-82674033D02*
X99622666Y-82707366D01*
X99622666Y-82707366D02*
X99656000Y-82740700D01*
X99656000Y-82740700D02*
X99689333Y-82807366D01*
X99689333Y-82807366D02*
X99689333Y-82840700D01*
X99689333Y-82840700D02*
X99656000Y-82907366D01*
X99656000Y-82907366D02*
X99622666Y-82940700D01*
X99622666Y-82940700D02*
X99556000Y-82974033D01*
X99556000Y-82974033D02*
X99422666Y-82974033D01*
X99422666Y-82974033D02*
X99356000Y-83007366D01*
X99356000Y-83007366D02*
X99322666Y-83040700D01*
X99322666Y-83040700D02*
X99289333Y-83107366D01*
X99289333Y-83107366D02*
X99289333Y-83240700D01*
X99289333Y-83240700D02*
X99322666Y-83307366D01*
X99322666Y-83307366D02*
X99356000Y-83340700D01*
X99356000Y-83340700D02*
X99422666Y-83374033D01*
X99422666Y-83374033D02*
X99556000Y-83374033D01*
X99556000Y-83374033D02*
X99622666Y-83340700D01*
X99622666Y-83340700D02*
X99656000Y-83307366D01*
X99656000Y-83307366D02*
X99689333Y-83240700D01*
X99689333Y-83240700D02*
X99689333Y-83107366D01*
X99689333Y-83107366D02*
X99656000Y-83040700D01*
X99656000Y-83040700D02*
X99622666Y-83007366D01*
X99622666Y-83007366D02*
X99556000Y-82974033D01*
X95688999Y-83374033D02*
X95455666Y-83040700D01*
X95288999Y-83374033D02*
X95288999Y-82674033D01*
X95288999Y-82674033D02*
X95555666Y-82674033D01*
X95555666Y-82674033D02*
X95622333Y-82707366D01*
X95622333Y-82707366D02*
X95655666Y-82740700D01*
X95655666Y-82740700D02*
X95688999Y-82807366D01*
X95688999Y-82807366D02*
X95688999Y-82907366D01*
X95688999Y-82907366D02*
X95655666Y-82974033D01*
X95655666Y-82974033D02*
X95622333Y-83007366D01*
X95622333Y-83007366D02*
X95555666Y-83040700D01*
X95555666Y-83040700D02*
X95288999Y-83040700D01*
X96355666Y-83374033D02*
X95955666Y-83374033D01*
X96155666Y-83374033D02*
X96155666Y-82674033D01*
X96155666Y-82674033D02*
X96088999Y-82774033D01*
X96088999Y-82774033D02*
X96022333Y-82840700D01*
X96022333Y-82840700D02*
X95955666Y-82874033D01*
X96689000Y-83374033D02*
X96822333Y-83374033D01*
X96822333Y-83374033D02*
X96889000Y-83340700D01*
X96889000Y-83340700D02*
X96922333Y-83307366D01*
X96922333Y-83307366D02*
X96989000Y-83207366D01*
X96989000Y-83207366D02*
X97022333Y-83074033D01*
X97022333Y-83074033D02*
X97022333Y-82807366D01*
X97022333Y-82807366D02*
X96989000Y-82740700D01*
X96989000Y-82740700D02*
X96955666Y-82707366D01*
X96955666Y-82707366D02*
X96889000Y-82674033D01*
X96889000Y-82674033D02*
X96755666Y-82674033D01*
X96755666Y-82674033D02*
X96689000Y-82707366D01*
X96689000Y-82707366D02*
X96655666Y-82740700D01*
X96655666Y-82740700D02*
X96622333Y-82807366D01*
X96622333Y-82807366D02*
X96622333Y-82974033D01*
X96622333Y-82974033D02*
X96655666Y-83040700D01*
X96655666Y-83040700D02*
X96689000Y-83074033D01*
X96689000Y-83074033D02*
X96755666Y-83107366D01*
X96755666Y-83107366D02*
X96889000Y-83107366D01*
X96889000Y-83107366D02*
X96955666Y-83074033D01*
X96955666Y-83074033D02*
X96989000Y-83040700D01*
X96989000Y-83040700D02*
X97022333Y-82974033D01*
X93275999Y-83374033D02*
X93042666Y-83040700D01*
X92875999Y-83374033D02*
X92875999Y-82674033D01*
X92875999Y-82674033D02*
X93142666Y-82674033D01*
X93142666Y-82674033D02*
X93209333Y-82707366D01*
X93209333Y-82707366D02*
X93242666Y-82740700D01*
X93242666Y-82740700D02*
X93275999Y-82807366D01*
X93275999Y-82807366D02*
X93275999Y-82907366D01*
X93275999Y-82907366D02*
X93242666Y-82974033D01*
X93242666Y-82974033D02*
X93209333Y-83007366D01*
X93209333Y-83007366D02*
X93142666Y-83040700D01*
X93142666Y-83040700D02*
X92875999Y-83040700D01*
X93542666Y-82740700D02*
X93575999Y-82707366D01*
X93575999Y-82707366D02*
X93642666Y-82674033D01*
X93642666Y-82674033D02*
X93809333Y-82674033D01*
X93809333Y-82674033D02*
X93875999Y-82707366D01*
X93875999Y-82707366D02*
X93909333Y-82740700D01*
X93909333Y-82740700D02*
X93942666Y-82807366D01*
X93942666Y-82807366D02*
X93942666Y-82874033D01*
X93942666Y-82874033D02*
X93909333Y-82974033D01*
X93909333Y-82974033D02*
X93509333Y-83374033D01*
X93509333Y-83374033D02*
X93942666Y-83374033D01*
X94376000Y-82674033D02*
X94442666Y-82674033D01*
X94442666Y-82674033D02*
X94509333Y-82707366D01*
X94509333Y-82707366D02*
X94542666Y-82740700D01*
X94542666Y-82740700D02*
X94576000Y-82807366D01*
X94576000Y-82807366D02*
X94609333Y-82940700D01*
X94609333Y-82940700D02*
X94609333Y-83107366D01*
X94609333Y-83107366D02*
X94576000Y-83240700D01*
X94576000Y-83240700D02*
X94542666Y-83307366D01*
X94542666Y-83307366D02*
X94509333Y-83340700D01*
X94509333Y-83340700D02*
X94442666Y-83374033D01*
X94442666Y-83374033D02*
X94376000Y-83374033D01*
X94376000Y-83374033D02*
X94309333Y-83340700D01*
X94309333Y-83340700D02*
X94276000Y-83307366D01*
X94276000Y-83307366D02*
X94242666Y-83240700D01*
X94242666Y-83240700D02*
X94209333Y-83107366D01*
X94209333Y-83107366D02*
X94209333Y-82940700D01*
X94209333Y-82940700D02*
X94242666Y-82807366D01*
X94242666Y-82807366D02*
X94276000Y-82740700D01*
X94276000Y-82740700D02*
X94309333Y-82707366D01*
X94309333Y-82707366D02*
X94376000Y-82674033D01*
X90105033Y-85286000D02*
X89771700Y-85519333D01*
X90105033Y-85686000D02*
X89405033Y-85686000D01*
X89405033Y-85686000D02*
X89405033Y-85419333D01*
X89405033Y-85419333D02*
X89438366Y-85352667D01*
X89438366Y-85352667D02*
X89471700Y-85319333D01*
X89471700Y-85319333D02*
X89538366Y-85286000D01*
X89538366Y-85286000D02*
X89638366Y-85286000D01*
X89638366Y-85286000D02*
X89705033Y-85319333D01*
X89705033Y-85319333D02*
X89738366Y-85352667D01*
X89738366Y-85352667D02*
X89771700Y-85419333D01*
X89771700Y-85419333D02*
X89771700Y-85686000D01*
X89471700Y-85019333D02*
X89438366Y-84986000D01*
X89438366Y-84986000D02*
X89405033Y-84919333D01*
X89405033Y-84919333D02*
X89405033Y-84752667D01*
X89405033Y-84752667D02*
X89438366Y-84686000D01*
X89438366Y-84686000D02*
X89471700Y-84652667D01*
X89471700Y-84652667D02*
X89538366Y-84619333D01*
X89538366Y-84619333D02*
X89605033Y-84619333D01*
X89605033Y-84619333D02*
X89705033Y-84652667D01*
X89705033Y-84652667D02*
X90105033Y-85052667D01*
X90105033Y-85052667D02*
X90105033Y-84619333D01*
X90105033Y-83952666D02*
X90105033Y-84352666D01*
X90105033Y-84152666D02*
X89405033Y-84152666D01*
X89405033Y-84152666D02*
X89505033Y-84219333D01*
X89505033Y-84219333D02*
X89571700Y-84286000D01*
X89571700Y-84286000D02*
X89605033Y-84352666D01*
X71436033Y-46170000D02*
X71102700Y-46403333D01*
X71436033Y-46570000D02*
X70736033Y-46570000D01*
X70736033Y-46570000D02*
X70736033Y-46303333D01*
X70736033Y-46303333D02*
X70769366Y-46236667D01*
X70769366Y-46236667D02*
X70802700Y-46203333D01*
X70802700Y-46203333D02*
X70869366Y-46170000D01*
X70869366Y-46170000D02*
X70969366Y-46170000D01*
X70969366Y-46170000D02*
X71036033Y-46203333D01*
X71036033Y-46203333D02*
X71069366Y-46236667D01*
X71069366Y-46236667D02*
X71102700Y-46303333D01*
X71102700Y-46303333D02*
X71102700Y-46570000D01*
X70802700Y-45903333D02*
X70769366Y-45870000D01*
X70769366Y-45870000D02*
X70736033Y-45803333D01*
X70736033Y-45803333D02*
X70736033Y-45636667D01*
X70736033Y-45636667D02*
X70769366Y-45570000D01*
X70769366Y-45570000D02*
X70802700Y-45536667D01*
X70802700Y-45536667D02*
X70869366Y-45503333D01*
X70869366Y-45503333D02*
X70936033Y-45503333D01*
X70936033Y-45503333D02*
X71036033Y-45536667D01*
X71036033Y-45536667D02*
X71436033Y-45936667D01*
X71436033Y-45936667D02*
X71436033Y-45503333D01*
X70802700Y-45236666D02*
X70769366Y-45203333D01*
X70769366Y-45203333D02*
X70736033Y-45136666D01*
X70736033Y-45136666D02*
X70736033Y-44970000D01*
X70736033Y-44970000D02*
X70769366Y-44903333D01*
X70769366Y-44903333D02*
X70802700Y-44870000D01*
X70802700Y-44870000D02*
X70869366Y-44836666D01*
X70869366Y-44836666D02*
X70936033Y-44836666D01*
X70936033Y-44836666D02*
X71036033Y-44870000D01*
X71036033Y-44870000D02*
X71436033Y-45270000D01*
X71436033Y-45270000D02*
X71436033Y-44836666D01*
X74733999Y-47560033D02*
X74500666Y-47226700D01*
X74333999Y-47560033D02*
X74333999Y-46860033D01*
X74333999Y-46860033D02*
X74600666Y-46860033D01*
X74600666Y-46860033D02*
X74667333Y-46893366D01*
X74667333Y-46893366D02*
X74700666Y-46926700D01*
X74700666Y-46926700D02*
X74733999Y-46993366D01*
X74733999Y-46993366D02*
X74733999Y-47093366D01*
X74733999Y-47093366D02*
X74700666Y-47160033D01*
X74700666Y-47160033D02*
X74667333Y-47193366D01*
X74667333Y-47193366D02*
X74600666Y-47226700D01*
X74600666Y-47226700D02*
X74333999Y-47226700D01*
X75000666Y-46926700D02*
X75033999Y-46893366D01*
X75033999Y-46893366D02*
X75100666Y-46860033D01*
X75100666Y-46860033D02*
X75267333Y-46860033D01*
X75267333Y-46860033D02*
X75333999Y-46893366D01*
X75333999Y-46893366D02*
X75367333Y-46926700D01*
X75367333Y-46926700D02*
X75400666Y-46993366D01*
X75400666Y-46993366D02*
X75400666Y-47060033D01*
X75400666Y-47060033D02*
X75367333Y-47160033D01*
X75367333Y-47160033D02*
X74967333Y-47560033D01*
X74967333Y-47560033D02*
X75400666Y-47560033D01*
X75634000Y-46860033D02*
X76067333Y-46860033D01*
X76067333Y-46860033D02*
X75834000Y-47126700D01*
X75834000Y-47126700D02*
X75934000Y-47126700D01*
X75934000Y-47126700D02*
X76000666Y-47160033D01*
X76000666Y-47160033D02*
X76034000Y-47193366D01*
X76034000Y-47193366D02*
X76067333Y-47260033D01*
X76067333Y-47260033D02*
X76067333Y-47426700D01*
X76067333Y-47426700D02*
X76034000Y-47493366D01*
X76034000Y-47493366D02*
X76000666Y-47526700D01*
X76000666Y-47526700D02*
X75934000Y-47560033D01*
X75934000Y-47560033D02*
X75734000Y-47560033D01*
X75734000Y-47560033D02*
X75667333Y-47526700D01*
X75667333Y-47526700D02*
X75634000Y-47493366D01*
X77273999Y-47814033D02*
X77040666Y-47480700D01*
X76873999Y-47814033D02*
X76873999Y-47114033D01*
X76873999Y-47114033D02*
X77140666Y-47114033D01*
X77140666Y-47114033D02*
X77207333Y-47147366D01*
X77207333Y-47147366D02*
X77240666Y-47180700D01*
X77240666Y-47180700D02*
X77273999Y-47247366D01*
X77273999Y-47247366D02*
X77273999Y-47347366D01*
X77273999Y-47347366D02*
X77240666Y-47414033D01*
X77240666Y-47414033D02*
X77207333Y-47447366D01*
X77207333Y-47447366D02*
X77140666Y-47480700D01*
X77140666Y-47480700D02*
X76873999Y-47480700D01*
X77940666Y-47814033D02*
X77540666Y-47814033D01*
X77740666Y-47814033D02*
X77740666Y-47114033D01*
X77740666Y-47114033D02*
X77673999Y-47214033D01*
X77673999Y-47214033D02*
X77607333Y-47280700D01*
X77607333Y-47280700D02*
X77540666Y-47314033D01*
X78174000Y-47114033D02*
X78640666Y-47114033D01*
X78640666Y-47114033D02*
X78340666Y-47814033D01*
X95718333Y-56588819D02*
X95385000Y-56112628D01*
X95146905Y-56588819D02*
X95146905Y-55588819D01*
X95146905Y-55588819D02*
X95527857Y-55588819D01*
X95527857Y-55588819D02*
X95623095Y-55636438D01*
X95623095Y-55636438D02*
X95670714Y-55684057D01*
X95670714Y-55684057D02*
X95718333Y-55779295D01*
X95718333Y-55779295D02*
X95718333Y-55922152D01*
X95718333Y-55922152D02*
X95670714Y-56017390D01*
X95670714Y-56017390D02*
X95623095Y-56065009D01*
X95623095Y-56065009D02*
X95527857Y-56112628D01*
X95527857Y-56112628D02*
X95146905Y-56112628D01*
X96623095Y-55588819D02*
X96146905Y-55588819D01*
X96146905Y-55588819D02*
X96099286Y-56065009D01*
X96099286Y-56065009D02*
X96146905Y-56017390D01*
X96146905Y-56017390D02*
X96242143Y-55969771D01*
X96242143Y-55969771D02*
X96480238Y-55969771D01*
X96480238Y-55969771D02*
X96575476Y-56017390D01*
X96575476Y-56017390D02*
X96623095Y-56065009D01*
X96623095Y-56065009D02*
X96670714Y-56160247D01*
X96670714Y-56160247D02*
X96670714Y-56398342D01*
X96670714Y-56398342D02*
X96623095Y-56493580D01*
X96623095Y-56493580D02*
X96575476Y-56541200D01*
X96575476Y-56541200D02*
X96480238Y-56588819D01*
X96480238Y-56588819D02*
X96242143Y-56588819D01*
X96242143Y-56588819D02*
X96146905Y-56541200D01*
X96146905Y-56541200D02*
X96099286Y-56493580D01*
X95718333Y-54429819D02*
X95385000Y-53953628D01*
X95146905Y-54429819D02*
X95146905Y-53429819D01*
X95146905Y-53429819D02*
X95527857Y-53429819D01*
X95527857Y-53429819D02*
X95623095Y-53477438D01*
X95623095Y-53477438D02*
X95670714Y-53525057D01*
X95670714Y-53525057D02*
X95718333Y-53620295D01*
X95718333Y-53620295D02*
X95718333Y-53763152D01*
X95718333Y-53763152D02*
X95670714Y-53858390D01*
X95670714Y-53858390D02*
X95623095Y-53906009D01*
X95623095Y-53906009D02*
X95527857Y-53953628D01*
X95527857Y-53953628D02*
X95146905Y-53953628D01*
X96575476Y-53429819D02*
X96385000Y-53429819D01*
X96385000Y-53429819D02*
X96289762Y-53477438D01*
X96289762Y-53477438D02*
X96242143Y-53525057D01*
X96242143Y-53525057D02*
X96146905Y-53667914D01*
X96146905Y-53667914D02*
X96099286Y-53858390D01*
X96099286Y-53858390D02*
X96099286Y-54239342D01*
X96099286Y-54239342D02*
X96146905Y-54334580D01*
X96146905Y-54334580D02*
X96194524Y-54382200D01*
X96194524Y-54382200D02*
X96289762Y-54429819D01*
X96289762Y-54429819D02*
X96480238Y-54429819D01*
X96480238Y-54429819D02*
X96575476Y-54382200D01*
X96575476Y-54382200D02*
X96623095Y-54334580D01*
X96623095Y-54334580D02*
X96670714Y-54239342D01*
X96670714Y-54239342D02*
X96670714Y-54001247D01*
X96670714Y-54001247D02*
X96623095Y-53906009D01*
X96623095Y-53906009D02*
X96575476Y-53858390D01*
X96575476Y-53858390D02*
X96480238Y-53810771D01*
X96480238Y-53810771D02*
X96289762Y-53810771D01*
X96289762Y-53810771D02*
X96194524Y-53858390D01*
X96194524Y-53858390D02*
X96146905Y-53906009D01*
X96146905Y-53906009D02*
X96099286Y-54001247D01*
X102324819Y-43179904D02*
X103134342Y-43179904D01*
X103134342Y-43179904D02*
X103229580Y-43132285D01*
X103229580Y-43132285D02*
X103277200Y-43084666D01*
X103277200Y-43084666D02*
X103324819Y-42989428D01*
X103324819Y-42989428D02*
X103324819Y-42798952D01*
X103324819Y-42798952D02*
X103277200Y-42703714D01*
X103277200Y-42703714D02*
X103229580Y-42656095D01*
X103229580Y-42656095D02*
X103134342Y-42608476D01*
X103134342Y-42608476D02*
X102324819Y-42608476D01*
X103324819Y-41608476D02*
X103324819Y-42179904D01*
X103324819Y-41894190D02*
X102324819Y-41894190D01*
X102324819Y-41894190D02*
X102467676Y-41989428D01*
X102467676Y-41989428D02*
X102562914Y-42084666D01*
X102562914Y-42084666D02*
X102610533Y-42179904D01*
X72057095Y-74580819D02*
X72057095Y-75390342D01*
X72057095Y-75390342D02*
X72104714Y-75485580D01*
X72104714Y-75485580D02*
X72152333Y-75533200D01*
X72152333Y-75533200D02*
X72247571Y-75580819D01*
X72247571Y-75580819D02*
X72438047Y-75580819D01*
X72438047Y-75580819D02*
X72533285Y-75533200D01*
X72533285Y-75533200D02*
X72580904Y-75485580D01*
X72580904Y-75485580D02*
X72628523Y-75390342D01*
X72628523Y-75390342D02*
X72628523Y-74580819D01*
X73057095Y-74676057D02*
X73104714Y-74628438D01*
X73104714Y-74628438D02*
X73199952Y-74580819D01*
X73199952Y-74580819D02*
X73438047Y-74580819D01*
X73438047Y-74580819D02*
X73533285Y-74628438D01*
X73533285Y-74628438D02*
X73580904Y-74676057D01*
X73580904Y-74676057D02*
X73628523Y-74771295D01*
X73628523Y-74771295D02*
X73628523Y-74866533D01*
X73628523Y-74866533D02*
X73580904Y-75009390D01*
X73580904Y-75009390D02*
X73009476Y-75580819D01*
X73009476Y-75580819D02*
X73628523Y-75580819D01*
X82512819Y-71627904D02*
X83322342Y-71627904D01*
X83322342Y-71627904D02*
X83417580Y-71580285D01*
X83417580Y-71580285D02*
X83465200Y-71532666D01*
X83465200Y-71532666D02*
X83512819Y-71437428D01*
X83512819Y-71437428D02*
X83512819Y-71246952D01*
X83512819Y-71246952D02*
X83465200Y-71151714D01*
X83465200Y-71151714D02*
X83417580Y-71104095D01*
X83417580Y-71104095D02*
X83322342Y-71056476D01*
X83322342Y-71056476D02*
X82512819Y-71056476D01*
X82512819Y-70675523D02*
X82512819Y-70056476D01*
X82512819Y-70056476D02*
X82893771Y-70389809D01*
X82893771Y-70389809D02*
X82893771Y-70246952D01*
X82893771Y-70246952D02*
X82941390Y-70151714D01*
X82941390Y-70151714D02*
X82989009Y-70104095D01*
X82989009Y-70104095D02*
X83084247Y-70056476D01*
X83084247Y-70056476D02*
X83322342Y-70056476D01*
X83322342Y-70056476D02*
X83417580Y-70104095D01*
X83417580Y-70104095D02*
X83465200Y-70151714D01*
X83465200Y-70151714D02*
X83512819Y-70246952D01*
X83512819Y-70246952D02*
X83512819Y-70532666D01*
X83512819Y-70532666D02*
X83465200Y-70627904D01*
X83465200Y-70627904D02*
X83417580Y-70675523D01*
X71511333Y-54164033D02*
X71278000Y-53830700D01*
X71111333Y-54164033D02*
X71111333Y-53464033D01*
X71111333Y-53464033D02*
X71378000Y-53464033D01*
X71378000Y-53464033D02*
X71444667Y-53497366D01*
X71444667Y-53497366D02*
X71478000Y-53530700D01*
X71478000Y-53530700D02*
X71511333Y-53597366D01*
X71511333Y-53597366D02*
X71511333Y-53697366D01*
X71511333Y-53697366D02*
X71478000Y-53764033D01*
X71478000Y-53764033D02*
X71444667Y-53797366D01*
X71444667Y-53797366D02*
X71378000Y-53830700D01*
X71378000Y-53830700D02*
X71111333Y-53830700D01*
X72178000Y-54164033D02*
X71778000Y-54164033D01*
X71978000Y-54164033D02*
X71978000Y-53464033D01*
X71978000Y-53464033D02*
X71911333Y-53564033D01*
X71911333Y-53564033D02*
X71844667Y-53630700D01*
X71844667Y-53630700D02*
X71778000Y-53664033D01*
X65939200Y-79057332D02*
X65986819Y-78914475D01*
X65986819Y-78914475D02*
X65986819Y-78676380D01*
X65986819Y-78676380D02*
X65939200Y-78581142D01*
X65939200Y-78581142D02*
X65891580Y-78533523D01*
X65891580Y-78533523D02*
X65796342Y-78485904D01*
X65796342Y-78485904D02*
X65701104Y-78485904D01*
X65701104Y-78485904D02*
X65605866Y-78533523D01*
X65605866Y-78533523D02*
X65558247Y-78581142D01*
X65558247Y-78581142D02*
X65510628Y-78676380D01*
X65510628Y-78676380D02*
X65463009Y-78866856D01*
X65463009Y-78866856D02*
X65415390Y-78962094D01*
X65415390Y-78962094D02*
X65367771Y-79009713D01*
X65367771Y-79009713D02*
X65272533Y-79057332D01*
X65272533Y-79057332D02*
X65177295Y-79057332D01*
X65177295Y-79057332D02*
X65082057Y-79009713D01*
X65082057Y-79009713D02*
X65034438Y-78962094D01*
X65034438Y-78962094D02*
X64986819Y-78866856D01*
X64986819Y-78866856D02*
X64986819Y-78628761D01*
X64986819Y-78628761D02*
X65034438Y-78485904D01*
X64986819Y-78152570D02*
X65986819Y-77914475D01*
X65986819Y-77914475D02*
X65272533Y-77723999D01*
X65272533Y-77723999D02*
X65986819Y-77533523D01*
X65986819Y-77533523D02*
X64986819Y-77295428D01*
X65986819Y-76390666D02*
X65986819Y-76962094D01*
X65986819Y-76676380D02*
X64986819Y-76676380D01*
X64986819Y-76676380D02*
X65129676Y-76771618D01*
X65129676Y-76771618D02*
X65224914Y-76866856D01*
X65224914Y-76866856D02*
X65272533Y-76962094D01*
X128190666Y-41364819D02*
X128190666Y-42079104D01*
X128190666Y-42079104D02*
X128143047Y-42221961D01*
X128143047Y-42221961D02*
X128047809Y-42317200D01*
X128047809Y-42317200D02*
X127904952Y-42364819D01*
X127904952Y-42364819D02*
X127809714Y-42364819D01*
X129095428Y-41698152D02*
X129095428Y-42364819D01*
X128857333Y-41317200D02*
X128619238Y-42031485D01*
X128619238Y-42031485D02*
X129238285Y-42031485D01*
X68637999Y-45461366D02*
X68604666Y-45494700D01*
X68604666Y-45494700D02*
X68504666Y-45528033D01*
X68504666Y-45528033D02*
X68437999Y-45528033D01*
X68437999Y-45528033D02*
X68337999Y-45494700D01*
X68337999Y-45494700D02*
X68271333Y-45428033D01*
X68271333Y-45428033D02*
X68237999Y-45361366D01*
X68237999Y-45361366D02*
X68204666Y-45228033D01*
X68204666Y-45228033D02*
X68204666Y-45128033D01*
X68204666Y-45128033D02*
X68237999Y-44994700D01*
X68237999Y-44994700D02*
X68271333Y-44928033D01*
X68271333Y-44928033D02*
X68337999Y-44861366D01*
X68337999Y-44861366D02*
X68437999Y-44828033D01*
X68437999Y-44828033D02*
X68504666Y-44828033D01*
X68504666Y-44828033D02*
X68604666Y-44861366D01*
X68604666Y-44861366D02*
X68637999Y-44894700D01*
X68904666Y-44894700D02*
X68937999Y-44861366D01*
X68937999Y-44861366D02*
X69004666Y-44828033D01*
X69004666Y-44828033D02*
X69171333Y-44828033D01*
X69171333Y-44828033D02*
X69237999Y-44861366D01*
X69237999Y-44861366D02*
X69271333Y-44894700D01*
X69271333Y-44894700D02*
X69304666Y-44961366D01*
X69304666Y-44961366D02*
X69304666Y-45028033D01*
X69304666Y-45028033D02*
X69271333Y-45128033D01*
X69271333Y-45128033D02*
X68871333Y-45528033D01*
X68871333Y-45528033D02*
X69304666Y-45528033D01*
X69571333Y-44894700D02*
X69604666Y-44861366D01*
X69604666Y-44861366D02*
X69671333Y-44828033D01*
X69671333Y-44828033D02*
X69838000Y-44828033D01*
X69838000Y-44828033D02*
X69904666Y-44861366D01*
X69904666Y-44861366D02*
X69938000Y-44894700D01*
X69938000Y-44894700D02*
X69971333Y-44961366D01*
X69971333Y-44961366D02*
X69971333Y-45028033D01*
X69971333Y-45028033D02*
X69938000Y-45128033D01*
X69938000Y-45128033D02*
X69538000Y-45528033D01*
X69538000Y-45528033D02*
X69971333Y-45528033D01*
X51765366Y-41635333D02*
X51765366Y-41868666D01*
X52132033Y-41868666D02*
X51432033Y-41868666D01*
X51432033Y-41868666D02*
X51432033Y-41535333D01*
X52132033Y-40901999D02*
X52132033Y-41301999D01*
X52132033Y-41101999D02*
X51432033Y-41101999D01*
X51432033Y-41101999D02*
X51532033Y-41168666D01*
X51532033Y-41168666D02*
X51598700Y-41235333D01*
X51598700Y-41235333D02*
X51632033Y-41301999D01*
X57102476Y-39586819D02*
X57102476Y-40301104D01*
X57102476Y-40301104D02*
X57054857Y-40443961D01*
X57054857Y-40443961D02*
X56959619Y-40539200D01*
X56959619Y-40539200D02*
X56816762Y-40586819D01*
X56816762Y-40586819D02*
X56721524Y-40586819D01*
X58102476Y-40586819D02*
X57531048Y-40586819D01*
X57816762Y-40586819D02*
X57816762Y-39586819D01*
X57816762Y-39586819D02*
X57721524Y-39729676D01*
X57721524Y-39729676D02*
X57626286Y-39824914D01*
X57626286Y-39824914D02*
X57531048Y-39872533D01*
X58721524Y-39586819D02*
X58816762Y-39586819D01*
X58816762Y-39586819D02*
X58912000Y-39634438D01*
X58912000Y-39634438D02*
X58959619Y-39682057D01*
X58959619Y-39682057D02*
X59007238Y-39777295D01*
X59007238Y-39777295D02*
X59054857Y-39967771D01*
X59054857Y-39967771D02*
X59054857Y-40205866D01*
X59054857Y-40205866D02*
X59007238Y-40396342D01*
X59007238Y-40396342D02*
X58959619Y-40491580D01*
X58959619Y-40491580D02*
X58912000Y-40539200D01*
X58912000Y-40539200D02*
X58816762Y-40586819D01*
X58816762Y-40586819D02*
X58721524Y-40586819D01*
X58721524Y-40586819D02*
X58626286Y-40539200D01*
X58626286Y-40539200D02*
X58578667Y-40491580D01*
X58578667Y-40491580D02*
X58531048Y-40396342D01*
X58531048Y-40396342D02*
X58483429Y-40205866D01*
X58483429Y-40205866D02*
X58483429Y-39967771D01*
X58483429Y-39967771D02*
X58531048Y-39777295D01*
X58531048Y-39777295D02*
X58578667Y-39682057D01*
X58578667Y-39682057D02*
X58626286Y-39634438D01*
X58626286Y-39634438D02*
X58721524Y-39586819D01*
X60890999Y-49083033D02*
X60657666Y-48749700D01*
X60490999Y-49083033D02*
X60490999Y-48383033D01*
X60490999Y-48383033D02*
X60757666Y-48383033D01*
X60757666Y-48383033D02*
X60824333Y-48416366D01*
X60824333Y-48416366D02*
X60857666Y-48449700D01*
X60857666Y-48449700D02*
X60890999Y-48516366D01*
X60890999Y-48516366D02*
X60890999Y-48616366D01*
X60890999Y-48616366D02*
X60857666Y-48683033D01*
X60857666Y-48683033D02*
X60824333Y-48716366D01*
X60824333Y-48716366D02*
X60757666Y-48749700D01*
X60757666Y-48749700D02*
X60490999Y-48749700D01*
X61157666Y-48449700D02*
X61190999Y-48416366D01*
X61190999Y-48416366D02*
X61257666Y-48383033D01*
X61257666Y-48383033D02*
X61424333Y-48383033D01*
X61424333Y-48383033D02*
X61490999Y-48416366D01*
X61490999Y-48416366D02*
X61524333Y-48449700D01*
X61524333Y-48449700D02*
X61557666Y-48516366D01*
X61557666Y-48516366D02*
X61557666Y-48583033D01*
X61557666Y-48583033D02*
X61524333Y-48683033D01*
X61524333Y-48683033D02*
X61124333Y-49083033D01*
X61124333Y-49083033D02*
X61557666Y-49083033D01*
X62191000Y-48383033D02*
X61857666Y-48383033D01*
X61857666Y-48383033D02*
X61824333Y-48716366D01*
X61824333Y-48716366D02*
X61857666Y-48683033D01*
X61857666Y-48683033D02*
X61924333Y-48649700D01*
X61924333Y-48649700D02*
X62091000Y-48649700D01*
X62091000Y-48649700D02*
X62157666Y-48683033D01*
X62157666Y-48683033D02*
X62191000Y-48716366D01*
X62191000Y-48716366D02*
X62224333Y-48783033D01*
X62224333Y-48783033D02*
X62224333Y-48949700D01*
X62224333Y-48949700D02*
X62191000Y-49016366D01*
X62191000Y-49016366D02*
X62157666Y-49049700D01*
X62157666Y-49049700D02*
X62091000Y-49083033D01*
X62091000Y-49083033D02*
X61924333Y-49083033D01*
X61924333Y-49083033D02*
X61857666Y-49049700D01*
X61857666Y-49049700D02*
X61824333Y-49016366D01*
X65132799Y-45528033D02*
X64899466Y-45194700D01*
X64732799Y-45528033D02*
X64732799Y-44828033D01*
X64732799Y-44828033D02*
X64999466Y-44828033D01*
X64999466Y-44828033D02*
X65066133Y-44861366D01*
X65066133Y-44861366D02*
X65099466Y-44894700D01*
X65099466Y-44894700D02*
X65132799Y-44961366D01*
X65132799Y-44961366D02*
X65132799Y-45061366D01*
X65132799Y-45061366D02*
X65099466Y-45128033D01*
X65099466Y-45128033D02*
X65066133Y-45161366D01*
X65066133Y-45161366D02*
X64999466Y-45194700D01*
X64999466Y-45194700D02*
X64732799Y-45194700D01*
X65399466Y-44894700D02*
X65432799Y-44861366D01*
X65432799Y-44861366D02*
X65499466Y-44828033D01*
X65499466Y-44828033D02*
X65666133Y-44828033D01*
X65666133Y-44828033D02*
X65732799Y-44861366D01*
X65732799Y-44861366D02*
X65766133Y-44894700D01*
X65766133Y-44894700D02*
X65799466Y-44961366D01*
X65799466Y-44961366D02*
X65799466Y-45028033D01*
X65799466Y-45028033D02*
X65766133Y-45128033D01*
X65766133Y-45128033D02*
X65366133Y-45528033D01*
X65366133Y-45528033D02*
X65799466Y-45528033D01*
X66399466Y-44828033D02*
X66266133Y-44828033D01*
X66266133Y-44828033D02*
X66199466Y-44861366D01*
X66199466Y-44861366D02*
X66166133Y-44894700D01*
X66166133Y-44894700D02*
X66099466Y-44994700D01*
X66099466Y-44994700D02*
X66066133Y-45128033D01*
X66066133Y-45128033D02*
X66066133Y-45394700D01*
X66066133Y-45394700D02*
X66099466Y-45461366D01*
X66099466Y-45461366D02*
X66132800Y-45494700D01*
X66132800Y-45494700D02*
X66199466Y-45528033D01*
X66199466Y-45528033D02*
X66332800Y-45528033D01*
X66332800Y-45528033D02*
X66399466Y-45494700D01*
X66399466Y-45494700D02*
X66432800Y-45461366D01*
X66432800Y-45461366D02*
X66466133Y-45394700D01*
X66466133Y-45394700D02*
X66466133Y-45228033D01*
X66466133Y-45228033D02*
X66432800Y-45161366D01*
X66432800Y-45161366D02*
X66399466Y-45128033D01*
X66399466Y-45128033D02*
X66332800Y-45094700D01*
X66332800Y-45094700D02*
X66199466Y-45094700D01*
X66199466Y-45094700D02*
X66132800Y-45128033D01*
X66132800Y-45128033D02*
X66099466Y-45161366D01*
X66099466Y-45161366D02*
X66066133Y-45228033D01*
X57732819Y-52458857D02*
X57256628Y-52792190D01*
X57732819Y-53030285D02*
X56732819Y-53030285D01*
X56732819Y-53030285D02*
X56732819Y-52649333D01*
X56732819Y-52649333D02*
X56780438Y-52554095D01*
X56780438Y-52554095D02*
X56828057Y-52506476D01*
X56828057Y-52506476D02*
X56923295Y-52458857D01*
X56923295Y-52458857D02*
X57066152Y-52458857D01*
X57066152Y-52458857D02*
X57161390Y-52506476D01*
X57161390Y-52506476D02*
X57209009Y-52554095D01*
X57209009Y-52554095D02*
X57256628Y-52649333D01*
X57256628Y-52649333D02*
X57256628Y-53030285D01*
X56828057Y-52077904D02*
X56780438Y-52030285D01*
X56780438Y-52030285D02*
X56732819Y-51935047D01*
X56732819Y-51935047D02*
X56732819Y-51696952D01*
X56732819Y-51696952D02*
X56780438Y-51601714D01*
X56780438Y-51601714D02*
X56828057Y-51554095D01*
X56828057Y-51554095D02*
X56923295Y-51506476D01*
X56923295Y-51506476D02*
X57018533Y-51506476D01*
X57018533Y-51506476D02*
X57161390Y-51554095D01*
X57161390Y-51554095D02*
X57732819Y-52125523D01*
X57732819Y-52125523D02*
X57732819Y-51506476D01*
X57161390Y-50935047D02*
X57113771Y-51030285D01*
X57113771Y-51030285D02*
X57066152Y-51077904D01*
X57066152Y-51077904D02*
X56970914Y-51125523D01*
X56970914Y-51125523D02*
X56923295Y-51125523D01*
X56923295Y-51125523D02*
X56828057Y-51077904D01*
X56828057Y-51077904D02*
X56780438Y-51030285D01*
X56780438Y-51030285D02*
X56732819Y-50935047D01*
X56732819Y-50935047D02*
X56732819Y-50744571D01*
X56732819Y-50744571D02*
X56780438Y-50649333D01*
X56780438Y-50649333D02*
X56828057Y-50601714D01*
X56828057Y-50601714D02*
X56923295Y-50554095D01*
X56923295Y-50554095D02*
X56970914Y-50554095D01*
X56970914Y-50554095D02*
X57066152Y-50601714D01*
X57066152Y-50601714D02*
X57113771Y-50649333D01*
X57113771Y-50649333D02*
X57161390Y-50744571D01*
X57161390Y-50744571D02*
X57161390Y-50935047D01*
X57161390Y-50935047D02*
X57209009Y-51030285D01*
X57209009Y-51030285D02*
X57256628Y-51077904D01*
X57256628Y-51077904D02*
X57351866Y-51125523D01*
X57351866Y-51125523D02*
X57542342Y-51125523D01*
X57542342Y-51125523D02*
X57637580Y-51077904D01*
X57637580Y-51077904D02*
X57685200Y-51030285D01*
X57685200Y-51030285D02*
X57732819Y-50935047D01*
X57732819Y-50935047D02*
X57732819Y-50744571D01*
X57732819Y-50744571D02*
X57685200Y-50649333D01*
X57685200Y-50649333D02*
X57637580Y-50601714D01*
X57637580Y-50601714D02*
X57542342Y-50554095D01*
X57542342Y-50554095D02*
X57351866Y-50554095D01*
X57351866Y-50554095D02*
X57256628Y-50601714D01*
X57256628Y-50601714D02*
X57209009Y-50649333D01*
X57209009Y-50649333D02*
X57161390Y-50744571D01*
X63700819Y-52331857D02*
X63224628Y-52665190D01*
X63700819Y-52903285D02*
X62700819Y-52903285D01*
X62700819Y-52903285D02*
X62700819Y-52522333D01*
X62700819Y-52522333D02*
X62748438Y-52427095D01*
X62748438Y-52427095D02*
X62796057Y-52379476D01*
X62796057Y-52379476D02*
X62891295Y-52331857D01*
X62891295Y-52331857D02*
X63034152Y-52331857D01*
X63034152Y-52331857D02*
X63129390Y-52379476D01*
X63129390Y-52379476D02*
X63177009Y-52427095D01*
X63177009Y-52427095D02*
X63224628Y-52522333D01*
X63224628Y-52522333D02*
X63224628Y-52903285D01*
X62796057Y-51950904D02*
X62748438Y-51903285D01*
X62748438Y-51903285D02*
X62700819Y-51808047D01*
X62700819Y-51808047D02*
X62700819Y-51569952D01*
X62700819Y-51569952D02*
X62748438Y-51474714D01*
X62748438Y-51474714D02*
X62796057Y-51427095D01*
X62796057Y-51427095D02*
X62891295Y-51379476D01*
X62891295Y-51379476D02*
X62986533Y-51379476D01*
X62986533Y-51379476D02*
X63129390Y-51427095D01*
X63129390Y-51427095D02*
X63700819Y-51998523D01*
X63700819Y-51998523D02*
X63700819Y-51379476D01*
X63700819Y-50903285D02*
X63700819Y-50712809D01*
X63700819Y-50712809D02*
X63653200Y-50617571D01*
X63653200Y-50617571D02*
X63605580Y-50569952D01*
X63605580Y-50569952D02*
X63462723Y-50474714D01*
X63462723Y-50474714D02*
X63272247Y-50427095D01*
X63272247Y-50427095D02*
X62891295Y-50427095D01*
X62891295Y-50427095D02*
X62796057Y-50474714D01*
X62796057Y-50474714D02*
X62748438Y-50522333D01*
X62748438Y-50522333D02*
X62700819Y-50617571D01*
X62700819Y-50617571D02*
X62700819Y-50808047D01*
X62700819Y-50808047D02*
X62748438Y-50903285D01*
X62748438Y-50903285D02*
X62796057Y-50950904D01*
X62796057Y-50950904D02*
X62891295Y-50998523D01*
X62891295Y-50998523D02*
X63129390Y-50998523D01*
X63129390Y-50998523D02*
X63224628Y-50950904D01*
X63224628Y-50950904D02*
X63272247Y-50903285D01*
X63272247Y-50903285D02*
X63319866Y-50808047D01*
X63319866Y-50808047D02*
X63319866Y-50617571D01*
X63319866Y-50617571D02*
X63272247Y-50522333D01*
X63272247Y-50522333D02*
X63224628Y-50474714D01*
X63224628Y-50474714D02*
X63129390Y-50427095D01*
X45974095Y-49482819D02*
X45974095Y-50292342D01*
X45974095Y-50292342D02*
X46021714Y-50387580D01*
X46021714Y-50387580D02*
X46069333Y-50435200D01*
X46069333Y-50435200D02*
X46164571Y-50482819D01*
X46164571Y-50482819D02*
X46355047Y-50482819D01*
X46355047Y-50482819D02*
X46450285Y-50435200D01*
X46450285Y-50435200D02*
X46497904Y-50387580D01*
X46497904Y-50387580D02*
X46545523Y-50292342D01*
X46545523Y-50292342D02*
X46545523Y-49482819D01*
X47450285Y-49816152D02*
X47450285Y-50482819D01*
X47212190Y-49435200D02*
X46974095Y-50149485D01*
X46974095Y-50149485D02*
X47593142Y-50149485D01*
X87411733Y-87879366D02*
X87378400Y-87912700D01*
X87378400Y-87912700D02*
X87278400Y-87946033D01*
X87278400Y-87946033D02*
X87211733Y-87946033D01*
X87211733Y-87946033D02*
X87111733Y-87912700D01*
X87111733Y-87912700D02*
X87045067Y-87846033D01*
X87045067Y-87846033D02*
X87011733Y-87779366D01*
X87011733Y-87779366D02*
X86978400Y-87646033D01*
X86978400Y-87646033D02*
X86978400Y-87546033D01*
X86978400Y-87546033D02*
X87011733Y-87412700D01*
X87011733Y-87412700D02*
X87045067Y-87346033D01*
X87045067Y-87346033D02*
X87111733Y-87279366D01*
X87111733Y-87279366D02*
X87211733Y-87246033D01*
X87211733Y-87246033D02*
X87278400Y-87246033D01*
X87278400Y-87246033D02*
X87378400Y-87279366D01*
X87378400Y-87279366D02*
X87411733Y-87312700D01*
X87645067Y-87246033D02*
X88111733Y-87246033D01*
X88111733Y-87246033D02*
X87811733Y-87946033D01*
X45715366Y-38550000D02*
X45748700Y-38583333D01*
X45748700Y-38583333D02*
X45782033Y-38683333D01*
X45782033Y-38683333D02*
X45782033Y-38750000D01*
X45782033Y-38750000D02*
X45748700Y-38850000D01*
X45748700Y-38850000D02*
X45682033Y-38916667D01*
X45682033Y-38916667D02*
X45615366Y-38950000D01*
X45615366Y-38950000D02*
X45482033Y-38983333D01*
X45482033Y-38983333D02*
X45382033Y-38983333D01*
X45382033Y-38983333D02*
X45248700Y-38950000D01*
X45248700Y-38950000D02*
X45182033Y-38916667D01*
X45182033Y-38916667D02*
X45115366Y-38850000D01*
X45115366Y-38850000D02*
X45082033Y-38750000D01*
X45082033Y-38750000D02*
X45082033Y-38683333D01*
X45082033Y-38683333D02*
X45115366Y-38583333D01*
X45115366Y-38583333D02*
X45148700Y-38550000D01*
X45148700Y-38283333D02*
X45115366Y-38250000D01*
X45115366Y-38250000D02*
X45082033Y-38183333D01*
X45082033Y-38183333D02*
X45082033Y-38016667D01*
X45082033Y-38016667D02*
X45115366Y-37950000D01*
X45115366Y-37950000D02*
X45148700Y-37916667D01*
X45148700Y-37916667D02*
X45215366Y-37883333D01*
X45215366Y-37883333D02*
X45282033Y-37883333D01*
X45282033Y-37883333D02*
X45382033Y-37916667D01*
X45382033Y-37916667D02*
X45782033Y-38316667D01*
X45782033Y-38316667D02*
X45782033Y-37883333D01*
X45082033Y-37250000D02*
X45082033Y-37583333D01*
X45082033Y-37583333D02*
X45415366Y-37616666D01*
X45415366Y-37616666D02*
X45382033Y-37583333D01*
X45382033Y-37583333D02*
X45348700Y-37516666D01*
X45348700Y-37516666D02*
X45348700Y-37350000D01*
X45348700Y-37350000D02*
X45382033Y-37283333D01*
X45382033Y-37283333D02*
X45415366Y-37250000D01*
X45415366Y-37250000D02*
X45482033Y-37216666D01*
X45482033Y-37216666D02*
X45648700Y-37216666D01*
X45648700Y-37216666D02*
X45715366Y-37250000D01*
X45715366Y-37250000D02*
X45748700Y-37283333D01*
X45748700Y-37283333D02*
X45782033Y-37350000D01*
X45782033Y-37350000D02*
X45782033Y-37516666D01*
X45782033Y-37516666D02*
X45748700Y-37583333D01*
X45748700Y-37583333D02*
X45715366Y-37616666D01*
X49779366Y-38550000D02*
X49812700Y-38583333D01*
X49812700Y-38583333D02*
X49846033Y-38683333D01*
X49846033Y-38683333D02*
X49846033Y-38750000D01*
X49846033Y-38750000D02*
X49812700Y-38850000D01*
X49812700Y-38850000D02*
X49746033Y-38916667D01*
X49746033Y-38916667D02*
X49679366Y-38950000D01*
X49679366Y-38950000D02*
X49546033Y-38983333D01*
X49546033Y-38983333D02*
X49446033Y-38983333D01*
X49446033Y-38983333D02*
X49312700Y-38950000D01*
X49312700Y-38950000D02*
X49246033Y-38916667D01*
X49246033Y-38916667D02*
X49179366Y-38850000D01*
X49179366Y-38850000D02*
X49146033Y-38750000D01*
X49146033Y-38750000D02*
X49146033Y-38683333D01*
X49146033Y-38683333D02*
X49179366Y-38583333D01*
X49179366Y-38583333D02*
X49212700Y-38550000D01*
X49212700Y-38283333D02*
X49179366Y-38250000D01*
X49179366Y-38250000D02*
X49146033Y-38183333D01*
X49146033Y-38183333D02*
X49146033Y-38016667D01*
X49146033Y-38016667D02*
X49179366Y-37950000D01*
X49179366Y-37950000D02*
X49212700Y-37916667D01*
X49212700Y-37916667D02*
X49279366Y-37883333D01*
X49279366Y-37883333D02*
X49346033Y-37883333D01*
X49346033Y-37883333D02*
X49446033Y-37916667D01*
X49446033Y-37916667D02*
X49846033Y-38316667D01*
X49846033Y-38316667D02*
X49846033Y-37883333D01*
X49146033Y-37650000D02*
X49146033Y-37216666D01*
X49146033Y-37216666D02*
X49412700Y-37450000D01*
X49412700Y-37450000D02*
X49412700Y-37350000D01*
X49412700Y-37350000D02*
X49446033Y-37283333D01*
X49446033Y-37283333D02*
X49479366Y-37250000D01*
X49479366Y-37250000D02*
X49546033Y-37216666D01*
X49546033Y-37216666D02*
X49712700Y-37216666D01*
X49712700Y-37216666D02*
X49779366Y-37250000D01*
X49779366Y-37250000D02*
X49812700Y-37283333D01*
X49812700Y-37283333D02*
X49846033Y-37350000D01*
X49846033Y-37350000D02*
X49846033Y-37550000D01*
X49846033Y-37550000D02*
X49812700Y-37616666D01*
X49812700Y-37616666D02*
X49779366Y-37650000D01*
X51811366Y-51504000D02*
X51844700Y-51537333D01*
X51844700Y-51537333D02*
X51878033Y-51637333D01*
X51878033Y-51637333D02*
X51878033Y-51704000D01*
X51878033Y-51704000D02*
X51844700Y-51804000D01*
X51844700Y-51804000D02*
X51778033Y-51870667D01*
X51778033Y-51870667D02*
X51711366Y-51904000D01*
X51711366Y-51904000D02*
X51578033Y-51937333D01*
X51578033Y-51937333D02*
X51478033Y-51937333D01*
X51478033Y-51937333D02*
X51344700Y-51904000D01*
X51344700Y-51904000D02*
X51278033Y-51870667D01*
X51278033Y-51870667D02*
X51211366Y-51804000D01*
X51211366Y-51804000D02*
X51178033Y-51704000D01*
X51178033Y-51704000D02*
X51178033Y-51637333D01*
X51178033Y-51637333D02*
X51211366Y-51537333D01*
X51211366Y-51537333D02*
X51244700Y-51504000D01*
X51244700Y-51237333D02*
X51211366Y-51204000D01*
X51211366Y-51204000D02*
X51178033Y-51137333D01*
X51178033Y-51137333D02*
X51178033Y-50970667D01*
X51178033Y-50970667D02*
X51211366Y-50904000D01*
X51211366Y-50904000D02*
X51244700Y-50870667D01*
X51244700Y-50870667D02*
X51311366Y-50837333D01*
X51311366Y-50837333D02*
X51378033Y-50837333D01*
X51378033Y-50837333D02*
X51478033Y-50870667D01*
X51478033Y-50870667D02*
X51878033Y-51270667D01*
X51878033Y-51270667D02*
X51878033Y-50837333D01*
X51411366Y-50237333D02*
X51878033Y-50237333D01*
X51144700Y-50404000D02*
X51644700Y-50570666D01*
X51644700Y-50570666D02*
X51644700Y-50137333D01*
X115373999Y-64511366D02*
X115340666Y-64544700D01*
X115340666Y-64544700D02*
X115240666Y-64578033D01*
X115240666Y-64578033D02*
X115173999Y-64578033D01*
X115173999Y-64578033D02*
X115073999Y-64544700D01*
X115073999Y-64544700D02*
X115007333Y-64478033D01*
X115007333Y-64478033D02*
X114973999Y-64411366D01*
X114973999Y-64411366D02*
X114940666Y-64278033D01*
X114940666Y-64278033D02*
X114940666Y-64178033D01*
X114940666Y-64178033D02*
X114973999Y-64044700D01*
X114973999Y-64044700D02*
X115007333Y-63978033D01*
X115007333Y-63978033D02*
X115073999Y-63911366D01*
X115073999Y-63911366D02*
X115173999Y-63878033D01*
X115173999Y-63878033D02*
X115240666Y-63878033D01*
X115240666Y-63878033D02*
X115340666Y-63911366D01*
X115340666Y-63911366D02*
X115373999Y-63944700D01*
X115640666Y-63944700D02*
X115673999Y-63911366D01*
X115673999Y-63911366D02*
X115740666Y-63878033D01*
X115740666Y-63878033D02*
X115907333Y-63878033D01*
X115907333Y-63878033D02*
X115973999Y-63911366D01*
X115973999Y-63911366D02*
X116007333Y-63944700D01*
X116007333Y-63944700D02*
X116040666Y-64011366D01*
X116040666Y-64011366D02*
X116040666Y-64078033D01*
X116040666Y-64078033D02*
X116007333Y-64178033D01*
X116007333Y-64178033D02*
X115607333Y-64578033D01*
X115607333Y-64578033D02*
X116040666Y-64578033D01*
X116640666Y-63878033D02*
X116507333Y-63878033D01*
X116507333Y-63878033D02*
X116440666Y-63911366D01*
X116440666Y-63911366D02*
X116407333Y-63944700D01*
X116407333Y-63944700D02*
X116340666Y-64044700D01*
X116340666Y-64044700D02*
X116307333Y-64178033D01*
X116307333Y-64178033D02*
X116307333Y-64444700D01*
X116307333Y-64444700D02*
X116340666Y-64511366D01*
X116340666Y-64511366D02*
X116374000Y-64544700D01*
X116374000Y-64544700D02*
X116440666Y-64578033D01*
X116440666Y-64578033D02*
X116574000Y-64578033D01*
X116574000Y-64578033D02*
X116640666Y-64544700D01*
X116640666Y-64544700D02*
X116674000Y-64511366D01*
X116674000Y-64511366D02*
X116707333Y-64444700D01*
X116707333Y-64444700D02*
X116707333Y-64278033D01*
X116707333Y-64278033D02*
X116674000Y-64211366D01*
X116674000Y-64211366D02*
X116640666Y-64178033D01*
X116640666Y-64178033D02*
X116574000Y-64144700D01*
X116574000Y-64144700D02*
X116440666Y-64144700D01*
X116440666Y-64144700D02*
X116374000Y-64178033D01*
X116374000Y-64178033D02*
X116340666Y-64211366D01*
X116340666Y-64211366D02*
X116307333Y-64278033D01*
X78797999Y-72922366D02*
X78764666Y-72955700D01*
X78764666Y-72955700D02*
X78664666Y-72989033D01*
X78664666Y-72989033D02*
X78597999Y-72989033D01*
X78597999Y-72989033D02*
X78497999Y-72955700D01*
X78497999Y-72955700D02*
X78431333Y-72889033D01*
X78431333Y-72889033D02*
X78397999Y-72822366D01*
X78397999Y-72822366D02*
X78364666Y-72689033D01*
X78364666Y-72689033D02*
X78364666Y-72589033D01*
X78364666Y-72589033D02*
X78397999Y-72455700D01*
X78397999Y-72455700D02*
X78431333Y-72389033D01*
X78431333Y-72389033D02*
X78497999Y-72322366D01*
X78497999Y-72322366D02*
X78597999Y-72289033D01*
X78597999Y-72289033D02*
X78664666Y-72289033D01*
X78664666Y-72289033D02*
X78764666Y-72322366D01*
X78764666Y-72322366D02*
X78797999Y-72355700D01*
X79064666Y-72355700D02*
X79097999Y-72322366D01*
X79097999Y-72322366D02*
X79164666Y-72289033D01*
X79164666Y-72289033D02*
X79331333Y-72289033D01*
X79331333Y-72289033D02*
X79397999Y-72322366D01*
X79397999Y-72322366D02*
X79431333Y-72355700D01*
X79431333Y-72355700D02*
X79464666Y-72422366D01*
X79464666Y-72422366D02*
X79464666Y-72489033D01*
X79464666Y-72489033D02*
X79431333Y-72589033D01*
X79431333Y-72589033D02*
X79031333Y-72989033D01*
X79031333Y-72989033D02*
X79464666Y-72989033D01*
X79698000Y-72289033D02*
X80164666Y-72289033D01*
X80164666Y-72289033D02*
X79864666Y-72989033D01*
X120453999Y-82291366D02*
X120420666Y-82324700D01*
X120420666Y-82324700D02*
X120320666Y-82358033D01*
X120320666Y-82358033D02*
X120253999Y-82358033D01*
X120253999Y-82358033D02*
X120153999Y-82324700D01*
X120153999Y-82324700D02*
X120087333Y-82258033D01*
X120087333Y-82258033D02*
X120053999Y-82191366D01*
X120053999Y-82191366D02*
X120020666Y-82058033D01*
X120020666Y-82058033D02*
X120020666Y-81958033D01*
X120020666Y-81958033D02*
X120053999Y-81824700D01*
X120053999Y-81824700D02*
X120087333Y-81758033D01*
X120087333Y-81758033D02*
X120153999Y-81691366D01*
X120153999Y-81691366D02*
X120253999Y-81658033D01*
X120253999Y-81658033D02*
X120320666Y-81658033D01*
X120320666Y-81658033D02*
X120420666Y-81691366D01*
X120420666Y-81691366D02*
X120453999Y-81724700D01*
X120720666Y-81724700D02*
X120753999Y-81691366D01*
X120753999Y-81691366D02*
X120820666Y-81658033D01*
X120820666Y-81658033D02*
X120987333Y-81658033D01*
X120987333Y-81658033D02*
X121053999Y-81691366D01*
X121053999Y-81691366D02*
X121087333Y-81724700D01*
X121087333Y-81724700D02*
X121120666Y-81791366D01*
X121120666Y-81791366D02*
X121120666Y-81858033D01*
X121120666Y-81858033D02*
X121087333Y-81958033D01*
X121087333Y-81958033D02*
X120687333Y-82358033D01*
X120687333Y-82358033D02*
X121120666Y-82358033D01*
X121520666Y-81958033D02*
X121454000Y-81924700D01*
X121454000Y-81924700D02*
X121420666Y-81891366D01*
X121420666Y-81891366D02*
X121387333Y-81824700D01*
X121387333Y-81824700D02*
X121387333Y-81791366D01*
X121387333Y-81791366D02*
X121420666Y-81724700D01*
X121420666Y-81724700D02*
X121454000Y-81691366D01*
X121454000Y-81691366D02*
X121520666Y-81658033D01*
X121520666Y-81658033D02*
X121654000Y-81658033D01*
X121654000Y-81658033D02*
X121720666Y-81691366D01*
X121720666Y-81691366D02*
X121754000Y-81724700D01*
X121754000Y-81724700D02*
X121787333Y-81791366D01*
X121787333Y-81791366D02*
X121787333Y-81824700D01*
X121787333Y-81824700D02*
X121754000Y-81891366D01*
X121754000Y-81891366D02*
X121720666Y-81924700D01*
X121720666Y-81924700D02*
X121654000Y-81958033D01*
X121654000Y-81958033D02*
X121520666Y-81958033D01*
X121520666Y-81958033D02*
X121454000Y-81991366D01*
X121454000Y-81991366D02*
X121420666Y-82024700D01*
X121420666Y-82024700D02*
X121387333Y-82091366D01*
X121387333Y-82091366D02*
X121387333Y-82224700D01*
X121387333Y-82224700D02*
X121420666Y-82291366D01*
X121420666Y-82291366D02*
X121454000Y-82324700D01*
X121454000Y-82324700D02*
X121520666Y-82358033D01*
X121520666Y-82358033D02*
X121654000Y-82358033D01*
X121654000Y-82358033D02*
X121720666Y-82324700D01*
X121720666Y-82324700D02*
X121754000Y-82291366D01*
X121754000Y-82291366D02*
X121787333Y-82224700D01*
X121787333Y-82224700D02*
X121787333Y-82091366D01*
X121787333Y-82091366D02*
X121754000Y-82024700D01*
X121754000Y-82024700D02*
X121720666Y-81991366D01*
X121720666Y-81991366D02*
X121654000Y-81958033D01*
X123120999Y-70734366D02*
X123087666Y-70767700D01*
X123087666Y-70767700D02*
X122987666Y-70801033D01*
X122987666Y-70801033D02*
X122920999Y-70801033D01*
X122920999Y-70801033D02*
X122820999Y-70767700D01*
X122820999Y-70767700D02*
X122754333Y-70701033D01*
X122754333Y-70701033D02*
X122720999Y-70634366D01*
X122720999Y-70634366D02*
X122687666Y-70501033D01*
X122687666Y-70501033D02*
X122687666Y-70401033D01*
X122687666Y-70401033D02*
X122720999Y-70267700D01*
X122720999Y-70267700D02*
X122754333Y-70201033D01*
X122754333Y-70201033D02*
X122820999Y-70134366D01*
X122820999Y-70134366D02*
X122920999Y-70101033D01*
X122920999Y-70101033D02*
X122987666Y-70101033D01*
X122987666Y-70101033D02*
X123087666Y-70134366D01*
X123087666Y-70134366D02*
X123120999Y-70167700D01*
X123387666Y-70167700D02*
X123420999Y-70134366D01*
X123420999Y-70134366D02*
X123487666Y-70101033D01*
X123487666Y-70101033D02*
X123654333Y-70101033D01*
X123654333Y-70101033D02*
X123720999Y-70134366D01*
X123720999Y-70134366D02*
X123754333Y-70167700D01*
X123754333Y-70167700D02*
X123787666Y-70234366D01*
X123787666Y-70234366D02*
X123787666Y-70301033D01*
X123787666Y-70301033D02*
X123754333Y-70401033D01*
X123754333Y-70401033D02*
X123354333Y-70801033D01*
X123354333Y-70801033D02*
X123787666Y-70801033D01*
X124121000Y-70801033D02*
X124254333Y-70801033D01*
X124254333Y-70801033D02*
X124321000Y-70767700D01*
X124321000Y-70767700D02*
X124354333Y-70734366D01*
X124354333Y-70734366D02*
X124421000Y-70634366D01*
X124421000Y-70634366D02*
X124454333Y-70501033D01*
X124454333Y-70501033D02*
X124454333Y-70234366D01*
X124454333Y-70234366D02*
X124421000Y-70167700D01*
X124421000Y-70167700D02*
X124387666Y-70134366D01*
X124387666Y-70134366D02*
X124321000Y-70101033D01*
X124321000Y-70101033D02*
X124187666Y-70101033D01*
X124187666Y-70101033D02*
X124121000Y-70134366D01*
X124121000Y-70134366D02*
X124087666Y-70167700D01*
X124087666Y-70167700D02*
X124054333Y-70234366D01*
X124054333Y-70234366D02*
X124054333Y-70401033D01*
X124054333Y-70401033D02*
X124087666Y-70467700D01*
X124087666Y-70467700D02*
X124121000Y-70501033D01*
X124121000Y-70501033D02*
X124187666Y-70534366D01*
X124187666Y-70534366D02*
X124321000Y-70534366D01*
X124321000Y-70534366D02*
X124387666Y-70501033D01*
X124387666Y-70501033D02*
X124421000Y-70467700D01*
X124421000Y-70467700D02*
X124454333Y-70401033D01*
X127565999Y-80259366D02*
X127532666Y-80292700D01*
X127532666Y-80292700D02*
X127432666Y-80326033D01*
X127432666Y-80326033D02*
X127365999Y-80326033D01*
X127365999Y-80326033D02*
X127265999Y-80292700D01*
X127265999Y-80292700D02*
X127199333Y-80226033D01*
X127199333Y-80226033D02*
X127165999Y-80159366D01*
X127165999Y-80159366D02*
X127132666Y-80026033D01*
X127132666Y-80026033D02*
X127132666Y-79926033D01*
X127132666Y-79926033D02*
X127165999Y-79792700D01*
X127165999Y-79792700D02*
X127199333Y-79726033D01*
X127199333Y-79726033D02*
X127265999Y-79659366D01*
X127265999Y-79659366D02*
X127365999Y-79626033D01*
X127365999Y-79626033D02*
X127432666Y-79626033D01*
X127432666Y-79626033D02*
X127532666Y-79659366D01*
X127532666Y-79659366D02*
X127565999Y-79692700D01*
X127799333Y-79626033D02*
X128232666Y-79626033D01*
X128232666Y-79626033D02*
X127999333Y-79892700D01*
X127999333Y-79892700D02*
X128099333Y-79892700D01*
X128099333Y-79892700D02*
X128165999Y-79926033D01*
X128165999Y-79926033D02*
X128199333Y-79959366D01*
X128199333Y-79959366D02*
X128232666Y-80026033D01*
X128232666Y-80026033D02*
X128232666Y-80192700D01*
X128232666Y-80192700D02*
X128199333Y-80259366D01*
X128199333Y-80259366D02*
X128165999Y-80292700D01*
X128165999Y-80292700D02*
X128099333Y-80326033D01*
X128099333Y-80326033D02*
X127899333Y-80326033D01*
X127899333Y-80326033D02*
X127832666Y-80292700D01*
X127832666Y-80292700D02*
X127799333Y-80259366D01*
X128666000Y-79626033D02*
X128732666Y-79626033D01*
X128732666Y-79626033D02*
X128799333Y-79659366D01*
X128799333Y-79659366D02*
X128832666Y-79692700D01*
X128832666Y-79692700D02*
X128866000Y-79759366D01*
X128866000Y-79759366D02*
X128899333Y-79892700D01*
X128899333Y-79892700D02*
X128899333Y-80059366D01*
X128899333Y-80059366D02*
X128866000Y-80192700D01*
X128866000Y-80192700D02*
X128832666Y-80259366D01*
X128832666Y-80259366D02*
X128799333Y-80292700D01*
X128799333Y-80292700D02*
X128732666Y-80326033D01*
X128732666Y-80326033D02*
X128666000Y-80326033D01*
X128666000Y-80326033D02*
X128599333Y-80292700D01*
X128599333Y-80292700D02*
X128566000Y-80259366D01*
X128566000Y-80259366D02*
X128532666Y-80192700D01*
X128532666Y-80192700D02*
X128499333Y-80059366D01*
X128499333Y-80059366D02*
X128499333Y-79892700D01*
X128499333Y-79892700D02*
X128532666Y-79759366D01*
X128532666Y-79759366D02*
X128566000Y-79692700D01*
X128566000Y-79692700D02*
X128599333Y-79659366D01*
X128599333Y-79659366D02*
X128666000Y-79626033D01*
X127438999Y-49652366D02*
X127405666Y-49685700D01*
X127405666Y-49685700D02*
X127305666Y-49719033D01*
X127305666Y-49719033D02*
X127238999Y-49719033D01*
X127238999Y-49719033D02*
X127138999Y-49685700D01*
X127138999Y-49685700D02*
X127072333Y-49619033D01*
X127072333Y-49619033D02*
X127038999Y-49552366D01*
X127038999Y-49552366D02*
X127005666Y-49419033D01*
X127005666Y-49419033D02*
X127005666Y-49319033D01*
X127005666Y-49319033D02*
X127038999Y-49185700D01*
X127038999Y-49185700D02*
X127072333Y-49119033D01*
X127072333Y-49119033D02*
X127138999Y-49052366D01*
X127138999Y-49052366D02*
X127238999Y-49019033D01*
X127238999Y-49019033D02*
X127305666Y-49019033D01*
X127305666Y-49019033D02*
X127405666Y-49052366D01*
X127405666Y-49052366D02*
X127438999Y-49085700D01*
X127672333Y-49019033D02*
X128105666Y-49019033D01*
X128105666Y-49019033D02*
X127872333Y-49285700D01*
X127872333Y-49285700D02*
X127972333Y-49285700D01*
X127972333Y-49285700D02*
X128038999Y-49319033D01*
X128038999Y-49319033D02*
X128072333Y-49352366D01*
X128072333Y-49352366D02*
X128105666Y-49419033D01*
X128105666Y-49419033D02*
X128105666Y-49585700D01*
X128105666Y-49585700D02*
X128072333Y-49652366D01*
X128072333Y-49652366D02*
X128038999Y-49685700D01*
X128038999Y-49685700D02*
X127972333Y-49719033D01*
X127972333Y-49719033D02*
X127772333Y-49719033D01*
X127772333Y-49719033D02*
X127705666Y-49685700D01*
X127705666Y-49685700D02*
X127672333Y-49652366D01*
X128772333Y-49719033D02*
X128372333Y-49719033D01*
X128572333Y-49719033D02*
X128572333Y-49019033D01*
X128572333Y-49019033D02*
X128505666Y-49119033D01*
X128505666Y-49119033D02*
X128439000Y-49185700D01*
X128439000Y-49185700D02*
X128372333Y-49219033D01*
X127565999Y-69845366D02*
X127532666Y-69878700D01*
X127532666Y-69878700D02*
X127432666Y-69912033D01*
X127432666Y-69912033D02*
X127365999Y-69912033D01*
X127365999Y-69912033D02*
X127265999Y-69878700D01*
X127265999Y-69878700D02*
X127199333Y-69812033D01*
X127199333Y-69812033D02*
X127165999Y-69745366D01*
X127165999Y-69745366D02*
X127132666Y-69612033D01*
X127132666Y-69612033D02*
X127132666Y-69512033D01*
X127132666Y-69512033D02*
X127165999Y-69378700D01*
X127165999Y-69378700D02*
X127199333Y-69312033D01*
X127199333Y-69312033D02*
X127265999Y-69245366D01*
X127265999Y-69245366D02*
X127365999Y-69212033D01*
X127365999Y-69212033D02*
X127432666Y-69212033D01*
X127432666Y-69212033D02*
X127532666Y-69245366D01*
X127532666Y-69245366D02*
X127565999Y-69278700D01*
X127799333Y-69212033D02*
X128232666Y-69212033D01*
X128232666Y-69212033D02*
X127999333Y-69478700D01*
X127999333Y-69478700D02*
X128099333Y-69478700D01*
X128099333Y-69478700D02*
X128165999Y-69512033D01*
X128165999Y-69512033D02*
X128199333Y-69545366D01*
X128199333Y-69545366D02*
X128232666Y-69612033D01*
X128232666Y-69612033D02*
X128232666Y-69778700D01*
X128232666Y-69778700D02*
X128199333Y-69845366D01*
X128199333Y-69845366D02*
X128165999Y-69878700D01*
X128165999Y-69878700D02*
X128099333Y-69912033D01*
X128099333Y-69912033D02*
X127899333Y-69912033D01*
X127899333Y-69912033D02*
X127832666Y-69878700D01*
X127832666Y-69878700D02*
X127799333Y-69845366D01*
X128499333Y-69278700D02*
X128532666Y-69245366D01*
X128532666Y-69245366D02*
X128599333Y-69212033D01*
X128599333Y-69212033D02*
X128766000Y-69212033D01*
X128766000Y-69212033D02*
X128832666Y-69245366D01*
X128832666Y-69245366D02*
X128866000Y-69278700D01*
X128866000Y-69278700D02*
X128899333Y-69345366D01*
X128899333Y-69345366D02*
X128899333Y-69412033D01*
X128899333Y-69412033D02*
X128866000Y-69512033D01*
X128866000Y-69512033D02*
X128466000Y-69912033D01*
X128466000Y-69912033D02*
X128899333Y-69912033D01*
X126233366Y-62934000D02*
X126266700Y-62967333D01*
X126266700Y-62967333D02*
X126300033Y-63067333D01*
X126300033Y-63067333D02*
X126300033Y-63134000D01*
X126300033Y-63134000D02*
X126266700Y-63234000D01*
X126266700Y-63234000D02*
X126200033Y-63300667D01*
X126200033Y-63300667D02*
X126133366Y-63334000D01*
X126133366Y-63334000D02*
X126000033Y-63367333D01*
X126000033Y-63367333D02*
X125900033Y-63367333D01*
X125900033Y-63367333D02*
X125766700Y-63334000D01*
X125766700Y-63334000D02*
X125700033Y-63300667D01*
X125700033Y-63300667D02*
X125633366Y-63234000D01*
X125633366Y-63234000D02*
X125600033Y-63134000D01*
X125600033Y-63134000D02*
X125600033Y-63067333D01*
X125600033Y-63067333D02*
X125633366Y-62967333D01*
X125633366Y-62967333D02*
X125666700Y-62934000D01*
X125600033Y-62700667D02*
X125600033Y-62267333D01*
X125600033Y-62267333D02*
X125866700Y-62500667D01*
X125866700Y-62500667D02*
X125866700Y-62400667D01*
X125866700Y-62400667D02*
X125900033Y-62334000D01*
X125900033Y-62334000D02*
X125933366Y-62300667D01*
X125933366Y-62300667D02*
X126000033Y-62267333D01*
X126000033Y-62267333D02*
X126166700Y-62267333D01*
X126166700Y-62267333D02*
X126233366Y-62300667D01*
X126233366Y-62300667D02*
X126266700Y-62334000D01*
X126266700Y-62334000D02*
X126300033Y-62400667D01*
X126300033Y-62400667D02*
X126300033Y-62600667D01*
X126300033Y-62600667D02*
X126266700Y-62667333D01*
X126266700Y-62667333D02*
X126233366Y-62700667D01*
X125600033Y-62034000D02*
X125600033Y-61600666D01*
X125600033Y-61600666D02*
X125866700Y-61834000D01*
X125866700Y-61834000D02*
X125866700Y-61734000D01*
X125866700Y-61734000D02*
X125900033Y-61667333D01*
X125900033Y-61667333D02*
X125933366Y-61634000D01*
X125933366Y-61634000D02*
X126000033Y-61600666D01*
X126000033Y-61600666D02*
X126166700Y-61600666D01*
X126166700Y-61600666D02*
X126233366Y-61634000D01*
X126233366Y-61634000D02*
X126266700Y-61667333D01*
X126266700Y-61667333D02*
X126300033Y-61734000D01*
X126300033Y-61734000D02*
X126300033Y-61934000D01*
X126300033Y-61934000D02*
X126266700Y-62000666D01*
X126266700Y-62000666D02*
X126233366Y-62034000D01*
X40687666Y-83250819D02*
X40687666Y-83965104D01*
X40687666Y-83965104D02*
X40640047Y-84107961D01*
X40640047Y-84107961D02*
X40544809Y-84203200D01*
X40544809Y-84203200D02*
X40401952Y-84250819D01*
X40401952Y-84250819D02*
X40306714Y-84250819D01*
X41687666Y-84250819D02*
X41116238Y-84250819D01*
X41401952Y-84250819D02*
X41401952Y-83250819D01*
X41401952Y-83250819D02*
X41306714Y-83393676D01*
X41306714Y-83393676D02*
X41211476Y-83488914D01*
X41211476Y-83488914D02*
X41116238Y-83536533D01*
X130762476Y-88608819D02*
X130762476Y-89323104D01*
X130762476Y-89323104D02*
X130714857Y-89465961D01*
X130714857Y-89465961D02*
X130619619Y-89561200D01*
X130619619Y-89561200D02*
X130476762Y-89608819D01*
X130476762Y-89608819D02*
X130381524Y-89608819D01*
X131762476Y-89608819D02*
X131191048Y-89608819D01*
X131476762Y-89608819D02*
X131476762Y-88608819D01*
X131476762Y-88608819D02*
X131381524Y-88751676D01*
X131381524Y-88751676D02*
X131286286Y-88846914D01*
X131286286Y-88846914D02*
X131191048Y-88894533D01*
X132714857Y-89608819D02*
X132143429Y-89608819D01*
X132429143Y-89608819D02*
X132429143Y-88608819D01*
X132429143Y-88608819D02*
X132333905Y-88751676D01*
X132333905Y-88751676D02*
X132238667Y-88846914D01*
X132238667Y-88846914D02*
X132143429Y-88894533D01*
X133429476Y-47155819D02*
X133429476Y-47870104D01*
X133429476Y-47870104D02*
X133381857Y-48012961D01*
X133381857Y-48012961D02*
X133286619Y-48108200D01*
X133286619Y-48108200D02*
X133143762Y-48155819D01*
X133143762Y-48155819D02*
X133048524Y-48155819D01*
X134429476Y-48155819D02*
X133858048Y-48155819D01*
X134143762Y-48155819D02*
X134143762Y-47155819D01*
X134143762Y-47155819D02*
X134048524Y-47298676D01*
X134048524Y-47298676D02*
X133953286Y-47393914D01*
X133953286Y-47393914D02*
X133858048Y-47441533D01*
X134810429Y-47251057D02*
X134858048Y-47203438D01*
X134858048Y-47203438D02*
X134953286Y-47155819D01*
X134953286Y-47155819D02*
X135191381Y-47155819D01*
X135191381Y-47155819D02*
X135286619Y-47203438D01*
X135286619Y-47203438D02*
X135334238Y-47251057D01*
X135334238Y-47251057D02*
X135381857Y-47346295D01*
X135381857Y-47346295D02*
X135381857Y-47441533D01*
X135381857Y-47441533D02*
X135334238Y-47584390D01*
X135334238Y-47584390D02*
X134762810Y-48155819D01*
X134762810Y-48155819D02*
X135381857Y-48155819D01*
X133556476Y-69126819D02*
X133556476Y-69841104D01*
X133556476Y-69841104D02*
X133508857Y-69983961D01*
X133508857Y-69983961D02*
X133413619Y-70079200D01*
X133413619Y-70079200D02*
X133270762Y-70126819D01*
X133270762Y-70126819D02*
X133175524Y-70126819D01*
X134556476Y-70126819D02*
X133985048Y-70126819D01*
X134270762Y-70126819D02*
X134270762Y-69126819D01*
X134270762Y-69126819D02*
X134175524Y-69269676D01*
X134175524Y-69269676D02*
X134080286Y-69364914D01*
X134080286Y-69364914D02*
X133985048Y-69412533D01*
X134889810Y-69126819D02*
X135508857Y-69126819D01*
X135508857Y-69126819D02*
X135175524Y-69507771D01*
X135175524Y-69507771D02*
X135318381Y-69507771D01*
X135318381Y-69507771D02*
X135413619Y-69555390D01*
X135413619Y-69555390D02*
X135461238Y-69603009D01*
X135461238Y-69603009D02*
X135508857Y-69698247D01*
X135508857Y-69698247D02*
X135508857Y-69936342D01*
X135508857Y-69936342D02*
X135461238Y-70031580D01*
X135461238Y-70031580D02*
X135413619Y-70079200D01*
X135413619Y-70079200D02*
X135318381Y-70126819D01*
X135318381Y-70126819D02*
X135032667Y-70126819D01*
X135032667Y-70126819D02*
X134937429Y-70079200D01*
X134937429Y-70079200D02*
X134889810Y-70031580D01*
X133556476Y-65748819D02*
X133556476Y-66463104D01*
X133556476Y-66463104D02*
X133508857Y-66605961D01*
X133508857Y-66605961D02*
X133413619Y-66701200D01*
X133413619Y-66701200D02*
X133270762Y-66748819D01*
X133270762Y-66748819D02*
X133175524Y-66748819D01*
X134556476Y-66748819D02*
X133985048Y-66748819D01*
X134270762Y-66748819D02*
X134270762Y-65748819D01*
X134270762Y-65748819D02*
X134175524Y-65891676D01*
X134175524Y-65891676D02*
X134080286Y-65986914D01*
X134080286Y-65986914D02*
X133985048Y-66034533D01*
X135413619Y-66082152D02*
X135413619Y-66748819D01*
X135175524Y-65701200D02*
X134937429Y-66415485D01*
X134937429Y-66415485D02*
X135556476Y-66415485D01*
X121875057Y-85312238D02*
X121827438Y-85407476D01*
X121827438Y-85407476D02*
X121732200Y-85502714D01*
X121732200Y-85502714D02*
X121589342Y-85645571D01*
X121589342Y-85645571D02*
X121541723Y-85740809D01*
X121541723Y-85740809D02*
X121541723Y-85836047D01*
X121779819Y-85788428D02*
X121732200Y-85883666D01*
X121732200Y-85883666D02*
X121636961Y-85978904D01*
X121636961Y-85978904D02*
X121446485Y-86026523D01*
X121446485Y-86026523D02*
X121113152Y-86026523D01*
X121113152Y-86026523D02*
X120922676Y-85978904D01*
X120922676Y-85978904D02*
X120827438Y-85883666D01*
X120827438Y-85883666D02*
X120779819Y-85788428D01*
X120779819Y-85788428D02*
X120779819Y-85597952D01*
X120779819Y-85597952D02*
X120827438Y-85502714D01*
X120827438Y-85502714D02*
X120922676Y-85407476D01*
X120922676Y-85407476D02*
X121113152Y-85359857D01*
X121113152Y-85359857D02*
X121446485Y-85359857D01*
X121446485Y-85359857D02*
X121636961Y-85407476D01*
X121636961Y-85407476D02*
X121732200Y-85502714D01*
X121732200Y-85502714D02*
X121779819Y-85597952D01*
X121779819Y-85597952D02*
X121779819Y-85788428D01*
X120779819Y-85026523D02*
X120779819Y-84407476D01*
X120779819Y-84407476D02*
X121160771Y-84740809D01*
X121160771Y-84740809D02*
X121160771Y-84597952D01*
X121160771Y-84597952D02*
X121208390Y-84502714D01*
X121208390Y-84502714D02*
X121256009Y-84455095D01*
X121256009Y-84455095D02*
X121351247Y-84407476D01*
X121351247Y-84407476D02*
X121589342Y-84407476D01*
X121589342Y-84407476D02*
X121684580Y-84455095D01*
X121684580Y-84455095D02*
X121732200Y-84502714D01*
X121732200Y-84502714D02*
X121779819Y-84597952D01*
X121779819Y-84597952D02*
X121779819Y-84883666D01*
X121779819Y-84883666D02*
X121732200Y-84978904D01*
X121732200Y-84978904D02*
X121684580Y-85026523D01*
X122048700Y-53914666D02*
X122015366Y-53981333D01*
X122015366Y-53981333D02*
X121948700Y-54048000D01*
X121948700Y-54048000D02*
X121848700Y-54148000D01*
X121848700Y-54148000D02*
X121815366Y-54214666D01*
X121815366Y-54214666D02*
X121815366Y-54281333D01*
X121982033Y-54248000D02*
X121948700Y-54314666D01*
X121948700Y-54314666D02*
X121882033Y-54381333D01*
X121882033Y-54381333D02*
X121748700Y-54414666D01*
X121748700Y-54414666D02*
X121515366Y-54414666D01*
X121515366Y-54414666D02*
X121382033Y-54381333D01*
X121382033Y-54381333D02*
X121315366Y-54314666D01*
X121315366Y-54314666D02*
X121282033Y-54248000D01*
X121282033Y-54248000D02*
X121282033Y-54114666D01*
X121282033Y-54114666D02*
X121315366Y-54048000D01*
X121315366Y-54048000D02*
X121382033Y-53981333D01*
X121382033Y-53981333D02*
X121515366Y-53948000D01*
X121515366Y-53948000D02*
X121748700Y-53948000D01*
X121748700Y-53948000D02*
X121882033Y-53981333D01*
X121882033Y-53981333D02*
X121948700Y-54048000D01*
X121948700Y-54048000D02*
X121982033Y-54114666D01*
X121982033Y-54114666D02*
X121982033Y-54248000D01*
X121515366Y-53348000D02*
X121982033Y-53348000D01*
X121248700Y-53514667D02*
X121748700Y-53681333D01*
X121748700Y-53681333D02*
X121748700Y-53248000D01*
X121748057Y-75660238D02*
X121700438Y-75755476D01*
X121700438Y-75755476D02*
X121605200Y-75850714D01*
X121605200Y-75850714D02*
X121462342Y-75993571D01*
X121462342Y-75993571D02*
X121414723Y-76088809D01*
X121414723Y-76088809D02*
X121414723Y-76184047D01*
X121652819Y-76136428D02*
X121605200Y-76231666D01*
X121605200Y-76231666D02*
X121509961Y-76326904D01*
X121509961Y-76326904D02*
X121319485Y-76374523D01*
X121319485Y-76374523D02*
X120986152Y-76374523D01*
X120986152Y-76374523D02*
X120795676Y-76326904D01*
X120795676Y-76326904D02*
X120700438Y-76231666D01*
X120700438Y-76231666D02*
X120652819Y-76136428D01*
X120652819Y-76136428D02*
X120652819Y-75945952D01*
X120652819Y-75945952D02*
X120700438Y-75850714D01*
X120700438Y-75850714D02*
X120795676Y-75755476D01*
X120795676Y-75755476D02*
X120986152Y-75707857D01*
X120986152Y-75707857D02*
X121319485Y-75707857D01*
X121319485Y-75707857D02*
X121509961Y-75755476D01*
X121509961Y-75755476D02*
X121605200Y-75850714D01*
X121605200Y-75850714D02*
X121652819Y-75945952D01*
X121652819Y-75945952D02*
X121652819Y-76136428D01*
X120652819Y-74803095D02*
X120652819Y-75279285D01*
X120652819Y-75279285D02*
X121129009Y-75326904D01*
X121129009Y-75326904D02*
X121081390Y-75279285D01*
X121081390Y-75279285D02*
X121033771Y-75184047D01*
X121033771Y-75184047D02*
X121033771Y-74945952D01*
X121033771Y-74945952D02*
X121081390Y-74850714D01*
X121081390Y-74850714D02*
X121129009Y-74803095D01*
X121129009Y-74803095D02*
X121224247Y-74755476D01*
X121224247Y-74755476D02*
X121462342Y-74755476D01*
X121462342Y-74755476D02*
X121557580Y-74803095D01*
X121557580Y-74803095D02*
X121605200Y-74850714D01*
X121605200Y-74850714D02*
X121652819Y-74945952D01*
X121652819Y-74945952D02*
X121652819Y-75184047D01*
X121652819Y-75184047D02*
X121605200Y-75279285D01*
X121605200Y-75279285D02*
X121557580Y-75326904D01*
X121581057Y-61055238D02*
X121533438Y-61150476D01*
X121533438Y-61150476D02*
X121438200Y-61245714D01*
X121438200Y-61245714D02*
X121295342Y-61388571D01*
X121295342Y-61388571D02*
X121247723Y-61483809D01*
X121247723Y-61483809D02*
X121247723Y-61579047D01*
X121485819Y-61531428D02*
X121438200Y-61626666D01*
X121438200Y-61626666D02*
X121342961Y-61721904D01*
X121342961Y-61721904D02*
X121152485Y-61769523D01*
X121152485Y-61769523D02*
X120819152Y-61769523D01*
X120819152Y-61769523D02*
X120628676Y-61721904D01*
X120628676Y-61721904D02*
X120533438Y-61626666D01*
X120533438Y-61626666D02*
X120485819Y-61531428D01*
X120485819Y-61531428D02*
X120485819Y-61340952D01*
X120485819Y-61340952D02*
X120533438Y-61245714D01*
X120533438Y-61245714D02*
X120628676Y-61150476D01*
X120628676Y-61150476D02*
X120819152Y-61102857D01*
X120819152Y-61102857D02*
X121152485Y-61102857D01*
X121152485Y-61102857D02*
X121342961Y-61150476D01*
X121342961Y-61150476D02*
X121438200Y-61245714D01*
X121438200Y-61245714D02*
X121485819Y-61340952D01*
X121485819Y-61340952D02*
X121485819Y-61531428D01*
X120485819Y-60245714D02*
X120485819Y-60436190D01*
X120485819Y-60436190D02*
X120533438Y-60531428D01*
X120533438Y-60531428D02*
X120581057Y-60579047D01*
X120581057Y-60579047D02*
X120723914Y-60674285D01*
X120723914Y-60674285D02*
X120914390Y-60721904D01*
X120914390Y-60721904D02*
X121295342Y-60721904D01*
X121295342Y-60721904D02*
X121390580Y-60674285D01*
X121390580Y-60674285D02*
X121438200Y-60626666D01*
X121438200Y-60626666D02*
X121485819Y-60531428D01*
X121485819Y-60531428D02*
X121485819Y-60340952D01*
X121485819Y-60340952D02*
X121438200Y-60245714D01*
X121438200Y-60245714D02*
X121390580Y-60198095D01*
X121390580Y-60198095D02*
X121295342Y-60150476D01*
X121295342Y-60150476D02*
X121057247Y-60150476D01*
X121057247Y-60150476D02*
X120962009Y-60198095D01*
X120962009Y-60198095D02*
X120914390Y-60245714D01*
X120914390Y-60245714D02*
X120866771Y-60340952D01*
X120866771Y-60340952D02*
X120866771Y-60531428D01*
X120866771Y-60531428D02*
X120914390Y-60626666D01*
X120914390Y-60626666D02*
X120962009Y-60674285D01*
X120962009Y-60674285D02*
X121057247Y-60721904D01*
X110196333Y-60906819D02*
X109863000Y-60430628D01*
X109624905Y-60906819D02*
X109624905Y-59906819D01*
X109624905Y-59906819D02*
X110005857Y-59906819D01*
X110005857Y-59906819D02*
X110101095Y-59954438D01*
X110101095Y-59954438D02*
X110148714Y-60002057D01*
X110148714Y-60002057D02*
X110196333Y-60097295D01*
X110196333Y-60097295D02*
X110196333Y-60240152D01*
X110196333Y-60240152D02*
X110148714Y-60335390D01*
X110148714Y-60335390D02*
X110101095Y-60383009D01*
X110101095Y-60383009D02*
X110005857Y-60430628D01*
X110005857Y-60430628D02*
X109624905Y-60430628D01*
X111053476Y-60240152D02*
X111053476Y-60906819D01*
X110815381Y-59859200D02*
X110577286Y-60573485D01*
X110577286Y-60573485D02*
X111196333Y-60573485D01*
X109720142Y-66493819D02*
X109386809Y-66017628D01*
X109148714Y-66493819D02*
X109148714Y-65493819D01*
X109148714Y-65493819D02*
X109529666Y-65493819D01*
X109529666Y-65493819D02*
X109624904Y-65541438D01*
X109624904Y-65541438D02*
X109672523Y-65589057D01*
X109672523Y-65589057D02*
X109720142Y-65684295D01*
X109720142Y-65684295D02*
X109720142Y-65827152D01*
X109720142Y-65827152D02*
X109672523Y-65922390D01*
X109672523Y-65922390D02*
X109624904Y-65970009D01*
X109624904Y-65970009D02*
X109529666Y-66017628D01*
X109529666Y-66017628D02*
X109148714Y-66017628D01*
X110672523Y-66493819D02*
X110101095Y-66493819D01*
X110386809Y-66493819D02*
X110386809Y-65493819D01*
X110386809Y-65493819D02*
X110291571Y-65636676D01*
X110291571Y-65636676D02*
X110196333Y-65731914D01*
X110196333Y-65731914D02*
X110101095Y-65779533D01*
X111005857Y-65493819D02*
X111624904Y-65493819D01*
X111624904Y-65493819D02*
X111291571Y-65874771D01*
X111291571Y-65874771D02*
X111434428Y-65874771D01*
X111434428Y-65874771D02*
X111529666Y-65922390D01*
X111529666Y-65922390D02*
X111577285Y-65970009D01*
X111577285Y-65970009D02*
X111624904Y-66065247D01*
X111624904Y-66065247D02*
X111624904Y-66303342D01*
X111624904Y-66303342D02*
X111577285Y-66398580D01*
X111577285Y-66398580D02*
X111529666Y-66446200D01*
X111529666Y-66446200D02*
X111434428Y-66493819D01*
X111434428Y-66493819D02*
X111148714Y-66493819D01*
X111148714Y-66493819D02*
X111053476Y-66446200D01*
X111053476Y-66446200D02*
X111005857Y-66398580D01*
X78797999Y-64832033D02*
X78564666Y-64498700D01*
X78397999Y-64832033D02*
X78397999Y-64132033D01*
X78397999Y-64132033D02*
X78664666Y-64132033D01*
X78664666Y-64132033D02*
X78731333Y-64165366D01*
X78731333Y-64165366D02*
X78764666Y-64198700D01*
X78764666Y-64198700D02*
X78797999Y-64265366D01*
X78797999Y-64265366D02*
X78797999Y-64365366D01*
X78797999Y-64365366D02*
X78764666Y-64432033D01*
X78764666Y-64432033D02*
X78731333Y-64465366D01*
X78731333Y-64465366D02*
X78664666Y-64498700D01*
X78664666Y-64498700D02*
X78397999Y-64498700D01*
X79064666Y-64198700D02*
X79097999Y-64165366D01*
X79097999Y-64165366D02*
X79164666Y-64132033D01*
X79164666Y-64132033D02*
X79331333Y-64132033D01*
X79331333Y-64132033D02*
X79397999Y-64165366D01*
X79397999Y-64165366D02*
X79431333Y-64198700D01*
X79431333Y-64198700D02*
X79464666Y-64265366D01*
X79464666Y-64265366D02*
X79464666Y-64332033D01*
X79464666Y-64332033D02*
X79431333Y-64432033D01*
X79431333Y-64432033D02*
X79031333Y-64832033D01*
X79031333Y-64832033D02*
X79464666Y-64832033D01*
X80064666Y-64365366D02*
X80064666Y-64832033D01*
X79898000Y-64098700D02*
X79731333Y-64598700D01*
X79731333Y-64598700D02*
X80164666Y-64598700D01*
X47814033Y-38550000D02*
X47480700Y-38783333D01*
X47814033Y-38950000D02*
X47114033Y-38950000D01*
X47114033Y-38950000D02*
X47114033Y-38683333D01*
X47114033Y-38683333D02*
X47147366Y-38616667D01*
X47147366Y-38616667D02*
X47180700Y-38583333D01*
X47180700Y-38583333D02*
X47247366Y-38550000D01*
X47247366Y-38550000D02*
X47347366Y-38550000D01*
X47347366Y-38550000D02*
X47414033Y-38583333D01*
X47414033Y-38583333D02*
X47447366Y-38616667D01*
X47447366Y-38616667D02*
X47480700Y-38683333D01*
X47480700Y-38683333D02*
X47480700Y-38950000D01*
X47180700Y-38283333D02*
X47147366Y-38250000D01*
X47147366Y-38250000D02*
X47114033Y-38183333D01*
X47114033Y-38183333D02*
X47114033Y-38016667D01*
X47114033Y-38016667D02*
X47147366Y-37950000D01*
X47147366Y-37950000D02*
X47180700Y-37916667D01*
X47180700Y-37916667D02*
X47247366Y-37883333D01*
X47247366Y-37883333D02*
X47314033Y-37883333D01*
X47314033Y-37883333D02*
X47414033Y-37916667D01*
X47414033Y-37916667D02*
X47814033Y-38316667D01*
X47814033Y-38316667D02*
X47814033Y-37883333D01*
X47114033Y-37650000D02*
X47114033Y-37183333D01*
X47114033Y-37183333D02*
X47814033Y-37483333D01*
X77278033Y-68776000D02*
X76944700Y-69009333D01*
X77278033Y-69176000D02*
X76578033Y-69176000D01*
X76578033Y-69176000D02*
X76578033Y-68909333D01*
X76578033Y-68909333D02*
X76611366Y-68842667D01*
X76611366Y-68842667D02*
X76644700Y-68809333D01*
X76644700Y-68809333D02*
X76711366Y-68776000D01*
X76711366Y-68776000D02*
X76811366Y-68776000D01*
X76811366Y-68776000D02*
X76878033Y-68809333D01*
X76878033Y-68809333D02*
X76911366Y-68842667D01*
X76911366Y-68842667D02*
X76944700Y-68909333D01*
X76944700Y-68909333D02*
X76944700Y-69176000D01*
X76578033Y-68542667D02*
X76578033Y-68109333D01*
X76578033Y-68109333D02*
X76844700Y-68342667D01*
X76844700Y-68342667D02*
X76844700Y-68242667D01*
X76844700Y-68242667D02*
X76878033Y-68176000D01*
X76878033Y-68176000D02*
X76911366Y-68142667D01*
X76911366Y-68142667D02*
X76978033Y-68109333D01*
X76978033Y-68109333D02*
X77144700Y-68109333D01*
X77144700Y-68109333D02*
X77211366Y-68142667D01*
X77211366Y-68142667D02*
X77244700Y-68176000D01*
X77244700Y-68176000D02*
X77278033Y-68242667D01*
X77278033Y-68242667D02*
X77278033Y-68442667D01*
X77278033Y-68442667D02*
X77244700Y-68509333D01*
X77244700Y-68509333D02*
X77211366Y-68542667D01*
X76644700Y-67842666D02*
X76611366Y-67809333D01*
X76611366Y-67809333D02*
X76578033Y-67742666D01*
X76578033Y-67742666D02*
X76578033Y-67576000D01*
X76578033Y-67576000D02*
X76611366Y-67509333D01*
X76611366Y-67509333D02*
X76644700Y-67476000D01*
X76644700Y-67476000D02*
X76711366Y-67442666D01*
X76711366Y-67442666D02*
X76778033Y-67442666D01*
X76778033Y-67442666D02*
X76878033Y-67476000D01*
X76878033Y-67476000D02*
X77278033Y-67876000D01*
X77278033Y-67876000D02*
X77278033Y-67442666D01*
X118675999Y-48068033D02*
X118442666Y-47734700D01*
X118275999Y-48068033D02*
X118275999Y-47368033D01*
X118275999Y-47368033D02*
X118542666Y-47368033D01*
X118542666Y-47368033D02*
X118609333Y-47401366D01*
X118609333Y-47401366D02*
X118642666Y-47434700D01*
X118642666Y-47434700D02*
X118675999Y-47501366D01*
X118675999Y-47501366D02*
X118675999Y-47601366D01*
X118675999Y-47601366D02*
X118642666Y-47668033D01*
X118642666Y-47668033D02*
X118609333Y-47701366D01*
X118609333Y-47701366D02*
X118542666Y-47734700D01*
X118542666Y-47734700D02*
X118275999Y-47734700D01*
X118909333Y-47368033D02*
X119342666Y-47368033D01*
X119342666Y-47368033D02*
X119109333Y-47634700D01*
X119109333Y-47634700D02*
X119209333Y-47634700D01*
X119209333Y-47634700D02*
X119275999Y-47668033D01*
X119275999Y-47668033D02*
X119309333Y-47701366D01*
X119309333Y-47701366D02*
X119342666Y-47768033D01*
X119342666Y-47768033D02*
X119342666Y-47934700D01*
X119342666Y-47934700D02*
X119309333Y-48001366D01*
X119309333Y-48001366D02*
X119275999Y-48034700D01*
X119275999Y-48034700D02*
X119209333Y-48068033D01*
X119209333Y-48068033D02*
X119009333Y-48068033D01*
X119009333Y-48068033D02*
X118942666Y-48034700D01*
X118942666Y-48034700D02*
X118909333Y-48001366D01*
X119576000Y-47368033D02*
X120009333Y-47368033D01*
X120009333Y-47368033D02*
X119776000Y-47634700D01*
X119776000Y-47634700D02*
X119876000Y-47634700D01*
X119876000Y-47634700D02*
X119942666Y-47668033D01*
X119942666Y-47668033D02*
X119976000Y-47701366D01*
X119976000Y-47701366D02*
X120009333Y-47768033D01*
X120009333Y-47768033D02*
X120009333Y-47934700D01*
X120009333Y-47934700D02*
X119976000Y-48001366D01*
X119976000Y-48001366D02*
X119942666Y-48034700D01*
X119942666Y-48034700D02*
X119876000Y-48068033D01*
X119876000Y-48068033D02*
X119676000Y-48068033D01*
X119676000Y-48068033D02*
X119609333Y-48034700D01*
X119609333Y-48034700D02*
X119576000Y-48001366D01*
X123755999Y-48068033D02*
X123522666Y-47734700D01*
X123355999Y-48068033D02*
X123355999Y-47368033D01*
X123355999Y-47368033D02*
X123622666Y-47368033D01*
X123622666Y-47368033D02*
X123689333Y-47401366D01*
X123689333Y-47401366D02*
X123722666Y-47434700D01*
X123722666Y-47434700D02*
X123755999Y-47501366D01*
X123755999Y-47501366D02*
X123755999Y-47601366D01*
X123755999Y-47601366D02*
X123722666Y-47668033D01*
X123722666Y-47668033D02*
X123689333Y-47701366D01*
X123689333Y-47701366D02*
X123622666Y-47734700D01*
X123622666Y-47734700D02*
X123355999Y-47734700D01*
X123989333Y-47368033D02*
X124422666Y-47368033D01*
X124422666Y-47368033D02*
X124189333Y-47634700D01*
X124189333Y-47634700D02*
X124289333Y-47634700D01*
X124289333Y-47634700D02*
X124355999Y-47668033D01*
X124355999Y-47668033D02*
X124389333Y-47701366D01*
X124389333Y-47701366D02*
X124422666Y-47768033D01*
X124422666Y-47768033D02*
X124422666Y-47934700D01*
X124422666Y-47934700D02*
X124389333Y-48001366D01*
X124389333Y-48001366D02*
X124355999Y-48034700D01*
X124355999Y-48034700D02*
X124289333Y-48068033D01*
X124289333Y-48068033D02*
X124089333Y-48068033D01*
X124089333Y-48068033D02*
X124022666Y-48034700D01*
X124022666Y-48034700D02*
X123989333Y-48001366D01*
X125022666Y-47601366D02*
X125022666Y-48068033D01*
X124856000Y-47334700D02*
X124689333Y-47834700D01*
X124689333Y-47834700D02*
X125122666Y-47834700D01*
X127565999Y-88200033D02*
X127332666Y-87866700D01*
X127165999Y-88200033D02*
X127165999Y-87500033D01*
X127165999Y-87500033D02*
X127432666Y-87500033D01*
X127432666Y-87500033D02*
X127499333Y-87533366D01*
X127499333Y-87533366D02*
X127532666Y-87566700D01*
X127532666Y-87566700D02*
X127565999Y-87633366D01*
X127565999Y-87633366D02*
X127565999Y-87733366D01*
X127565999Y-87733366D02*
X127532666Y-87800033D01*
X127532666Y-87800033D02*
X127499333Y-87833366D01*
X127499333Y-87833366D02*
X127432666Y-87866700D01*
X127432666Y-87866700D02*
X127165999Y-87866700D01*
X127799333Y-87500033D02*
X128232666Y-87500033D01*
X128232666Y-87500033D02*
X127999333Y-87766700D01*
X127999333Y-87766700D02*
X128099333Y-87766700D01*
X128099333Y-87766700D02*
X128165999Y-87800033D01*
X128165999Y-87800033D02*
X128199333Y-87833366D01*
X128199333Y-87833366D02*
X128232666Y-87900033D01*
X128232666Y-87900033D02*
X128232666Y-88066700D01*
X128232666Y-88066700D02*
X128199333Y-88133366D01*
X128199333Y-88133366D02*
X128165999Y-88166700D01*
X128165999Y-88166700D02*
X128099333Y-88200033D01*
X128099333Y-88200033D02*
X127899333Y-88200033D01*
X127899333Y-88200033D02*
X127832666Y-88166700D01*
X127832666Y-88166700D02*
X127799333Y-88133366D01*
X128866000Y-87500033D02*
X128532666Y-87500033D01*
X128532666Y-87500033D02*
X128499333Y-87833366D01*
X128499333Y-87833366D02*
X128532666Y-87800033D01*
X128532666Y-87800033D02*
X128599333Y-87766700D01*
X128599333Y-87766700D02*
X128766000Y-87766700D01*
X128766000Y-87766700D02*
X128832666Y-87800033D01*
X128832666Y-87800033D02*
X128866000Y-87833366D01*
X128866000Y-87833366D02*
X128899333Y-87900033D01*
X128899333Y-87900033D02*
X128899333Y-88066700D01*
X128899333Y-88066700D02*
X128866000Y-88133366D01*
X128866000Y-88133366D02*
X128832666Y-88166700D01*
X128832666Y-88166700D02*
X128766000Y-88200033D01*
X128766000Y-88200033D02*
X128599333Y-88200033D01*
X128599333Y-88200033D02*
X128532666Y-88166700D01*
X128532666Y-88166700D02*
X128499333Y-88133366D01*
X130110033Y-53790000D02*
X129776700Y-54023333D01*
X130110033Y-54190000D02*
X129410033Y-54190000D01*
X129410033Y-54190000D02*
X129410033Y-53923333D01*
X129410033Y-53923333D02*
X129443366Y-53856667D01*
X129443366Y-53856667D02*
X129476700Y-53823333D01*
X129476700Y-53823333D02*
X129543366Y-53790000D01*
X129543366Y-53790000D02*
X129643366Y-53790000D01*
X129643366Y-53790000D02*
X129710033Y-53823333D01*
X129710033Y-53823333D02*
X129743366Y-53856667D01*
X129743366Y-53856667D02*
X129776700Y-53923333D01*
X129776700Y-53923333D02*
X129776700Y-54190000D01*
X129410033Y-53556667D02*
X129410033Y-53123333D01*
X129410033Y-53123333D02*
X129676700Y-53356667D01*
X129676700Y-53356667D02*
X129676700Y-53256667D01*
X129676700Y-53256667D02*
X129710033Y-53190000D01*
X129710033Y-53190000D02*
X129743366Y-53156667D01*
X129743366Y-53156667D02*
X129810033Y-53123333D01*
X129810033Y-53123333D02*
X129976700Y-53123333D01*
X129976700Y-53123333D02*
X130043366Y-53156667D01*
X130043366Y-53156667D02*
X130076700Y-53190000D01*
X130076700Y-53190000D02*
X130110033Y-53256667D01*
X130110033Y-53256667D02*
X130110033Y-53456667D01*
X130110033Y-53456667D02*
X130076700Y-53523333D01*
X130076700Y-53523333D02*
X130043366Y-53556667D01*
X129410033Y-52523333D02*
X129410033Y-52656666D01*
X129410033Y-52656666D02*
X129443366Y-52723333D01*
X129443366Y-52723333D02*
X129476700Y-52756666D01*
X129476700Y-52756666D02*
X129576700Y-52823333D01*
X129576700Y-52823333D02*
X129710033Y-52856666D01*
X129710033Y-52856666D02*
X129976700Y-52856666D01*
X129976700Y-52856666D02*
X130043366Y-52823333D01*
X130043366Y-52823333D02*
X130076700Y-52790000D01*
X130076700Y-52790000D02*
X130110033Y-52723333D01*
X130110033Y-52723333D02*
X130110033Y-52590000D01*
X130110033Y-52590000D02*
X130076700Y-52523333D01*
X130076700Y-52523333D02*
X130043366Y-52490000D01*
X130043366Y-52490000D02*
X129976700Y-52456666D01*
X129976700Y-52456666D02*
X129810033Y-52456666D01*
X129810033Y-52456666D02*
X129743366Y-52490000D01*
X129743366Y-52490000D02*
X129710033Y-52523333D01*
X129710033Y-52523333D02*
X129676700Y-52590000D01*
X129676700Y-52590000D02*
X129676700Y-52723333D01*
X129676700Y-52723333D02*
X129710033Y-52790000D01*
X129710033Y-52790000D02*
X129743366Y-52823333D01*
X129743366Y-52823333D02*
X129810033Y-52856666D01*
X126300033Y-83762000D02*
X125966700Y-83995333D01*
X126300033Y-84162000D02*
X125600033Y-84162000D01*
X125600033Y-84162000D02*
X125600033Y-83895333D01*
X125600033Y-83895333D02*
X125633366Y-83828667D01*
X125633366Y-83828667D02*
X125666700Y-83795333D01*
X125666700Y-83795333D02*
X125733366Y-83762000D01*
X125733366Y-83762000D02*
X125833366Y-83762000D01*
X125833366Y-83762000D02*
X125900033Y-83795333D01*
X125900033Y-83795333D02*
X125933366Y-83828667D01*
X125933366Y-83828667D02*
X125966700Y-83895333D01*
X125966700Y-83895333D02*
X125966700Y-84162000D01*
X125600033Y-83528667D02*
X125600033Y-83095333D01*
X125600033Y-83095333D02*
X125866700Y-83328667D01*
X125866700Y-83328667D02*
X125866700Y-83228667D01*
X125866700Y-83228667D02*
X125900033Y-83162000D01*
X125900033Y-83162000D02*
X125933366Y-83128667D01*
X125933366Y-83128667D02*
X126000033Y-83095333D01*
X126000033Y-83095333D02*
X126166700Y-83095333D01*
X126166700Y-83095333D02*
X126233366Y-83128667D01*
X126233366Y-83128667D02*
X126266700Y-83162000D01*
X126266700Y-83162000D02*
X126300033Y-83228667D01*
X126300033Y-83228667D02*
X126300033Y-83428667D01*
X126300033Y-83428667D02*
X126266700Y-83495333D01*
X126266700Y-83495333D02*
X126233366Y-83528667D01*
X125600033Y-82862000D02*
X125600033Y-82395333D01*
X125600033Y-82395333D02*
X126300033Y-82695333D01*
X127311999Y-57720033D02*
X127078666Y-57386700D01*
X126911999Y-57720033D02*
X126911999Y-57020033D01*
X126911999Y-57020033D02*
X127178666Y-57020033D01*
X127178666Y-57020033D02*
X127245333Y-57053366D01*
X127245333Y-57053366D02*
X127278666Y-57086700D01*
X127278666Y-57086700D02*
X127311999Y-57153366D01*
X127311999Y-57153366D02*
X127311999Y-57253366D01*
X127311999Y-57253366D02*
X127278666Y-57320033D01*
X127278666Y-57320033D02*
X127245333Y-57353366D01*
X127245333Y-57353366D02*
X127178666Y-57386700D01*
X127178666Y-57386700D02*
X126911999Y-57386700D01*
X127545333Y-57020033D02*
X127978666Y-57020033D01*
X127978666Y-57020033D02*
X127745333Y-57286700D01*
X127745333Y-57286700D02*
X127845333Y-57286700D01*
X127845333Y-57286700D02*
X127911999Y-57320033D01*
X127911999Y-57320033D02*
X127945333Y-57353366D01*
X127945333Y-57353366D02*
X127978666Y-57420033D01*
X127978666Y-57420033D02*
X127978666Y-57586700D01*
X127978666Y-57586700D02*
X127945333Y-57653366D01*
X127945333Y-57653366D02*
X127911999Y-57686700D01*
X127911999Y-57686700D02*
X127845333Y-57720033D01*
X127845333Y-57720033D02*
X127645333Y-57720033D01*
X127645333Y-57720033D02*
X127578666Y-57686700D01*
X127578666Y-57686700D02*
X127545333Y-57653366D01*
X128378666Y-57320033D02*
X128312000Y-57286700D01*
X128312000Y-57286700D02*
X128278666Y-57253366D01*
X128278666Y-57253366D02*
X128245333Y-57186700D01*
X128245333Y-57186700D02*
X128245333Y-57153366D01*
X128245333Y-57153366D02*
X128278666Y-57086700D01*
X128278666Y-57086700D02*
X128312000Y-57053366D01*
X128312000Y-57053366D02*
X128378666Y-57020033D01*
X128378666Y-57020033D02*
X128512000Y-57020033D01*
X128512000Y-57020033D02*
X128578666Y-57053366D01*
X128578666Y-57053366D02*
X128612000Y-57086700D01*
X128612000Y-57086700D02*
X128645333Y-57153366D01*
X128645333Y-57153366D02*
X128645333Y-57186700D01*
X128645333Y-57186700D02*
X128612000Y-57253366D01*
X128612000Y-57253366D02*
X128578666Y-57286700D01*
X128578666Y-57286700D02*
X128512000Y-57320033D01*
X128512000Y-57320033D02*
X128378666Y-57320033D01*
X128378666Y-57320033D02*
X128312000Y-57353366D01*
X128312000Y-57353366D02*
X128278666Y-57386700D01*
X128278666Y-57386700D02*
X128245333Y-57453366D01*
X128245333Y-57453366D02*
X128245333Y-57586700D01*
X128245333Y-57586700D02*
X128278666Y-57653366D01*
X128278666Y-57653366D02*
X128312000Y-57686700D01*
X128312000Y-57686700D02*
X128378666Y-57720033D01*
X128378666Y-57720033D02*
X128512000Y-57720033D01*
X128512000Y-57720033D02*
X128578666Y-57686700D01*
X128578666Y-57686700D02*
X128612000Y-57653366D01*
X128612000Y-57653366D02*
X128645333Y-57586700D01*
X128645333Y-57586700D02*
X128645333Y-57453366D01*
X128645333Y-57453366D02*
X128612000Y-57386700D01*
X128612000Y-57386700D02*
X128578666Y-57353366D01*
X128578666Y-57353366D02*
X128512000Y-57320033D01*
X123055142Y-90623819D02*
X122721809Y-90147628D01*
X122483714Y-90623819D02*
X122483714Y-89623819D01*
X122483714Y-89623819D02*
X122864666Y-89623819D01*
X122864666Y-89623819D02*
X122959904Y-89671438D01*
X122959904Y-89671438D02*
X123007523Y-89719057D01*
X123007523Y-89719057D02*
X123055142Y-89814295D01*
X123055142Y-89814295D02*
X123055142Y-89957152D01*
X123055142Y-89957152D02*
X123007523Y-90052390D01*
X123007523Y-90052390D02*
X122959904Y-90100009D01*
X122959904Y-90100009D02*
X122864666Y-90147628D01*
X122864666Y-90147628D02*
X122483714Y-90147628D01*
X123388476Y-89623819D02*
X124007523Y-89623819D01*
X124007523Y-89623819D02*
X123674190Y-90004771D01*
X123674190Y-90004771D02*
X123817047Y-90004771D01*
X123817047Y-90004771D02*
X123912285Y-90052390D01*
X123912285Y-90052390D02*
X123959904Y-90100009D01*
X123959904Y-90100009D02*
X124007523Y-90195247D01*
X124007523Y-90195247D02*
X124007523Y-90433342D01*
X124007523Y-90433342D02*
X123959904Y-90528580D01*
X123959904Y-90528580D02*
X123912285Y-90576200D01*
X123912285Y-90576200D02*
X123817047Y-90623819D01*
X123817047Y-90623819D02*
X123531333Y-90623819D01*
X123531333Y-90623819D02*
X123436095Y-90576200D01*
X123436095Y-90576200D02*
X123388476Y-90528580D01*
X124483714Y-90623819D02*
X124674190Y-90623819D01*
X124674190Y-90623819D02*
X124769428Y-90576200D01*
X124769428Y-90576200D02*
X124817047Y-90528580D01*
X124817047Y-90528580D02*
X124912285Y-90385723D01*
X124912285Y-90385723D02*
X124959904Y-90195247D01*
X124959904Y-90195247D02*
X124959904Y-89814295D01*
X124959904Y-89814295D02*
X124912285Y-89719057D01*
X124912285Y-89719057D02*
X124864666Y-89671438D01*
X124864666Y-89671438D02*
X124769428Y-89623819D01*
X124769428Y-89623819D02*
X124578952Y-89623819D01*
X124578952Y-89623819D02*
X124483714Y-89671438D01*
X124483714Y-89671438D02*
X124436095Y-89719057D01*
X124436095Y-89719057D02*
X124388476Y-89814295D01*
X124388476Y-89814295D02*
X124388476Y-90052390D01*
X124388476Y-90052390D02*
X124436095Y-90147628D01*
X124436095Y-90147628D02*
X124483714Y-90195247D01*
X124483714Y-90195247D02*
X124578952Y-90242866D01*
X124578952Y-90242866D02*
X124769428Y-90242866D01*
X124769428Y-90242866D02*
X124864666Y-90195247D01*
X124864666Y-90195247D02*
X124912285Y-90147628D01*
X124912285Y-90147628D02*
X124959904Y-90052390D01*
X123247999Y-58609033D02*
X123014666Y-58275700D01*
X122847999Y-58609033D02*
X122847999Y-57909033D01*
X122847999Y-57909033D02*
X123114666Y-57909033D01*
X123114666Y-57909033D02*
X123181333Y-57942366D01*
X123181333Y-57942366D02*
X123214666Y-57975700D01*
X123214666Y-57975700D02*
X123247999Y-58042366D01*
X123247999Y-58042366D02*
X123247999Y-58142366D01*
X123247999Y-58142366D02*
X123214666Y-58209033D01*
X123214666Y-58209033D02*
X123181333Y-58242366D01*
X123181333Y-58242366D02*
X123114666Y-58275700D01*
X123114666Y-58275700D02*
X122847999Y-58275700D01*
X123847999Y-58142366D02*
X123847999Y-58609033D01*
X123681333Y-57875700D02*
X123514666Y-58375700D01*
X123514666Y-58375700D02*
X123947999Y-58375700D01*
X124348000Y-57909033D02*
X124414666Y-57909033D01*
X124414666Y-57909033D02*
X124481333Y-57942366D01*
X124481333Y-57942366D02*
X124514666Y-57975700D01*
X124514666Y-57975700D02*
X124548000Y-58042366D01*
X124548000Y-58042366D02*
X124581333Y-58175700D01*
X124581333Y-58175700D02*
X124581333Y-58342366D01*
X124581333Y-58342366D02*
X124548000Y-58475700D01*
X124548000Y-58475700D02*
X124514666Y-58542366D01*
X124514666Y-58542366D02*
X124481333Y-58575700D01*
X124481333Y-58575700D02*
X124414666Y-58609033D01*
X124414666Y-58609033D02*
X124348000Y-58609033D01*
X124348000Y-58609033D02*
X124281333Y-58575700D01*
X124281333Y-58575700D02*
X124248000Y-58542366D01*
X124248000Y-58542366D02*
X124214666Y-58475700D01*
X124214666Y-58475700D02*
X124181333Y-58342366D01*
X124181333Y-58342366D02*
X124181333Y-58175700D01*
X124181333Y-58175700D02*
X124214666Y-58042366D01*
X124214666Y-58042366D02*
X124248000Y-57975700D01*
X124248000Y-57975700D02*
X124281333Y-57942366D01*
X124281333Y-57942366D02*
X124348000Y-57909033D01*
X120199999Y-79056033D02*
X119966666Y-78722700D01*
X119799999Y-79056033D02*
X119799999Y-78356033D01*
X119799999Y-78356033D02*
X120066666Y-78356033D01*
X120066666Y-78356033D02*
X120133333Y-78389366D01*
X120133333Y-78389366D02*
X120166666Y-78422700D01*
X120166666Y-78422700D02*
X120199999Y-78489366D01*
X120199999Y-78489366D02*
X120199999Y-78589366D01*
X120199999Y-78589366D02*
X120166666Y-78656033D01*
X120166666Y-78656033D02*
X120133333Y-78689366D01*
X120133333Y-78689366D02*
X120066666Y-78722700D01*
X120066666Y-78722700D02*
X119799999Y-78722700D01*
X120799999Y-78589366D02*
X120799999Y-79056033D01*
X120633333Y-78322700D02*
X120466666Y-78822700D01*
X120466666Y-78822700D02*
X120899999Y-78822700D01*
X121533333Y-79056033D02*
X121133333Y-79056033D01*
X121333333Y-79056033D02*
X121333333Y-78356033D01*
X121333333Y-78356033D02*
X121266666Y-78456033D01*
X121266666Y-78456033D02*
X121200000Y-78522700D01*
X121200000Y-78522700D02*
X121133333Y-78556033D01*
X123374999Y-65975033D02*
X123141666Y-65641700D01*
X122974999Y-65975033D02*
X122974999Y-65275033D01*
X122974999Y-65275033D02*
X123241666Y-65275033D01*
X123241666Y-65275033D02*
X123308333Y-65308366D01*
X123308333Y-65308366D02*
X123341666Y-65341700D01*
X123341666Y-65341700D02*
X123374999Y-65408366D01*
X123374999Y-65408366D02*
X123374999Y-65508366D01*
X123374999Y-65508366D02*
X123341666Y-65575033D01*
X123341666Y-65575033D02*
X123308333Y-65608366D01*
X123308333Y-65608366D02*
X123241666Y-65641700D01*
X123241666Y-65641700D02*
X122974999Y-65641700D01*
X123974999Y-65508366D02*
X123974999Y-65975033D01*
X123808333Y-65241700D02*
X123641666Y-65741700D01*
X123641666Y-65741700D02*
X124074999Y-65741700D01*
X124308333Y-65341700D02*
X124341666Y-65308366D01*
X124341666Y-65308366D02*
X124408333Y-65275033D01*
X124408333Y-65275033D02*
X124575000Y-65275033D01*
X124575000Y-65275033D02*
X124641666Y-65308366D01*
X124641666Y-65308366D02*
X124675000Y-65341700D01*
X124675000Y-65341700D02*
X124708333Y-65408366D01*
X124708333Y-65408366D02*
X124708333Y-65475033D01*
X124708333Y-65475033D02*
X124675000Y-65575033D01*
X124675000Y-65575033D02*
X124275000Y-65975033D01*
X124275000Y-65975033D02*
X124708333Y-65975033D01*
X127500142Y-78304819D02*
X127166809Y-77828628D01*
X126928714Y-78304819D02*
X126928714Y-77304819D01*
X126928714Y-77304819D02*
X127309666Y-77304819D01*
X127309666Y-77304819D02*
X127404904Y-77352438D01*
X127404904Y-77352438D02*
X127452523Y-77400057D01*
X127452523Y-77400057D02*
X127500142Y-77495295D01*
X127500142Y-77495295D02*
X127500142Y-77638152D01*
X127500142Y-77638152D02*
X127452523Y-77733390D01*
X127452523Y-77733390D02*
X127404904Y-77781009D01*
X127404904Y-77781009D02*
X127309666Y-77828628D01*
X127309666Y-77828628D02*
X126928714Y-77828628D01*
X128357285Y-77638152D02*
X128357285Y-78304819D01*
X128119190Y-77257200D02*
X127881095Y-77971485D01*
X127881095Y-77971485D02*
X128500142Y-77971485D01*
X128785857Y-77304819D02*
X129404904Y-77304819D01*
X129404904Y-77304819D02*
X129071571Y-77685771D01*
X129071571Y-77685771D02*
X129214428Y-77685771D01*
X129214428Y-77685771D02*
X129309666Y-77733390D01*
X129309666Y-77733390D02*
X129357285Y-77781009D01*
X129357285Y-77781009D02*
X129404904Y-77876247D01*
X129404904Y-77876247D02*
X129404904Y-78114342D01*
X129404904Y-78114342D02*
X129357285Y-78209580D01*
X129357285Y-78209580D02*
X129309666Y-78257200D01*
X129309666Y-78257200D02*
X129214428Y-78304819D01*
X129214428Y-78304819D02*
X128928714Y-78304819D01*
X128928714Y-78304819D02*
X128833476Y-78257200D01*
X128833476Y-78257200D02*
X128785857Y-78209580D01*
X127438999Y-58990033D02*
X127205666Y-58656700D01*
X127038999Y-58990033D02*
X127038999Y-58290033D01*
X127038999Y-58290033D02*
X127305666Y-58290033D01*
X127305666Y-58290033D02*
X127372333Y-58323366D01*
X127372333Y-58323366D02*
X127405666Y-58356700D01*
X127405666Y-58356700D02*
X127438999Y-58423366D01*
X127438999Y-58423366D02*
X127438999Y-58523366D01*
X127438999Y-58523366D02*
X127405666Y-58590033D01*
X127405666Y-58590033D02*
X127372333Y-58623366D01*
X127372333Y-58623366D02*
X127305666Y-58656700D01*
X127305666Y-58656700D02*
X127038999Y-58656700D01*
X128038999Y-58523366D02*
X128038999Y-58990033D01*
X127872333Y-58256700D02*
X127705666Y-58756700D01*
X127705666Y-58756700D02*
X128138999Y-58756700D01*
X128705666Y-58523366D02*
X128705666Y-58990033D01*
X128539000Y-58256700D02*
X128372333Y-58756700D01*
X128372333Y-58756700D02*
X128805666Y-58756700D01*
X126300033Y-74110000D02*
X125966700Y-74343333D01*
X126300033Y-74510000D02*
X125600033Y-74510000D01*
X125600033Y-74510000D02*
X125600033Y-74243333D01*
X125600033Y-74243333D02*
X125633366Y-74176667D01*
X125633366Y-74176667D02*
X125666700Y-74143333D01*
X125666700Y-74143333D02*
X125733366Y-74110000D01*
X125733366Y-74110000D02*
X125833366Y-74110000D01*
X125833366Y-74110000D02*
X125900033Y-74143333D01*
X125900033Y-74143333D02*
X125933366Y-74176667D01*
X125933366Y-74176667D02*
X125966700Y-74243333D01*
X125966700Y-74243333D02*
X125966700Y-74510000D01*
X125833366Y-73510000D02*
X126300033Y-73510000D01*
X125566700Y-73676667D02*
X126066700Y-73843333D01*
X126066700Y-73843333D02*
X126066700Y-73410000D01*
X125600033Y-72810000D02*
X125600033Y-73143333D01*
X125600033Y-73143333D02*
X125933366Y-73176666D01*
X125933366Y-73176666D02*
X125900033Y-73143333D01*
X125900033Y-73143333D02*
X125866700Y-73076666D01*
X125866700Y-73076666D02*
X125866700Y-72910000D01*
X125866700Y-72910000D02*
X125900033Y-72843333D01*
X125900033Y-72843333D02*
X125933366Y-72810000D01*
X125933366Y-72810000D02*
X126000033Y-72776666D01*
X126000033Y-72776666D02*
X126166700Y-72776666D01*
X126166700Y-72776666D02*
X126233366Y-72810000D01*
X126233366Y-72810000D02*
X126266700Y-72843333D01*
X126266700Y-72843333D02*
X126300033Y-72910000D01*
X126300033Y-72910000D02*
X126300033Y-73076666D01*
X126300033Y-73076666D02*
X126266700Y-73143333D01*
X126266700Y-73143333D02*
X126233366Y-73176666D01*
X127565999Y-66610033D02*
X127332666Y-66276700D01*
X127165999Y-66610033D02*
X127165999Y-65910033D01*
X127165999Y-65910033D02*
X127432666Y-65910033D01*
X127432666Y-65910033D02*
X127499333Y-65943366D01*
X127499333Y-65943366D02*
X127532666Y-65976700D01*
X127532666Y-65976700D02*
X127565999Y-66043366D01*
X127565999Y-66043366D02*
X127565999Y-66143366D01*
X127565999Y-66143366D02*
X127532666Y-66210033D01*
X127532666Y-66210033D02*
X127499333Y-66243366D01*
X127499333Y-66243366D02*
X127432666Y-66276700D01*
X127432666Y-66276700D02*
X127165999Y-66276700D01*
X128165999Y-66143366D02*
X128165999Y-66610033D01*
X127999333Y-65876700D02*
X127832666Y-66376700D01*
X127832666Y-66376700D02*
X128265999Y-66376700D01*
X128832666Y-65910033D02*
X128699333Y-65910033D01*
X128699333Y-65910033D02*
X128632666Y-65943366D01*
X128632666Y-65943366D02*
X128599333Y-65976700D01*
X128599333Y-65976700D02*
X128532666Y-66076700D01*
X128532666Y-66076700D02*
X128499333Y-66210033D01*
X128499333Y-66210033D02*
X128499333Y-66476700D01*
X128499333Y-66476700D02*
X128532666Y-66543366D01*
X128532666Y-66543366D02*
X128566000Y-66576700D01*
X128566000Y-66576700D02*
X128632666Y-66610033D01*
X128632666Y-66610033D02*
X128766000Y-66610033D01*
X128766000Y-66610033D02*
X128832666Y-66576700D01*
X128832666Y-66576700D02*
X128866000Y-66543366D01*
X128866000Y-66543366D02*
X128899333Y-66476700D01*
X128899333Y-66476700D02*
X128899333Y-66310033D01*
X128899333Y-66310033D02*
X128866000Y-66243366D01*
X128866000Y-66243366D02*
X128832666Y-66210033D01*
X128832666Y-66210033D02*
X128766000Y-66176700D01*
X128766000Y-66176700D02*
X128632666Y-66176700D01*
X128632666Y-66176700D02*
X128566000Y-66210033D01*
X128566000Y-66210033D02*
X128532666Y-66243366D01*
X128532666Y-66243366D02*
X128499333Y-66310033D01*
X84074095Y-53024819D02*
X84074095Y-53834342D01*
X84074095Y-53834342D02*
X84121714Y-53929580D01*
X84121714Y-53929580D02*
X84169333Y-53977200D01*
X84169333Y-53977200D02*
X84264571Y-54024819D01*
X84264571Y-54024819D02*
X84455047Y-54024819D01*
X84455047Y-54024819D02*
X84550285Y-53977200D01*
X84550285Y-53977200D02*
X84597904Y-53929580D01*
X84597904Y-53929580D02*
X84645523Y-53834342D01*
X84645523Y-53834342D02*
X84645523Y-53024819D01*
X85597904Y-53024819D02*
X85121714Y-53024819D01*
X85121714Y-53024819D02*
X85074095Y-53501009D01*
X85074095Y-53501009D02*
X85121714Y-53453390D01*
X85121714Y-53453390D02*
X85216952Y-53405771D01*
X85216952Y-53405771D02*
X85455047Y-53405771D01*
X85455047Y-53405771D02*
X85550285Y-53453390D01*
X85550285Y-53453390D02*
X85597904Y-53501009D01*
X85597904Y-53501009D02*
X85645523Y-53596247D01*
X85645523Y-53596247D02*
X85645523Y-53834342D01*
X85645523Y-53834342D02*
X85597904Y-53929580D01*
X85597904Y-53929580D02*
X85550285Y-53977200D01*
X85550285Y-53977200D02*
X85455047Y-54024819D01*
X85455047Y-54024819D02*
X85216952Y-54024819D01*
X85216952Y-54024819D02*
X85121714Y-53977200D01*
X85121714Y-53977200D02*
X85074095Y-53929580D01*
X118364095Y-66256819D02*
X118364095Y-67066342D01*
X118364095Y-67066342D02*
X118411714Y-67161580D01*
X118411714Y-67161580D02*
X118459333Y-67209200D01*
X118459333Y-67209200D02*
X118554571Y-67256819D01*
X118554571Y-67256819D02*
X118745047Y-67256819D01*
X118745047Y-67256819D02*
X118840285Y-67209200D01*
X118840285Y-67209200D02*
X118887904Y-67161580D01*
X118887904Y-67161580D02*
X118935523Y-67066342D01*
X118935523Y-67066342D02*
X118935523Y-66256819D01*
X119840285Y-66256819D02*
X119649809Y-66256819D01*
X119649809Y-66256819D02*
X119554571Y-66304438D01*
X119554571Y-66304438D02*
X119506952Y-66352057D01*
X119506952Y-66352057D02*
X119411714Y-66494914D01*
X119411714Y-66494914D02*
X119364095Y-66685390D01*
X119364095Y-66685390D02*
X119364095Y-67066342D01*
X119364095Y-67066342D02*
X119411714Y-67161580D01*
X119411714Y-67161580D02*
X119459333Y-67209200D01*
X119459333Y-67209200D02*
X119554571Y-67256819D01*
X119554571Y-67256819D02*
X119745047Y-67256819D01*
X119745047Y-67256819D02*
X119840285Y-67209200D01*
X119840285Y-67209200D02*
X119887904Y-67161580D01*
X119887904Y-67161580D02*
X119935523Y-67066342D01*
X119935523Y-67066342D02*
X119935523Y-66828247D01*
X119935523Y-66828247D02*
X119887904Y-66733009D01*
X119887904Y-66733009D02*
X119840285Y-66685390D01*
X119840285Y-66685390D02*
X119745047Y-66637771D01*
X119745047Y-66637771D02*
X119554571Y-66637771D01*
X119554571Y-66637771D02*
X119459333Y-66685390D01*
X119459333Y-66685390D02*
X119411714Y-66733009D01*
X119411714Y-66733009D02*
X119364095Y-66828247D01*
X117983095Y-52734819D02*
X117983095Y-53544342D01*
X117983095Y-53544342D02*
X118030714Y-53639580D01*
X118030714Y-53639580D02*
X118078333Y-53687200D01*
X118078333Y-53687200D02*
X118173571Y-53734819D01*
X118173571Y-53734819D02*
X118364047Y-53734819D01*
X118364047Y-53734819D02*
X118459285Y-53687200D01*
X118459285Y-53687200D02*
X118506904Y-53639580D01*
X118506904Y-53639580D02*
X118554523Y-53544342D01*
X118554523Y-53544342D02*
X118554523Y-52734819D01*
X118935476Y-52734819D02*
X119602142Y-52734819D01*
X119602142Y-52734819D02*
X119173571Y-53734819D01*
X110267809Y-73005628D02*
X110267809Y-73481819D01*
X109934476Y-72481819D02*
X110267809Y-73005628D01*
X110267809Y-73005628D02*
X110601142Y-72481819D01*
X111458285Y-73481819D02*
X110886857Y-73481819D01*
X111172571Y-73481819D02*
X111172571Y-72481819D01*
X111172571Y-72481819D02*
X111077333Y-72624676D01*
X111077333Y-72624676D02*
X110982095Y-72719914D01*
X110982095Y-72719914D02*
X110886857Y-72767533D01*
X110267809Y-53318628D02*
X110267809Y-53794819D01*
X109934476Y-52794819D02*
X110267809Y-53318628D01*
X110267809Y-53318628D02*
X110601142Y-52794819D01*
X110886857Y-52890057D02*
X110934476Y-52842438D01*
X110934476Y-52842438D02*
X111029714Y-52794819D01*
X111029714Y-52794819D02*
X111267809Y-52794819D01*
X111267809Y-52794819D02*
X111363047Y-52842438D01*
X111363047Y-52842438D02*
X111410666Y-52890057D01*
X111410666Y-52890057D02*
X111458285Y-52985295D01*
X111458285Y-52985295D02*
X111458285Y-53080533D01*
X111458285Y-53080533D02*
X111410666Y-53223390D01*
X111410666Y-53223390D02*
X110839238Y-53794819D01*
X110839238Y-53794819D02*
X111458285Y-53794819D01*
X64653333Y-52446366D02*
X64620000Y-52479700D01*
X64620000Y-52479700D02*
X64520000Y-52513033D01*
X64520000Y-52513033D02*
X64453333Y-52513033D01*
X64453333Y-52513033D02*
X64353333Y-52479700D01*
X64353333Y-52479700D02*
X64286667Y-52413033D01*
X64286667Y-52413033D02*
X64253333Y-52346366D01*
X64253333Y-52346366D02*
X64220000Y-52213033D01*
X64220000Y-52213033D02*
X64220000Y-52113033D01*
X64220000Y-52113033D02*
X64253333Y-51979700D01*
X64253333Y-51979700D02*
X64286667Y-51913033D01*
X64286667Y-51913033D02*
X64353333Y-51846366D01*
X64353333Y-51846366D02*
X64453333Y-51813033D01*
X64453333Y-51813033D02*
X64520000Y-51813033D01*
X64520000Y-51813033D02*
X64620000Y-51846366D01*
X64620000Y-51846366D02*
X64653333Y-51879700D01*
X65053333Y-52113033D02*
X64986667Y-52079700D01*
X64986667Y-52079700D02*
X64953333Y-52046366D01*
X64953333Y-52046366D02*
X64920000Y-51979700D01*
X64920000Y-51979700D02*
X64920000Y-51946366D01*
X64920000Y-51946366D02*
X64953333Y-51879700D01*
X64953333Y-51879700D02*
X64986667Y-51846366D01*
X64986667Y-51846366D02*
X65053333Y-51813033D01*
X65053333Y-51813033D02*
X65186667Y-51813033D01*
X65186667Y-51813033D02*
X65253333Y-51846366D01*
X65253333Y-51846366D02*
X65286667Y-51879700D01*
X65286667Y-51879700D02*
X65320000Y-51946366D01*
X65320000Y-51946366D02*
X65320000Y-51979700D01*
X65320000Y-51979700D02*
X65286667Y-52046366D01*
X65286667Y-52046366D02*
X65253333Y-52079700D01*
X65253333Y-52079700D02*
X65186667Y-52113033D01*
X65186667Y-52113033D02*
X65053333Y-52113033D01*
X65053333Y-52113033D02*
X64986667Y-52146366D01*
X64986667Y-52146366D02*
X64953333Y-52179700D01*
X64953333Y-52179700D02*
X64920000Y-52246366D01*
X64920000Y-52246366D02*
X64920000Y-52379700D01*
X64920000Y-52379700D02*
X64953333Y-52446366D01*
X64953333Y-52446366D02*
X64986667Y-52479700D01*
X64986667Y-52479700D02*
X65053333Y-52513033D01*
X65053333Y-52513033D02*
X65186667Y-52513033D01*
X65186667Y-52513033D02*
X65253333Y-52479700D01*
X65253333Y-52479700D02*
X65286667Y-52446366D01*
X65286667Y-52446366D02*
X65320000Y-52379700D01*
X65320000Y-52379700D02*
X65320000Y-52246366D01*
X65320000Y-52246366D02*
X65286667Y-52179700D01*
X65286667Y-52179700D02*
X65253333Y-52146366D01*
X65253333Y-52146366D02*
X65186667Y-52113033D01*
X69424666Y-49812700D02*
X69524666Y-49846033D01*
X69524666Y-49846033D02*
X69691333Y-49846033D01*
X69691333Y-49846033D02*
X69757999Y-49812700D01*
X69757999Y-49812700D02*
X69791333Y-49779366D01*
X69791333Y-49779366D02*
X69824666Y-49712700D01*
X69824666Y-49712700D02*
X69824666Y-49646033D01*
X69824666Y-49646033D02*
X69791333Y-49579366D01*
X69791333Y-49579366D02*
X69757999Y-49546033D01*
X69757999Y-49546033D02*
X69691333Y-49512700D01*
X69691333Y-49512700D02*
X69557999Y-49479366D01*
X69557999Y-49479366D02*
X69491333Y-49446033D01*
X69491333Y-49446033D02*
X69457999Y-49412700D01*
X69457999Y-49412700D02*
X69424666Y-49346033D01*
X69424666Y-49346033D02*
X69424666Y-49279366D01*
X69424666Y-49279366D02*
X69457999Y-49212700D01*
X69457999Y-49212700D02*
X69491333Y-49179366D01*
X69491333Y-49179366D02*
X69557999Y-49146033D01*
X69557999Y-49146033D02*
X69724666Y-49146033D01*
X69724666Y-49146033D02*
X69824666Y-49179366D01*
X70058000Y-49146033D02*
X70224666Y-49846033D01*
X70224666Y-49846033D02*
X70358000Y-49346033D01*
X70358000Y-49346033D02*
X70491333Y-49846033D01*
X70491333Y-49846033D02*
X70658000Y-49146033D01*
X70891333Y-49212700D02*
X70924666Y-49179366D01*
X70924666Y-49179366D02*
X70991333Y-49146033D01*
X70991333Y-49146033D02*
X71158000Y-49146033D01*
X71158000Y-49146033D02*
X71224666Y-49179366D01*
X71224666Y-49179366D02*
X71258000Y-49212700D01*
X71258000Y-49212700D02*
X71291333Y-49279366D01*
X71291333Y-49279366D02*
X71291333Y-49346033D01*
X71291333Y-49346033D02*
X71258000Y-49446033D01*
X71258000Y-49446033D02*
X70858000Y-49846033D01*
X70858000Y-49846033D02*
X71291333Y-49846033D01*
X101083333Y-69658033D02*
X101083333Y-68958033D01*
X101083333Y-68958033D02*
X101250000Y-68958033D01*
X101250000Y-68958033D02*
X101350000Y-68991366D01*
X101350000Y-68991366D02*
X101416667Y-69058033D01*
X101416667Y-69058033D02*
X101450000Y-69124700D01*
X101450000Y-69124700D02*
X101483333Y-69258033D01*
X101483333Y-69258033D02*
X101483333Y-69358033D01*
X101483333Y-69358033D02*
X101450000Y-69491366D01*
X101450000Y-69491366D02*
X101416667Y-69558033D01*
X101416667Y-69558033D02*
X101350000Y-69624700D01*
X101350000Y-69624700D02*
X101250000Y-69658033D01*
X101250000Y-69658033D02*
X101083333Y-69658033D01*
X102150000Y-69658033D02*
X101750000Y-69658033D01*
X101950000Y-69658033D02*
X101950000Y-68958033D01*
X101950000Y-68958033D02*
X101883333Y-69058033D01*
X101883333Y-69058033D02*
X101816667Y-69124700D01*
X101816667Y-69124700D02*
X101750000Y-69158033D01*
X101083333Y-72960033D02*
X101083333Y-72260033D01*
X101083333Y-72260033D02*
X101250000Y-72260033D01*
X101250000Y-72260033D02*
X101350000Y-72293366D01*
X101350000Y-72293366D02*
X101416667Y-72360033D01*
X101416667Y-72360033D02*
X101450000Y-72426700D01*
X101450000Y-72426700D02*
X101483333Y-72560033D01*
X101483333Y-72560033D02*
X101483333Y-72660033D01*
X101483333Y-72660033D02*
X101450000Y-72793366D01*
X101450000Y-72793366D02*
X101416667Y-72860033D01*
X101416667Y-72860033D02*
X101350000Y-72926700D01*
X101350000Y-72926700D02*
X101250000Y-72960033D01*
X101250000Y-72960033D02*
X101083333Y-72960033D01*
X101750000Y-72326700D02*
X101783333Y-72293366D01*
X101783333Y-72293366D02*
X101850000Y-72260033D01*
X101850000Y-72260033D02*
X102016667Y-72260033D01*
X102016667Y-72260033D02*
X102083333Y-72293366D01*
X102083333Y-72293366D02*
X102116667Y-72326700D01*
X102116667Y-72326700D02*
X102150000Y-72393366D01*
X102150000Y-72393366D02*
X102150000Y-72460033D01*
X102150000Y-72460033D02*
X102116667Y-72560033D01*
X102116667Y-72560033D02*
X101716667Y-72960033D01*
X101716667Y-72960033D02*
X102150000Y-72960033D01*
X105330666Y-64986819D02*
X105330666Y-65701104D01*
X105330666Y-65701104D02*
X105283047Y-65843961D01*
X105283047Y-65843961D02*
X105187809Y-65939200D01*
X105187809Y-65939200D02*
X105044952Y-65986819D01*
X105044952Y-65986819D02*
X104949714Y-65986819D01*
X106283047Y-64986819D02*
X105806857Y-64986819D01*
X105806857Y-64986819D02*
X105759238Y-65463009D01*
X105759238Y-65463009D02*
X105806857Y-65415390D01*
X105806857Y-65415390D02*
X105902095Y-65367771D01*
X105902095Y-65367771D02*
X106140190Y-65367771D01*
X106140190Y-65367771D02*
X106235428Y-65415390D01*
X106235428Y-65415390D02*
X106283047Y-65463009D01*
X106283047Y-65463009D02*
X106330666Y-65558247D01*
X106330666Y-65558247D02*
X106330666Y-65796342D01*
X106330666Y-65796342D02*
X106283047Y-65891580D01*
X106283047Y-65891580D02*
X106235428Y-65939200D01*
X106235428Y-65939200D02*
X106140190Y-65986819D01*
X106140190Y-65986819D02*
X105902095Y-65986819D01*
X105902095Y-65986819D02*
X105806857Y-65939200D01*
X105806857Y-65939200D02*
X105759238Y-65891580D01*
X97410700Y-65598666D02*
X97377366Y-65665333D01*
X97377366Y-65665333D02*
X97310700Y-65732000D01*
X97310700Y-65732000D02*
X97210700Y-65832000D01*
X97210700Y-65832000D02*
X97177366Y-65898666D01*
X97177366Y-65898666D02*
X97177366Y-65965333D01*
X97344033Y-65932000D02*
X97310700Y-65998666D01*
X97310700Y-65998666D02*
X97244033Y-66065333D01*
X97244033Y-66065333D02*
X97110700Y-66098666D01*
X97110700Y-66098666D02*
X96877366Y-66098666D01*
X96877366Y-66098666D02*
X96744033Y-66065333D01*
X96744033Y-66065333D02*
X96677366Y-65998666D01*
X96677366Y-65998666D02*
X96644033Y-65932000D01*
X96644033Y-65932000D02*
X96644033Y-65798666D01*
X96644033Y-65798666D02*
X96677366Y-65732000D01*
X96677366Y-65732000D02*
X96744033Y-65665333D01*
X96744033Y-65665333D02*
X96877366Y-65632000D01*
X96877366Y-65632000D02*
X97110700Y-65632000D01*
X97110700Y-65632000D02*
X97244033Y-65665333D01*
X97244033Y-65665333D02*
X97310700Y-65732000D01*
X97310700Y-65732000D02*
X97344033Y-65798666D01*
X97344033Y-65798666D02*
X97344033Y-65932000D01*
X97344033Y-64965333D02*
X97344033Y-65365333D01*
X97344033Y-65165333D02*
X96644033Y-65165333D01*
X96644033Y-65165333D02*
X96744033Y-65232000D01*
X96744033Y-65232000D02*
X96810700Y-65298667D01*
X96810700Y-65298667D02*
X96844033Y-65365333D01*
X97632700Y-70424666D02*
X97599366Y-70491333D01*
X97599366Y-70491333D02*
X97532700Y-70558000D01*
X97532700Y-70558000D02*
X97432700Y-70658000D01*
X97432700Y-70658000D02*
X97399366Y-70724666D01*
X97399366Y-70724666D02*
X97399366Y-70791333D01*
X97566033Y-70758000D02*
X97532700Y-70824666D01*
X97532700Y-70824666D02*
X97466033Y-70891333D01*
X97466033Y-70891333D02*
X97332700Y-70924666D01*
X97332700Y-70924666D02*
X97099366Y-70924666D01*
X97099366Y-70924666D02*
X96966033Y-70891333D01*
X96966033Y-70891333D02*
X96899366Y-70824666D01*
X96899366Y-70824666D02*
X96866033Y-70758000D01*
X96866033Y-70758000D02*
X96866033Y-70624666D01*
X96866033Y-70624666D02*
X96899366Y-70558000D01*
X96899366Y-70558000D02*
X96966033Y-70491333D01*
X96966033Y-70491333D02*
X97099366Y-70458000D01*
X97099366Y-70458000D02*
X97332700Y-70458000D01*
X97332700Y-70458000D02*
X97466033Y-70491333D01*
X97466033Y-70491333D02*
X97532700Y-70558000D01*
X97532700Y-70558000D02*
X97566033Y-70624666D01*
X97566033Y-70624666D02*
X97566033Y-70758000D01*
X96932700Y-70191333D02*
X96899366Y-70158000D01*
X96899366Y-70158000D02*
X96866033Y-70091333D01*
X96866033Y-70091333D02*
X96866033Y-69924667D01*
X96866033Y-69924667D02*
X96899366Y-69858000D01*
X96899366Y-69858000D02*
X96932700Y-69824667D01*
X96932700Y-69824667D02*
X96999366Y-69791333D01*
X96999366Y-69791333D02*
X97066033Y-69791333D01*
X97066033Y-69791333D02*
X97166033Y-69824667D01*
X97166033Y-69824667D02*
X97566033Y-70224667D01*
X97566033Y-70224667D02*
X97566033Y-69791333D01*
X101037142Y-63672819D02*
X100703809Y-63196628D01*
X100465714Y-63672819D02*
X100465714Y-62672819D01*
X100465714Y-62672819D02*
X100846666Y-62672819D01*
X100846666Y-62672819D02*
X100941904Y-62720438D01*
X100941904Y-62720438D02*
X100989523Y-62768057D01*
X100989523Y-62768057D02*
X101037142Y-62863295D01*
X101037142Y-62863295D02*
X101037142Y-63006152D01*
X101037142Y-63006152D02*
X100989523Y-63101390D01*
X100989523Y-63101390D02*
X100941904Y-63149009D01*
X100941904Y-63149009D02*
X100846666Y-63196628D01*
X100846666Y-63196628D02*
X100465714Y-63196628D01*
X101370476Y-62672819D02*
X101989523Y-62672819D01*
X101989523Y-62672819D02*
X101656190Y-63053771D01*
X101656190Y-63053771D02*
X101799047Y-63053771D01*
X101799047Y-63053771D02*
X101894285Y-63101390D01*
X101894285Y-63101390D02*
X101941904Y-63149009D01*
X101941904Y-63149009D02*
X101989523Y-63244247D01*
X101989523Y-63244247D02*
X101989523Y-63482342D01*
X101989523Y-63482342D02*
X101941904Y-63577580D01*
X101941904Y-63577580D02*
X101894285Y-63625200D01*
X101894285Y-63625200D02*
X101799047Y-63672819D01*
X101799047Y-63672819D02*
X101513333Y-63672819D01*
X101513333Y-63672819D02*
X101418095Y-63625200D01*
X101418095Y-63625200D02*
X101370476Y-63577580D01*
X102608571Y-62672819D02*
X102703809Y-62672819D01*
X102703809Y-62672819D02*
X102799047Y-62720438D01*
X102799047Y-62720438D02*
X102846666Y-62768057D01*
X102846666Y-62768057D02*
X102894285Y-62863295D01*
X102894285Y-62863295D02*
X102941904Y-63053771D01*
X102941904Y-63053771D02*
X102941904Y-63291866D01*
X102941904Y-63291866D02*
X102894285Y-63482342D01*
X102894285Y-63482342D02*
X102846666Y-63577580D01*
X102846666Y-63577580D02*
X102799047Y-63625200D01*
X102799047Y-63625200D02*
X102703809Y-63672819D01*
X102703809Y-63672819D02*
X102608571Y-63672819D01*
X102608571Y-63672819D02*
X102513333Y-63625200D01*
X102513333Y-63625200D02*
X102465714Y-63577580D01*
X102465714Y-63577580D02*
X102418095Y-63482342D01*
X102418095Y-63482342D02*
X102370476Y-63291866D01*
X102370476Y-63291866D02*
X102370476Y-63053771D01*
X102370476Y-63053771D02*
X102418095Y-62863295D01*
X102418095Y-62863295D02*
X102465714Y-62768057D01*
X102465714Y-62768057D02*
X102513333Y-62720438D01*
X102513333Y-62720438D02*
X102608571Y-62672819D01*
X96831999Y-75754033D02*
X96598666Y-75420700D01*
X96431999Y-75754033D02*
X96431999Y-75054033D01*
X96431999Y-75054033D02*
X96698666Y-75054033D01*
X96698666Y-75054033D02*
X96765333Y-75087366D01*
X96765333Y-75087366D02*
X96798666Y-75120700D01*
X96798666Y-75120700D02*
X96831999Y-75187366D01*
X96831999Y-75187366D02*
X96831999Y-75287366D01*
X96831999Y-75287366D02*
X96798666Y-75354033D01*
X96798666Y-75354033D02*
X96765333Y-75387366D01*
X96765333Y-75387366D02*
X96698666Y-75420700D01*
X96698666Y-75420700D02*
X96431999Y-75420700D01*
X97065333Y-75054033D02*
X97498666Y-75054033D01*
X97498666Y-75054033D02*
X97265333Y-75320700D01*
X97265333Y-75320700D02*
X97365333Y-75320700D01*
X97365333Y-75320700D02*
X97431999Y-75354033D01*
X97431999Y-75354033D02*
X97465333Y-75387366D01*
X97465333Y-75387366D02*
X97498666Y-75454033D01*
X97498666Y-75454033D02*
X97498666Y-75620700D01*
X97498666Y-75620700D02*
X97465333Y-75687366D01*
X97465333Y-75687366D02*
X97431999Y-75720700D01*
X97431999Y-75720700D02*
X97365333Y-75754033D01*
X97365333Y-75754033D02*
X97165333Y-75754033D01*
X97165333Y-75754033D02*
X97098666Y-75720700D01*
X97098666Y-75720700D02*
X97065333Y-75687366D01*
X98165333Y-75754033D02*
X97765333Y-75754033D01*
X97965333Y-75754033D02*
X97965333Y-75054033D01*
X97965333Y-75054033D02*
X97898666Y-75154033D01*
X97898666Y-75154033D02*
X97832000Y-75220700D01*
X97832000Y-75220700D02*
X97765333Y-75254033D01*
X113330095Y-79609819D02*
X113330095Y-78609819D01*
X113330095Y-79086009D02*
X113901523Y-79086009D01*
X113901523Y-79609819D02*
X113901523Y-78609819D01*
X114901523Y-79609819D02*
X114330095Y-79609819D01*
X114615809Y-79609819D02*
X114615809Y-78609819D01*
X114615809Y-78609819D02*
X114520571Y-78752676D01*
X114520571Y-78752676D02*
X114425333Y-78847914D01*
X114425333Y-78847914D02*
X114330095Y-78895533D01*
X113030095Y-42609819D02*
X113030095Y-41609819D01*
X113030095Y-42086009D02*
X113601523Y-42086009D01*
X113601523Y-42609819D02*
X113601523Y-41609819D01*
X114030095Y-41705057D02*
X114077714Y-41657438D01*
X114077714Y-41657438D02*
X114172952Y-41609819D01*
X114172952Y-41609819D02*
X114411047Y-41609819D01*
X114411047Y-41609819D02*
X114506285Y-41657438D01*
X114506285Y-41657438D02*
X114553904Y-41705057D01*
X114553904Y-41705057D02*
X114601523Y-41800295D01*
X114601523Y-41800295D02*
X114601523Y-41895533D01*
X114601523Y-41895533D02*
X114553904Y-42038390D01*
X114553904Y-42038390D02*
X113982476Y-42609819D01*
X113982476Y-42609819D02*
X114601523Y-42609819D01*
X79689333Y-49912700D02*
X79622666Y-49879366D01*
X79622666Y-49879366D02*
X79556000Y-49812700D01*
X79556000Y-49812700D02*
X79456000Y-49712700D01*
X79456000Y-49712700D02*
X79389333Y-49679366D01*
X79389333Y-49679366D02*
X79322666Y-49679366D01*
X79356000Y-49846033D02*
X79289333Y-49812700D01*
X79289333Y-49812700D02*
X79222666Y-49746033D01*
X79222666Y-49746033D02*
X79189333Y-49612700D01*
X79189333Y-49612700D02*
X79189333Y-49379366D01*
X79189333Y-49379366D02*
X79222666Y-49246033D01*
X79222666Y-49246033D02*
X79289333Y-49179366D01*
X79289333Y-49179366D02*
X79356000Y-49146033D01*
X79356000Y-49146033D02*
X79489333Y-49146033D01*
X79489333Y-49146033D02*
X79556000Y-49179366D01*
X79556000Y-49179366D02*
X79622666Y-49246033D01*
X79622666Y-49246033D02*
X79656000Y-49379366D01*
X79656000Y-49379366D02*
X79656000Y-49612700D01*
X79656000Y-49612700D02*
X79622666Y-49746033D01*
X79622666Y-49746033D02*
X79556000Y-49812700D01*
X79556000Y-49812700D02*
X79489333Y-49846033D01*
X79489333Y-49846033D02*
X79356000Y-49846033D01*
X79889333Y-49146033D02*
X80355999Y-49146033D01*
X80355999Y-49146033D02*
X80055999Y-49846033D01*
X75625333Y-49912700D02*
X75558666Y-49879366D01*
X75558666Y-49879366D02*
X75492000Y-49812700D01*
X75492000Y-49812700D02*
X75392000Y-49712700D01*
X75392000Y-49712700D02*
X75325333Y-49679366D01*
X75325333Y-49679366D02*
X75258666Y-49679366D01*
X75292000Y-49846033D02*
X75225333Y-49812700D01*
X75225333Y-49812700D02*
X75158666Y-49746033D01*
X75158666Y-49746033D02*
X75125333Y-49612700D01*
X75125333Y-49612700D02*
X75125333Y-49379366D01*
X75125333Y-49379366D02*
X75158666Y-49246033D01*
X75158666Y-49246033D02*
X75225333Y-49179366D01*
X75225333Y-49179366D02*
X75292000Y-49146033D01*
X75292000Y-49146033D02*
X75425333Y-49146033D01*
X75425333Y-49146033D02*
X75492000Y-49179366D01*
X75492000Y-49179366D02*
X75558666Y-49246033D01*
X75558666Y-49246033D02*
X75592000Y-49379366D01*
X75592000Y-49379366D02*
X75592000Y-49612700D01*
X75592000Y-49612700D02*
X75558666Y-49746033D01*
X75558666Y-49746033D02*
X75492000Y-49812700D01*
X75492000Y-49812700D02*
X75425333Y-49846033D01*
X75425333Y-49846033D02*
X75292000Y-49846033D01*
X75991999Y-49446033D02*
X75925333Y-49412700D01*
X75925333Y-49412700D02*
X75891999Y-49379366D01*
X75891999Y-49379366D02*
X75858666Y-49312700D01*
X75858666Y-49312700D02*
X75858666Y-49279366D01*
X75858666Y-49279366D02*
X75891999Y-49212700D01*
X75891999Y-49212700D02*
X75925333Y-49179366D01*
X75925333Y-49179366D02*
X75991999Y-49146033D01*
X75991999Y-49146033D02*
X76125333Y-49146033D01*
X76125333Y-49146033D02*
X76191999Y-49179366D01*
X76191999Y-49179366D02*
X76225333Y-49212700D01*
X76225333Y-49212700D02*
X76258666Y-49279366D01*
X76258666Y-49279366D02*
X76258666Y-49312700D01*
X76258666Y-49312700D02*
X76225333Y-49379366D01*
X76225333Y-49379366D02*
X76191999Y-49412700D01*
X76191999Y-49412700D02*
X76125333Y-49446033D01*
X76125333Y-49446033D02*
X75991999Y-49446033D01*
X75991999Y-49446033D02*
X75925333Y-49479366D01*
X75925333Y-49479366D02*
X75891999Y-49512700D01*
X75891999Y-49512700D02*
X75858666Y-49579366D01*
X75858666Y-49579366D02*
X75858666Y-49712700D01*
X75858666Y-49712700D02*
X75891999Y-49779366D01*
X75891999Y-49779366D02*
X75925333Y-49812700D01*
X75925333Y-49812700D02*
X75991999Y-49846033D01*
X75991999Y-49846033D02*
X76125333Y-49846033D01*
X76125333Y-49846033D02*
X76191999Y-49812700D01*
X76191999Y-49812700D02*
X76225333Y-49779366D01*
X76225333Y-49779366D02*
X76258666Y-49712700D01*
X76258666Y-49712700D02*
X76258666Y-49579366D01*
X76258666Y-49579366D02*
X76225333Y-49512700D01*
X76225333Y-49512700D02*
X76191999Y-49479366D01*
X76191999Y-49479366D02*
X76125333Y-49446033D01*
X79550433Y-54721833D02*
X79317100Y-54388500D01*
X79150433Y-54721833D02*
X79150433Y-54021833D01*
X79150433Y-54021833D02*
X79417100Y-54021833D01*
X79417100Y-54021833D02*
X79483767Y-54055166D01*
X79483767Y-54055166D02*
X79517100Y-54088500D01*
X79517100Y-54088500D02*
X79550433Y-54155166D01*
X79550433Y-54155166D02*
X79550433Y-54255166D01*
X79550433Y-54255166D02*
X79517100Y-54321833D01*
X79517100Y-54321833D02*
X79483767Y-54355166D01*
X79483767Y-54355166D02*
X79417100Y-54388500D01*
X79417100Y-54388500D02*
X79150433Y-54388500D01*
X79783767Y-54021833D02*
X80217100Y-54021833D01*
X80217100Y-54021833D02*
X79983767Y-54288500D01*
X79983767Y-54288500D02*
X80083767Y-54288500D01*
X80083767Y-54288500D02*
X80150433Y-54321833D01*
X80150433Y-54321833D02*
X80183767Y-54355166D01*
X80183767Y-54355166D02*
X80217100Y-54421833D01*
X80217100Y-54421833D02*
X80217100Y-54588500D01*
X80217100Y-54588500D02*
X80183767Y-54655166D01*
X80183767Y-54655166D02*
X80150433Y-54688500D01*
X80150433Y-54688500D02*
X80083767Y-54721833D01*
X80083767Y-54721833D02*
X79883767Y-54721833D01*
X79883767Y-54721833D02*
X79817100Y-54688500D01*
X79817100Y-54688500D02*
X79783767Y-54655166D01*
X75254699Y-54672033D02*
X75021366Y-54338700D01*
X74854699Y-54672033D02*
X74854699Y-53972033D01*
X74854699Y-53972033D02*
X75121366Y-53972033D01*
X75121366Y-53972033D02*
X75188033Y-54005366D01*
X75188033Y-54005366D02*
X75221366Y-54038700D01*
X75221366Y-54038700D02*
X75254699Y-54105366D01*
X75254699Y-54105366D02*
X75254699Y-54205366D01*
X75254699Y-54205366D02*
X75221366Y-54272033D01*
X75221366Y-54272033D02*
X75188033Y-54305366D01*
X75188033Y-54305366D02*
X75121366Y-54338700D01*
X75121366Y-54338700D02*
X74854699Y-54338700D01*
X75921366Y-54672033D02*
X75521366Y-54672033D01*
X75721366Y-54672033D02*
X75721366Y-53972033D01*
X75721366Y-53972033D02*
X75654699Y-54072033D01*
X75654699Y-54072033D02*
X75588033Y-54138700D01*
X75588033Y-54138700D02*
X75521366Y-54172033D01*
X76521366Y-54205366D02*
X76521366Y-54672033D01*
X76354700Y-53938700D02*
X76188033Y-54438700D01*
X76188033Y-54438700D02*
X76621366Y-54438700D01*
X54097366Y-79952000D02*
X54130700Y-79985333D01*
X54130700Y-79985333D02*
X54164033Y-80085333D01*
X54164033Y-80085333D02*
X54164033Y-80152000D01*
X54164033Y-80152000D02*
X54130700Y-80252000D01*
X54130700Y-80252000D02*
X54064033Y-80318667D01*
X54064033Y-80318667D02*
X53997366Y-80352000D01*
X53997366Y-80352000D02*
X53864033Y-80385333D01*
X53864033Y-80385333D02*
X53764033Y-80385333D01*
X53764033Y-80385333D02*
X53630700Y-80352000D01*
X53630700Y-80352000D02*
X53564033Y-80318667D01*
X53564033Y-80318667D02*
X53497366Y-80252000D01*
X53497366Y-80252000D02*
X53464033Y-80152000D01*
X53464033Y-80152000D02*
X53464033Y-80085333D01*
X53464033Y-80085333D02*
X53497366Y-79985333D01*
X53497366Y-79985333D02*
X53530700Y-79952000D01*
X53464033Y-79718667D02*
X53464033Y-79285333D01*
X53464033Y-79285333D02*
X53730700Y-79518667D01*
X53730700Y-79518667D02*
X53730700Y-79418667D01*
X53730700Y-79418667D02*
X53764033Y-79352000D01*
X53764033Y-79352000D02*
X53797366Y-79318667D01*
X53797366Y-79318667D02*
X53864033Y-79285333D01*
X53864033Y-79285333D02*
X54030700Y-79285333D01*
X54030700Y-79285333D02*
X54097366Y-79318667D01*
X54097366Y-79318667D02*
X54130700Y-79352000D01*
X54130700Y-79352000D02*
X54164033Y-79418667D01*
X54164033Y-79418667D02*
X54164033Y-79618667D01*
X54164033Y-79618667D02*
X54130700Y-79685333D01*
X54130700Y-79685333D02*
X54097366Y-79718667D01*
X53697366Y-78685333D02*
X54164033Y-78685333D01*
X53430700Y-78852000D02*
X53930700Y-79018666D01*
X53930700Y-79018666D02*
X53930700Y-78585333D01*
X98360033Y-61410000D02*
X98026700Y-61643333D01*
X98360033Y-61810000D02*
X97660033Y-61810000D01*
X97660033Y-61810000D02*
X97660033Y-61543333D01*
X97660033Y-61543333D02*
X97693366Y-61476667D01*
X97693366Y-61476667D02*
X97726700Y-61443333D01*
X97726700Y-61443333D02*
X97793366Y-61410000D01*
X97793366Y-61410000D02*
X97893366Y-61410000D01*
X97893366Y-61410000D02*
X97960033Y-61443333D01*
X97960033Y-61443333D02*
X97993366Y-61476667D01*
X97993366Y-61476667D02*
X98026700Y-61543333D01*
X98026700Y-61543333D02*
X98026700Y-61810000D01*
X97893366Y-60810000D02*
X98360033Y-60810000D01*
X97626700Y-60976667D02*
X98126700Y-61143333D01*
X98126700Y-61143333D02*
X98126700Y-60710000D01*
X97660033Y-60510000D02*
X97660033Y-60043333D01*
X97660033Y-60043333D02*
X98360033Y-60343333D01*
X93529999Y-63816033D02*
X93296666Y-63482700D01*
X93129999Y-63816033D02*
X93129999Y-63116033D01*
X93129999Y-63116033D02*
X93396666Y-63116033D01*
X93396666Y-63116033D02*
X93463333Y-63149366D01*
X93463333Y-63149366D02*
X93496666Y-63182700D01*
X93496666Y-63182700D02*
X93529999Y-63249366D01*
X93529999Y-63249366D02*
X93529999Y-63349366D01*
X93529999Y-63349366D02*
X93496666Y-63416033D01*
X93496666Y-63416033D02*
X93463333Y-63449366D01*
X93463333Y-63449366D02*
X93396666Y-63482700D01*
X93396666Y-63482700D02*
X93129999Y-63482700D01*
X94129999Y-63349366D02*
X94129999Y-63816033D01*
X93963333Y-63082700D02*
X93796666Y-63582700D01*
X93796666Y-63582700D02*
X94229999Y-63582700D01*
X94596666Y-63416033D02*
X94530000Y-63382700D01*
X94530000Y-63382700D02*
X94496666Y-63349366D01*
X94496666Y-63349366D02*
X94463333Y-63282700D01*
X94463333Y-63282700D02*
X94463333Y-63249366D01*
X94463333Y-63249366D02*
X94496666Y-63182700D01*
X94496666Y-63182700D02*
X94530000Y-63149366D01*
X94530000Y-63149366D02*
X94596666Y-63116033D01*
X94596666Y-63116033D02*
X94730000Y-63116033D01*
X94730000Y-63116033D02*
X94796666Y-63149366D01*
X94796666Y-63149366D02*
X94830000Y-63182700D01*
X94830000Y-63182700D02*
X94863333Y-63249366D01*
X94863333Y-63249366D02*
X94863333Y-63282700D01*
X94863333Y-63282700D02*
X94830000Y-63349366D01*
X94830000Y-63349366D02*
X94796666Y-63382700D01*
X94796666Y-63382700D02*
X94730000Y-63416033D01*
X94730000Y-63416033D02*
X94596666Y-63416033D01*
X94596666Y-63416033D02*
X94530000Y-63449366D01*
X94530000Y-63449366D02*
X94496666Y-63482700D01*
X94496666Y-63482700D02*
X94463333Y-63549366D01*
X94463333Y-63549366D02*
X94463333Y-63682700D01*
X94463333Y-63682700D02*
X94496666Y-63749366D01*
X94496666Y-63749366D02*
X94530000Y-63782700D01*
X94530000Y-63782700D02*
X94596666Y-63816033D01*
X94596666Y-63816033D02*
X94730000Y-63816033D01*
X94730000Y-63816033D02*
X94796666Y-63782700D01*
X94796666Y-63782700D02*
X94830000Y-63749366D01*
X94830000Y-63749366D02*
X94863333Y-63682700D01*
X94863333Y-63682700D02*
X94863333Y-63549366D01*
X94863333Y-63549366D02*
X94830000Y-63482700D01*
X94830000Y-63482700D02*
X94796666Y-63449366D01*
X94796666Y-63449366D02*
X94730000Y-63416033D01*
X54093333Y-50100033D02*
X54093333Y-49400033D01*
X54093333Y-49400033D02*
X54260000Y-49400033D01*
X54260000Y-49400033D02*
X54360000Y-49433366D01*
X54360000Y-49433366D02*
X54426667Y-49500033D01*
X54426667Y-49500033D02*
X54460000Y-49566700D01*
X54460000Y-49566700D02*
X54493333Y-49700033D01*
X54493333Y-49700033D02*
X54493333Y-49800033D01*
X54493333Y-49800033D02*
X54460000Y-49933366D01*
X54460000Y-49933366D02*
X54426667Y-50000033D01*
X54426667Y-50000033D02*
X54360000Y-50066700D01*
X54360000Y-50066700D02*
X54260000Y-50100033D01*
X54260000Y-50100033D02*
X54093333Y-50100033D01*
X54726667Y-49400033D02*
X55160000Y-49400033D01*
X55160000Y-49400033D02*
X54926667Y-49666700D01*
X54926667Y-49666700D02*
X55026667Y-49666700D01*
X55026667Y-49666700D02*
X55093333Y-49700033D01*
X55093333Y-49700033D02*
X55126667Y-49733366D01*
X55126667Y-49733366D02*
X55160000Y-49800033D01*
X55160000Y-49800033D02*
X55160000Y-49966700D01*
X55160000Y-49966700D02*
X55126667Y-50033366D01*
X55126667Y-50033366D02*
X55093333Y-50066700D01*
X55093333Y-50066700D02*
X55026667Y-50100033D01*
X55026667Y-50100033D02*
X54826667Y-50100033D01*
X54826667Y-50100033D02*
X54760000Y-50066700D01*
X54760000Y-50066700D02*
X54726667Y-50033366D01*
X56887333Y-50100033D02*
X56887333Y-49400033D01*
X56887333Y-49400033D02*
X57054000Y-49400033D01*
X57054000Y-49400033D02*
X57154000Y-49433366D01*
X57154000Y-49433366D02*
X57220667Y-49500033D01*
X57220667Y-49500033D02*
X57254000Y-49566700D01*
X57254000Y-49566700D02*
X57287333Y-49700033D01*
X57287333Y-49700033D02*
X57287333Y-49800033D01*
X57287333Y-49800033D02*
X57254000Y-49933366D01*
X57254000Y-49933366D02*
X57220667Y-50000033D01*
X57220667Y-50000033D02*
X57154000Y-50066700D01*
X57154000Y-50066700D02*
X57054000Y-50100033D01*
X57054000Y-50100033D02*
X56887333Y-50100033D01*
X57887333Y-49633366D02*
X57887333Y-50100033D01*
X57720667Y-49366700D02*
X57554000Y-49866700D01*
X57554000Y-49866700D02*
X57987333Y-49866700D01*
X90740033Y-61537000D02*
X90406700Y-61770333D01*
X90740033Y-61937000D02*
X90040033Y-61937000D01*
X90040033Y-61937000D02*
X90040033Y-61670333D01*
X90040033Y-61670333D02*
X90073366Y-61603667D01*
X90073366Y-61603667D02*
X90106700Y-61570333D01*
X90106700Y-61570333D02*
X90173366Y-61537000D01*
X90173366Y-61537000D02*
X90273366Y-61537000D01*
X90273366Y-61537000D02*
X90340033Y-61570333D01*
X90340033Y-61570333D02*
X90373366Y-61603667D01*
X90373366Y-61603667D02*
X90406700Y-61670333D01*
X90406700Y-61670333D02*
X90406700Y-61937000D01*
X90273366Y-60937000D02*
X90740033Y-60937000D01*
X90006700Y-61103667D02*
X90506700Y-61270333D01*
X90506700Y-61270333D02*
X90506700Y-60837000D01*
X90740033Y-60537000D02*
X90740033Y-60403666D01*
X90740033Y-60403666D02*
X90706700Y-60337000D01*
X90706700Y-60337000D02*
X90673366Y-60303666D01*
X90673366Y-60303666D02*
X90573366Y-60237000D01*
X90573366Y-60237000D02*
X90440033Y-60203666D01*
X90440033Y-60203666D02*
X90173366Y-60203666D01*
X90173366Y-60203666D02*
X90106700Y-60237000D01*
X90106700Y-60237000D02*
X90073366Y-60270333D01*
X90073366Y-60270333D02*
X90040033Y-60337000D01*
X90040033Y-60337000D02*
X90040033Y-60470333D01*
X90040033Y-60470333D02*
X90073366Y-60537000D01*
X90073366Y-60537000D02*
X90106700Y-60570333D01*
X90106700Y-60570333D02*
X90173366Y-60603666D01*
X90173366Y-60603666D02*
X90340033Y-60603666D01*
X90340033Y-60603666D02*
X90406700Y-60570333D01*
X90406700Y-60570333D02*
X90440033Y-60537000D01*
X90440033Y-60537000D02*
X90473366Y-60470333D01*
X90473366Y-60470333D02*
X90473366Y-60337000D01*
X90473366Y-60337000D02*
X90440033Y-60270333D01*
X90440033Y-60270333D02*
X90406700Y-60237000D01*
X90406700Y-60237000D02*
X90340033Y-60203666D01*
D14*
X61489000Y-76613936D02*
X61489000Y-77818064D01*
X59669000Y-76613936D02*
X59669000Y-77818064D01*
X88018252Y-53440000D02*
X87495748Y-53440000D01*
X88018252Y-51970000D02*
X87495748Y-51970000D01*
X105798252Y-51154000D02*
X105275748Y-51154000D01*
X105798252Y-49684000D02*
X105275748Y-49684000D01*
X105123064Y-48535000D02*
X103918936Y-48535000D01*
X105123064Y-46715000D02*
X103918936Y-46715000D01*
X116212252Y-51843000D02*
X115689748Y-51843000D01*
X116212252Y-53313000D02*
X115689748Y-53313000D01*
X56869000Y-76842252D02*
X56869000Y-76319748D01*
X55399000Y-76842252D02*
X55399000Y-76319748D01*
X103278000Y-80637748D02*
X103278000Y-81160252D01*
X104748000Y-80637748D02*
X104748000Y-81160252D01*
X100738000Y-80637748D02*
X100738000Y-81160252D01*
X102208000Y-80637748D02*
X102208000Y-81160252D01*
X98198000Y-80637748D02*
X98198000Y-81160252D01*
X99668000Y-80637748D02*
X99668000Y-81160252D01*
X95404000Y-80637748D02*
X95404000Y-81160252D01*
X96874000Y-80637748D02*
X96874000Y-81160252D01*
X94588000Y-80637748D02*
X94588000Y-81160252D01*
X93118000Y-80637748D02*
X93118000Y-81160252D01*
X92302000Y-80637748D02*
X92302000Y-81160252D01*
X90832000Y-80637748D02*
X90832000Y-81160252D01*
X79529000Y-44546748D02*
X79529000Y-45069252D01*
X80999000Y-44546748D02*
X80999000Y-45069252D01*
X51843000Y-87637252D02*
X51843000Y-87114748D01*
X53313000Y-87637252D02*
X53313000Y-87114748D01*
X55599000Y-87637252D02*
X55599000Y-87114748D01*
X54129000Y-87637252D02*
X54129000Y-87114748D01*
X60425000Y-87637252D02*
X60425000Y-87114748D01*
X58955000Y-87637252D02*
X58955000Y-87114748D01*
X58139000Y-87637252D02*
X58139000Y-87114748D01*
X56669000Y-87637252D02*
X56669000Y-87114748D01*
X46001000Y-87688052D02*
X46001000Y-87165548D01*
X47471000Y-87688052D02*
X47471000Y-87165548D01*
X68266000Y-93278000D02*
X68266000Y-90678000D01*
X81086000Y-93278000D02*
X81086000Y-88078000D01*
X68266000Y-93278000D02*
X81086000Y-93278000D01*
X70866000Y-90678000D02*
X70866000Y-88078000D01*
X70866000Y-88078000D02*
X81086000Y-88078000D01*
X68266000Y-90678000D02*
X70866000Y-90678000D01*
X68266000Y-89408000D02*
X68266000Y-88078000D01*
X68266000Y-88078000D02*
X69596000Y-88078000D01*
X108899000Y-90484000D02*
X107569000Y-90484000D01*
X90999000Y-87824000D02*
X90999000Y-90484000D01*
X106299000Y-90484000D02*
X90999000Y-90484000D01*
X108899000Y-89154000D02*
X108899000Y-90484000D01*
X106299000Y-87824000D02*
X90999000Y-87824000D01*
X106299000Y-87824000D02*
X106299000Y-90484000D01*
X68834000Y-81982000D02*
X84134000Y-81982000D01*
X66234000Y-83312000D02*
X66234000Y-81982000D01*
X68834000Y-84642000D02*
X84134000Y-84642000D01*
X66234000Y-81982000D02*
X67564000Y-81982000D01*
X68834000Y-84642000D02*
X68834000Y-81982000D01*
X84134000Y-84642000D02*
X84134000Y-81982000D01*
X66234000Y-40640000D02*
X66234000Y-39310000D01*
X66234000Y-39310000D02*
X67564000Y-39310000D01*
X68834000Y-41970000D02*
X84134000Y-41970000D01*
X68834000Y-41970000D02*
X68834000Y-39310000D01*
X84134000Y-41970000D02*
X84134000Y-39310000D01*
X68834000Y-39310000D02*
X84134000Y-39310000D01*
X46168000Y-81982000D02*
X46168000Y-84642000D01*
X61468000Y-84642000D02*
X46168000Y-84642000D01*
X64068000Y-83312000D02*
X64068000Y-84642000D01*
X64068000Y-84642000D02*
X62738000Y-84642000D01*
X61468000Y-81982000D02*
X61468000Y-84642000D01*
X61468000Y-81982000D02*
X46168000Y-81982000D01*
X86086000Y-38132000D02*
X96206000Y-38132000D01*
X86086000Y-33572000D02*
X86086000Y-44192000D01*
X92538000Y-41457000D02*
X92514000Y-41482000D01*
X85846000Y-44432000D02*
X87846000Y-44432000D01*
X86086000Y-42132000D02*
X96206000Y-42132000D01*
X85846000Y-42192000D02*
X85846000Y-44432000D01*
X94996000Y-38999000D02*
X94947000Y-39049000D01*
X94779000Y-38782000D02*
X94754000Y-38806000D01*
X86086000Y-37132000D02*
X96206000Y-37132000D01*
X86086000Y-33572000D02*
X96206000Y-33572000D01*
X96206000Y-33572000D02*
X96206000Y-44192000D01*
X92346000Y-41215000D02*
X92296000Y-41265000D01*
X86086000Y-44192000D02*
X96206000Y-44192000D01*
X90285000Y-40828000D02*
G75*
G03*
X90285205Y-39436484I-1639000J696000D01*
G01*
X87007001Y-39436000D02*
G75*
G03*
X87006795Y-40827516I1638994J-696001D01*
G01*
X88646000Y-41912000D02*
G75*
G03*
X89341501Y-41770499I0J1780002D01*
G01*
X87950000Y-41770999D02*
G75*
G03*
X88676814Y-41912389I695998J1638985D01*
G01*
X89342000Y-38493001D02*
G75*
G03*
X87950484Y-38492795I-696001J-1638994D01*
G01*
X95426000Y-40132000D02*
G75*
G03*
X95426000Y-40132000I-1780000J0D01*
G01*
X57583000Y-76969252D02*
X57583000Y-76446748D01*
X59003000Y-76969252D02*
X59003000Y-76446748D01*
X109862252Y-93166000D02*
X109339748Y-93166000D01*
X109862252Y-91746000D02*
X109339748Y-91746000D01*
X105275748Y-93166000D02*
X105798252Y-93166000D01*
X105275748Y-91746000D02*
X105798252Y-91746000D01*
X101211748Y-91746000D02*
X101734252Y-91746000D01*
X101211748Y-93166000D02*
X101734252Y-93166000D01*
X97147748Y-91746000D02*
X97670252Y-91746000D01*
X97147748Y-93166000D02*
X97670252Y-93166000D01*
X93083748Y-91746000D02*
X93606252Y-91746000D01*
X93083748Y-93166000D02*
X93606252Y-93166000D01*
X89028748Y-93166000D02*
X89551252Y-93166000D01*
X89028748Y-91746000D02*
X89551252Y-91746000D01*
X104723000Y-84701748D02*
X104723000Y-85224252D01*
X103303000Y-84701748D02*
X103303000Y-85224252D01*
X100763000Y-84701748D02*
X100763000Y-85224252D01*
X102183000Y-84701748D02*
X102183000Y-85224252D01*
X98223000Y-84701748D02*
X98223000Y-85224252D01*
X99643000Y-84701748D02*
X99643000Y-85224252D01*
X95429000Y-84701748D02*
X95429000Y-85224252D01*
X96849000Y-84701748D02*
X96849000Y-85224252D01*
X94563000Y-84701748D02*
X94563000Y-85224252D01*
X93143000Y-84701748D02*
X93143000Y-85224252D01*
X92277000Y-84701748D02*
X92277000Y-85224252D01*
X90857000Y-84701748D02*
X90857000Y-85224252D01*
X71934000Y-45219252D02*
X71934000Y-44696748D01*
X73354000Y-45219252D02*
X73354000Y-44696748D01*
X74474000Y-45219252D02*
X74474000Y-44696748D01*
X75894000Y-45219252D02*
X75894000Y-44696748D01*
X77014000Y-45219252D02*
X77014000Y-44696748D01*
X78434000Y-45219252D02*
X78434000Y-44696748D01*
X93098252Y-55424000D02*
X92575748Y-55424000D01*
X93098252Y-56844000D02*
X92575748Y-56844000D01*
X93098252Y-53265000D02*
X92575748Y-53265000D01*
X93098252Y-54685000D02*
X92575748Y-54685000D01*
X104780000Y-45574000D02*
X104780000Y-44314000D01*
X101020000Y-45574000D02*
X104780000Y-45574000D01*
X104780000Y-38754000D02*
X104780000Y-40014000D01*
X98770000Y-38754000D02*
X104780000Y-38754000D01*
X54944000Y-73636000D02*
X54944000Y-74016000D01*
X48524000Y-73636000D02*
X48524000Y-55396000D01*
X73489000Y-55396000D02*
X74269000Y-55396000D01*
X74269000Y-73636000D02*
X74269000Y-72636000D01*
X73489000Y-73636000D02*
X74269000Y-73636000D01*
X74269000Y-55396000D02*
X74269000Y-56396000D01*
X48524000Y-73636000D02*
X54944000Y-73636000D01*
X48524000Y-55396000D02*
X54944000Y-55396000D01*
X82103000Y-74689000D02*
X82503000Y-74689000D01*
X92903000Y-74689000D02*
X92903000Y-66789000D01*
X82103000Y-74689000D02*
X82103000Y-66789000D01*
X82503000Y-74689000D02*
X82503000Y-76089000D01*
X71366748Y-51487000D02*
X71889252Y-51487000D01*
X71366748Y-52907000D02*
X71889252Y-52907000D01*
X64700000Y-75763000D02*
X64700000Y-79563000D01*
X62300000Y-79563000D02*
X62300000Y-75763000D01*
X130139000Y-41097000D02*
X130139000Y-45347000D01*
X127839000Y-43747000D02*
X127839000Y-46637000D01*
X119039000Y-45347000D02*
X119039000Y-43747000D01*
X118019000Y-45347000D02*
X119039000Y-45347000D01*
X129119000Y-45347000D02*
X129119000Y-43747000D01*
X128419000Y-37527000D02*
X119739000Y-37527000D01*
X129119000Y-43747000D02*
X127839000Y-43747000D01*
X119039000Y-43747000D02*
X120319000Y-43747000D01*
X130139000Y-45347000D02*
X129119000Y-45347000D01*
X118019000Y-41097000D02*
X118019000Y-45347000D01*
X68826748Y-42953000D02*
X69349252Y-42953000D01*
X68826748Y-44423000D02*
X69349252Y-44423000D01*
X51233000Y-38857422D02*
X51233000Y-39374578D01*
X52653000Y-38857422D02*
X52653000Y-39374578D01*
X53840000Y-39068000D02*
X53840000Y-37363000D01*
X63000000Y-42998000D02*
X63000000Y-41078000D01*
X63000000Y-37363000D02*
X63000000Y-39068000D01*
X53840000Y-41078000D02*
X53840000Y-42998000D01*
X53840000Y-37363000D02*
X63000000Y-37363000D01*
X61568064Y-46382000D02*
X61113936Y-46382000D01*
X61568064Y-47852000D02*
X61113936Y-47852000D01*
X65809864Y-42953000D02*
X65355736Y-42953000D01*
X65809864Y-44423000D02*
X65355736Y-44423000D01*
X58193000Y-52043064D02*
X58193000Y-51588936D01*
X59663000Y-52043064D02*
X59663000Y-51588936D01*
X61949000Y-52043064D02*
X61949000Y-51588936D01*
X60479000Y-52043064D02*
X60479000Y-51588936D01*
X48621000Y-43618000D02*
X49346000Y-43618000D01*
X44126000Y-48838000D02*
X44126000Y-48113000D01*
X48621000Y-48838000D02*
X49346000Y-48838000D01*
X44851000Y-48838000D02*
X44126000Y-48838000D01*
X44851000Y-43618000D02*
X44126000Y-43618000D01*
X49346000Y-43618000D02*
X49346000Y-44343000D01*
X44126000Y-43618000D02*
X44126000Y-44343000D01*
X87789652Y-90143000D02*
X87267148Y-90143000D01*
X87789652Y-88673000D02*
X87267148Y-88673000D01*
X44858000Y-40632748D02*
X44858000Y-41155252D01*
X46328000Y-40632748D02*
X46328000Y-41155252D01*
X49049000Y-40632748D02*
X49049000Y-41155252D01*
X50519000Y-40632748D02*
X50519000Y-41155252D01*
X50700000Y-47998748D02*
X50700000Y-48521252D01*
X52170000Y-47998748D02*
X52170000Y-48521252D01*
X116212252Y-65178000D02*
X115689748Y-65178000D01*
X116212252Y-66648000D02*
X115689748Y-66648000D01*
X79509252Y-70258000D02*
X78986748Y-70258000D01*
X79509252Y-71728000D02*
X78986748Y-71728000D01*
X123436748Y-81307000D02*
X123959252Y-81307000D01*
X123436748Y-82777000D02*
X123959252Y-82777000D01*
X123309748Y-71274000D02*
X123832252Y-71274000D01*
X123309748Y-72744000D02*
X123832252Y-72744000D01*
X127754748Y-82269000D02*
X128277252Y-82269000D01*
X127754748Y-80799000D02*
X128277252Y-80799000D01*
X127627748Y-50192000D02*
X128150252Y-50192000D01*
X127627748Y-51662000D02*
X128150252Y-51662000D01*
X127754748Y-71855000D02*
X128277252Y-71855000D01*
X127754748Y-70385000D02*
X128277252Y-70385000D01*
X127754748Y-61749000D02*
X128277252Y-61749000D01*
X127754748Y-63219000D02*
X128277252Y-63219000D01*
X39691000Y-79756000D02*
X39691000Y-46676000D01*
X42351000Y-79756000D02*
X42351000Y-46676000D01*
X42351000Y-79756000D02*
X39691000Y-79756000D01*
X39691000Y-82356000D02*
X39691000Y-81026000D01*
X41021000Y-82356000D02*
X39691000Y-82356000D01*
X42351000Y-46676000D02*
X39691000Y-46676000D01*
X132566000Y-87500000D02*
X136166000Y-87500000D01*
X138046000Y-82020000D02*
X138046000Y-85620000D01*
X132566000Y-80140000D02*
X136166000Y-80140000D01*
X130686000Y-82020000D02*
X130686000Y-85620000D01*
X132439000Y-48771000D02*
X136039000Y-48771000D01*
X130559000Y-50651000D02*
X130559000Y-54251000D01*
X137919000Y-50651000D02*
X137919000Y-54251000D01*
X132439000Y-56131000D02*
X136039000Y-56131000D01*
X138046000Y-72622000D02*
X138046000Y-76222000D01*
X130686000Y-72622000D02*
X130686000Y-76222000D01*
X132566000Y-70742000D02*
X136166000Y-70742000D01*
X132566000Y-78102000D02*
X136166000Y-78102000D01*
X132566000Y-65021000D02*
X136166000Y-65021000D01*
X130686000Y-59541000D02*
X130686000Y-63141000D01*
X132566000Y-57661000D02*
X136166000Y-57661000D01*
X138046000Y-59541000D02*
X138046000Y-63141000D01*
X125405000Y-84457000D02*
X124475000Y-84457000D01*
X125405000Y-84457000D02*
X125405000Y-85917000D01*
X122245000Y-84457000D02*
X123175000Y-84457000D01*
X122245000Y-84457000D02*
X122245000Y-86617000D01*
X123065000Y-55301000D02*
X123065000Y-54371000D01*
X123065000Y-55301000D02*
X125225000Y-55301000D01*
X123065000Y-52141000D02*
X123065000Y-53071000D01*
X123065000Y-52141000D02*
X124525000Y-52141000D01*
X122118000Y-74805000D02*
X123048000Y-74805000D01*
X125278000Y-74805000D02*
X125278000Y-76265000D01*
X122118000Y-74805000D02*
X122118000Y-76965000D01*
X125278000Y-74805000D02*
X124348000Y-74805000D01*
X123065000Y-59380000D02*
X124525000Y-59380000D01*
X123065000Y-62540000D02*
X125225000Y-62540000D01*
X123065000Y-59380000D02*
X123065000Y-60310000D01*
X123065000Y-62540000D02*
X123065000Y-61610000D01*
X110590064Y-62838000D02*
X110135936Y-62838000D01*
X110590064Y-61368000D02*
X110135936Y-61368000D01*
X110590064Y-63654000D02*
X110135936Y-63654000D01*
X110590064Y-65124000D02*
X110135936Y-65124000D01*
X79020936Y-66648000D02*
X79475064Y-66648000D01*
X79020936Y-65178000D02*
X79475064Y-65178000D01*
X48360000Y-40666936D02*
X48360000Y-41121064D01*
X46890000Y-40666936D02*
X46890000Y-41121064D01*
X79020936Y-67718000D02*
X79475064Y-67718000D01*
X79020936Y-69188000D02*
X79475064Y-69188000D01*
X118898936Y-49884000D02*
X119353064Y-49884000D01*
X118898936Y-48414000D02*
X119353064Y-48414000D01*
X123978936Y-48414000D02*
X124433064Y-48414000D01*
X123978936Y-49884000D02*
X124433064Y-49884000D01*
X127788936Y-85498000D02*
X128243064Y-85498000D01*
X127788936Y-86968000D02*
X128243064Y-86968000D01*
X127534936Y-52605000D02*
X127989064Y-52605000D01*
X127534936Y-54075000D02*
X127989064Y-54075000D01*
X127788936Y-83212000D02*
X128243064Y-83212000D01*
X127788936Y-84682000D02*
X128243064Y-84682000D01*
X127989064Y-56488000D02*
X127534936Y-56488000D01*
X127989064Y-55018000D02*
X127534936Y-55018000D01*
X123925064Y-89254000D02*
X123470936Y-89254000D01*
X123925064Y-87784000D02*
X123470936Y-87784000D01*
X124052064Y-56034000D02*
X123597936Y-56034000D01*
X124052064Y-57504000D02*
X123597936Y-57504000D01*
X123798064Y-79602000D02*
X123343936Y-79602000D01*
X123798064Y-78132000D02*
X123343936Y-78132000D01*
X124052064Y-64870000D02*
X123597936Y-64870000D01*
X124052064Y-63400000D02*
X123597936Y-63400000D01*
X128370064Y-76935000D02*
X127915936Y-76935000D01*
X128370064Y-75465000D02*
X127915936Y-75465000D01*
X128243064Y-60933000D02*
X127788936Y-60933000D01*
X128243064Y-59463000D02*
X127788936Y-59463000D01*
X127788936Y-74395000D02*
X128243064Y-74395000D01*
X127788936Y-72925000D02*
X128243064Y-72925000D01*
X127788936Y-63908000D02*
X128243064Y-63908000D01*
X127788936Y-65378000D02*
X128243064Y-65378000D01*
X85725000Y-62455000D02*
X87925000Y-62455000D01*
X85725000Y-54385000D02*
X87925000Y-54385000D01*
X85725000Y-62455000D02*
X83525000Y-62455000D01*
X85725000Y-54385000D02*
X82125000Y-54385000D01*
D12*
X115673000Y-71144000D02*
X115673000Y-70844000D01*
X115673000Y-68019000D02*
X114448000Y-68019000D01*
X119023000Y-67794000D02*
X119023000Y-68094000D01*
X115673000Y-67794000D02*
X115673000Y-68019000D01*
X119023000Y-71144000D02*
X119023000Y-70844000D01*
X115673000Y-71144000D02*
X119023000Y-71144000D01*
X115673000Y-67794000D02*
X119023000Y-67794000D01*
X115673000Y-57555000D02*
X115673000Y-57255000D01*
X119023000Y-54205000D02*
X119023000Y-54505000D01*
X119023000Y-57555000D02*
X119023000Y-57255000D01*
X115673000Y-54205000D02*
X115673000Y-54430000D01*
X115673000Y-54430000D02*
X114448000Y-54430000D01*
X115673000Y-54205000D02*
X119023000Y-54205000D01*
X115673000Y-57555000D02*
X119023000Y-57555000D01*
D14*
X113444000Y-67727000D02*
X108044000Y-67727000D01*
X113444000Y-72227000D02*
X113444000Y-67727000D01*
X113444000Y-58511000D02*
X113444000Y-54011000D01*
X113444000Y-54011000D02*
X108044000Y-54011000D01*
X67048748Y-52932000D02*
X67571252Y-52932000D01*
X67048748Y-51462000D02*
X67571252Y-51462000D01*
X68585000Y-48457000D02*
X72385000Y-48457000D01*
X72385000Y-50857000D02*
X68585000Y-50857000D01*
X100100000Y-68668000D02*
X102650000Y-68668000D01*
X100100000Y-66968000D02*
X100100000Y-68668000D01*
X100100000Y-66968000D02*
X102650000Y-66968000D01*
X100100000Y-69918000D02*
X100100000Y-71618000D01*
X100100000Y-69918000D02*
X102650000Y-69918000D01*
X100100000Y-71618000D02*
X102650000Y-71618000D01*
X104207000Y-69723000D02*
X106867000Y-69723000D01*
X104207000Y-68453000D02*
X104207000Y-67123000D01*
X106867000Y-69723000D02*
X106867000Y-72323000D01*
X104207000Y-69723000D02*
X104207000Y-72323000D01*
X104207000Y-67123000D02*
X105537000Y-67123000D01*
X104207000Y-72323000D02*
X106867000Y-72323000D01*
X98010000Y-67248000D02*
X96550000Y-67248000D01*
X98010000Y-64088000D02*
X95850000Y-64088000D01*
X98010000Y-67248000D02*
X98010000Y-66318000D01*
X98010000Y-64088000D02*
X98010000Y-65018000D01*
X98010000Y-71798000D02*
X98010000Y-70868000D01*
X98010000Y-68638000D02*
X95850000Y-68638000D01*
X98010000Y-71798000D02*
X96550000Y-71798000D01*
X98010000Y-68638000D02*
X98010000Y-69568000D01*
X101452936Y-65603000D02*
X101907064Y-65603000D01*
X101452936Y-64133000D02*
X101907064Y-64133000D01*
X97002936Y-73233000D02*
X97457064Y-73233000D01*
X97002936Y-74703000D02*
X97457064Y-74703000D01*
X78176000Y-48630300D02*
X78176000Y-50790300D01*
X81336000Y-48630300D02*
X80406000Y-48630300D01*
X78176000Y-48630300D02*
X79106000Y-48630300D01*
X81336000Y-48630300D02*
X81336000Y-50090300D01*
X74200900Y-48643000D02*
X75130900Y-48643000D01*
X74200900Y-48643000D02*
X74200900Y-50803000D01*
X77360900Y-48643000D02*
X76430900Y-48643000D01*
X77360900Y-48643000D02*
X77360900Y-50103000D01*
X79894164Y-53490800D02*
X79440036Y-53490800D01*
X79894164Y-52020800D02*
X79440036Y-52020800D01*
X75477636Y-51957300D02*
X75931764Y-51957300D01*
X75477636Y-53427300D02*
X75931764Y-53427300D01*
X54722700Y-76319748D02*
X54722700Y-76842252D01*
X53252700Y-76319748D02*
X53252700Y-76842252D01*
X97205000Y-61287064D02*
X97205000Y-60832936D01*
X95735000Y-61287064D02*
X95735000Y-60832936D01*
X94805000Y-61317064D02*
X94805000Y-60862936D01*
X93335000Y-61317064D02*
X93335000Y-60862936D01*
X54310000Y-48214000D02*
X54910000Y-48214000D01*
X54310000Y-48814000D02*
X54910000Y-48814000D01*
X57577000Y-48214000D02*
X56977000Y-48214000D01*
X57577000Y-48814000D02*
X56977000Y-48814000D01*
X92556000Y-61314064D02*
X92556000Y-60859936D01*
X91086000Y-61314064D02*
X91086000Y-60859936D01*
M02*
