G04 #@! TF.GenerationSoftware,KiCad,Pcbnew,7.0.7*
G04 #@! TF.CreationDate,2023-09-10T11:25:55+02:00*
G04 #@! TF.ProjectId,ESP32Vfo,45535033-3256-4666-9f2e-6b696361645f,rev?*
G04 #@! TF.SameCoordinates,Original*
G04 #@! TF.FileFunction,Legend,Bot*
G04 #@! TF.FilePolarity,Positive*
%FSLAX46Y46*%
G04 Gerber Fmt 4.6, Leading zero omitted, Abs format (unit mm)*
G04 Created by KiCad (PCBNEW 7.0.7) date 2023-09-10 11:25:55*
%MOMM*%
%LPD*%
G01*
G04 APERTURE LIST*
%ADD10C,0.150000*%
%ADD11C,0.120000*%
G04 APERTURE END LIST*
D10*
X45410357Y-79043419D02*
X45743690Y-78567228D01*
X45981785Y-79043419D02*
X45981785Y-78043419D01*
X45981785Y-78043419D02*
X45600833Y-78043419D01*
X45600833Y-78043419D02*
X45505595Y-78091038D01*
X45505595Y-78091038D02*
X45457976Y-78138657D01*
X45457976Y-78138657D02*
X45410357Y-78233895D01*
X45410357Y-78233895D02*
X45410357Y-78376752D01*
X45410357Y-78376752D02*
X45457976Y-78471990D01*
X45457976Y-78471990D02*
X45505595Y-78519609D01*
X45505595Y-78519609D02*
X45600833Y-78567228D01*
X45600833Y-78567228D02*
X45981785Y-78567228D01*
X44457976Y-79043419D02*
X45029404Y-79043419D01*
X44743690Y-79043419D02*
X44743690Y-78043419D01*
X44743690Y-78043419D02*
X44838928Y-78186276D01*
X44838928Y-78186276D02*
X44934166Y-78281514D01*
X44934166Y-78281514D02*
X45029404Y-78329133D01*
X43553214Y-78043419D02*
X44029404Y-78043419D01*
X44029404Y-78043419D02*
X44077023Y-78519609D01*
X44077023Y-78519609D02*
X44029404Y-78471990D01*
X44029404Y-78471990D02*
X43934166Y-78424371D01*
X43934166Y-78424371D02*
X43696071Y-78424371D01*
X43696071Y-78424371D02*
X43600833Y-78471990D01*
X43600833Y-78471990D02*
X43553214Y-78519609D01*
X43553214Y-78519609D02*
X43505595Y-78614847D01*
X43505595Y-78614847D02*
X43505595Y-78852942D01*
X43505595Y-78852942D02*
X43553214Y-78948180D01*
X43553214Y-78948180D02*
X43600833Y-78995800D01*
X43600833Y-78995800D02*
X43696071Y-79043419D01*
X43696071Y-79043419D02*
X43934166Y-79043419D01*
X43934166Y-79043419D02*
X44029404Y-78995800D01*
X44029404Y-78995800D02*
X44077023Y-78948180D01*
D11*
X44994564Y-80973600D02*
X44540436Y-80973600D01*
X44994564Y-79503600D02*
X44540436Y-79503600D01*
M02*
