G04 #@! TF.GenerationSoftware,KiCad,Pcbnew,7.0.7*
G04 #@! TF.CreationDate,2023-09-10T11:25:55+02:00*
G04 #@! TF.ProjectId,ESP32Vfo,45535033-3256-4666-9f2e-6b696361645f,rev?*
G04 #@! TF.SameCoordinates,Original*
G04 #@! TF.FileFunction,Soldermask,Bot*
G04 #@! TF.FilePolarity,Negative*
%FSLAX46Y46*%
G04 Gerber Fmt 4.6, Leading zero omitted, Abs format (unit mm)*
G04 Created by KiCad (PCBNEW 7.0.7) date 2023-09-10 11:25:55*
%MOMM*%
%LPD*%
G01*
G04 APERTURE LIST*
G04 Aperture macros list*
%AMRoundRect*
0 Rectangle with rounded corners*
0 $1 Rounding radius*
0 $2 $3 $4 $5 $6 $7 $8 $9 X,Y pos of 4 corners*
0 Add a 4 corners polygon primitive as box body*
4,1,4,$2,$3,$4,$5,$6,$7,$8,$9,$2,$3,0*
0 Add four circle primitives for the rounded corners*
1,1,$1+$1,$2,$3*
1,1,$1+$1,$4,$5*
1,1,$1+$1,$6,$7*
1,1,$1+$1,$8,$9*
0 Add four rect primitives between the rounded corners*
20,1,$1+$1,$2,$3,$4,$5,0*
20,1,$1+$1,$4,$5,$6,$7,0*
20,1,$1+$1,$6,$7,$8,$9,0*
20,1,$1+$1,$8,$9,$2,$3,0*%
G04 Aperture macros list end*
%ADD10C,0.800000*%
%ADD11C,5.000000*%
%ADD12R,1.700000X1.700000*%
%ADD13O,1.700000X1.700000*%
%ADD14R,2.800000X2.800000*%
%ADD15C,2.800000*%
%ADD16C,0.650000*%
%ADD17O,1.000000X2.100000*%
%ADD18O,1.000000X1.600000*%
%ADD19C,2.050000*%
%ADD20C,2.250000*%
%ADD21C,3.200000*%
%ADD22RoundRect,0.249998X0.262502X0.450002X-0.262502X0.450002X-0.262502X-0.450002X0.262502X-0.450002X0*%
G04 APERTURE END LIST*
D10*
X41500000Y-41875000D03*
X40174175Y-41325825D03*
D11*
X41500000Y-40000000D03*
D10*
X43375000Y-40000000D03*
X39625000Y-40000000D03*
X40174175Y-38674175D03*
X42825825Y-38674175D03*
X42825825Y-41325825D03*
X41500000Y-38125000D03*
X42825825Y-92325825D03*
X39625000Y-91000000D03*
X43375000Y-91000000D03*
D11*
X41500000Y-91000000D03*
D10*
X42825825Y-89674175D03*
X40174175Y-92325825D03*
X40174175Y-89674175D03*
X41500000Y-92875000D03*
X41500000Y-89125000D03*
X136825825Y-41325825D03*
X134174175Y-41325825D03*
X133625000Y-40000000D03*
X135500000Y-38125000D03*
X137375000Y-40000000D03*
X135500000Y-41875000D03*
X134174175Y-38674175D03*
D11*
X135500000Y-40000000D03*
D10*
X136825825Y-38674175D03*
X134174175Y-92325825D03*
X136825825Y-92325825D03*
D11*
X135500000Y-91000000D03*
D10*
X134174175Y-89674175D03*
X133625000Y-91000000D03*
X136825825Y-89674175D03*
X135500000Y-89125000D03*
X135500000Y-92875000D03*
X137375000Y-91000000D03*
D12*
X69596000Y-89408000D03*
D13*
X69596000Y-91948000D03*
X72136000Y-89408000D03*
X72136000Y-91948000D03*
X74676000Y-89408000D03*
X74676000Y-91948000D03*
X77216000Y-89408000D03*
X77216000Y-91948000D03*
X79756000Y-89408000D03*
X79756000Y-91948000D03*
D12*
X107569000Y-89154000D03*
D13*
X105029000Y-89154000D03*
X102489000Y-89154000D03*
X99949000Y-89154000D03*
X97409000Y-89154000D03*
X94869000Y-89154000D03*
X92329000Y-89154000D03*
D12*
X67564000Y-83312000D03*
D13*
X70104000Y-83312000D03*
X72644000Y-83312000D03*
X75184000Y-83312000D03*
X77724000Y-83312000D03*
X80264000Y-83312000D03*
X82804000Y-83312000D03*
D12*
X67564000Y-40640000D03*
D13*
X70104000Y-40640000D03*
X72644000Y-40640000D03*
X75184000Y-40640000D03*
X77724000Y-40640000D03*
X80264000Y-40640000D03*
X82804000Y-40640000D03*
D12*
X62738000Y-83312000D03*
D13*
X60198000Y-83312000D03*
X57658000Y-83312000D03*
X55118000Y-83312000D03*
X52578000Y-83312000D03*
X50038000Y-83312000D03*
X47498000Y-83312000D03*
D14*
X88646000Y-40132000D03*
D15*
X93646000Y-40132000D03*
D16*
X55530000Y-43753000D03*
X61310000Y-43753000D03*
D17*
X62740000Y-44253000D03*
D18*
X54100000Y-40073000D03*
D17*
X54100000Y-44253000D03*
D18*
X62740000Y-40073000D03*
D12*
X41021000Y-81026000D03*
D13*
X41021000Y-78486000D03*
X41021000Y-75946000D03*
X41021000Y-73406000D03*
X41021000Y-70866000D03*
X41021000Y-68326000D03*
X41021000Y-65786000D03*
X41021000Y-63246000D03*
X41021000Y-60706000D03*
X41021000Y-58166000D03*
X41021000Y-55626000D03*
X41021000Y-53086000D03*
X41021000Y-50546000D03*
X41021000Y-48006000D03*
D19*
X134366000Y-83820000D03*
D20*
X136906000Y-86360000D03*
X131826000Y-81280000D03*
X131826000Y-86360000D03*
X136906000Y-81280000D03*
D19*
X134239000Y-52451000D03*
D20*
X131699000Y-49911000D03*
X131699000Y-54991000D03*
X136779000Y-49911000D03*
X136779000Y-54991000D03*
D19*
X134366000Y-74422000D03*
D20*
X136906000Y-76962000D03*
X131826000Y-71882000D03*
X136906000Y-71882000D03*
X131826000Y-76962000D03*
D19*
X134366000Y-61341000D03*
D20*
X131826000Y-63881000D03*
X136906000Y-58801000D03*
X131826000Y-58801000D03*
X136906000Y-63881000D03*
D12*
X105537000Y-68453000D03*
D13*
X105537000Y-70993000D03*
D21*
X114092000Y-83355000D03*
X113792000Y-46355000D03*
D22*
X45680000Y-80238600D03*
X43855000Y-80238600D03*
M02*
