G04 #@! TF.GenerationSoftware,KiCad,Pcbnew,7.0.7*
G04 #@! TF.CreationDate,2023-09-10T11:25:55+02:00*
G04 #@! TF.ProjectId,ESP32Vfo,45535033-3256-4666-9f2e-6b696361645f,rev?*
G04 #@! TF.SameCoordinates,Original*
G04 #@! TF.FileFunction,Soldermask,Top*
G04 #@! TF.FilePolarity,Negative*
%FSLAX46Y46*%
G04 Gerber Fmt 4.6, Leading zero omitted, Abs format (unit mm)*
G04 Created by KiCad (PCBNEW 7.0.7) date 2023-09-10 11:25:55*
%MOMM*%
%LPD*%
G01*
G04 APERTURE LIST*
G04 Aperture macros list*
%AMRoundRect*
0 Rectangle with rounded corners*
0 $1 Rounding radius*
0 $2 $3 $4 $5 $6 $7 $8 $9 X,Y pos of 4 corners*
0 Add a 4 corners polygon primitive as box body*
4,1,4,$2,$3,$4,$5,$6,$7,$8,$9,$2,$3,0*
0 Add four circle primitives for the rounded corners*
1,1,$1+$1,$2,$3*
1,1,$1+$1,$4,$5*
1,1,$1+$1,$6,$7*
1,1,$1+$1,$8,$9*
0 Add four rect primitives between the rounded corners*
20,1,$1+$1,$2,$3,$4,$5,0*
20,1,$1+$1,$4,$5,$6,$7,0*
20,1,$1+$1,$6,$7,$8,$9,0*
20,1,$1+$1,$8,$9,$2,$3,0*%
G04 Aperture macros list end*
%ADD10C,0.800000*%
%ADD11C,5.000000*%
%ADD12RoundRect,0.250000X-0.625000X0.462500X-0.625000X-0.462500X0.625000X-0.462500X0.625000X0.462500X0*%
%ADD13RoundRect,0.250000X0.250000X0.475000X-0.250000X0.475000X-0.250000X-0.475000X0.250000X-0.475000X0*%
%ADD14RoundRect,0.250000X0.462500X0.625000X-0.462500X0.625000X-0.462500X-0.625000X0.462500X-0.625000X0*%
%ADD15RoundRect,0.250000X0.475000X-0.250000X0.475000X0.250000X-0.475000X0.250000X-0.475000X-0.250000X0*%
%ADD16RoundRect,0.250000X-0.475000X0.250000X-0.475000X-0.250000X0.475000X-0.250000X0.475000X0.250000X0*%
%ADD17R,1.700000X1.700000*%
%ADD18O,1.700000X1.700000*%
%ADD19R,2.800000X2.800000*%
%ADD20C,2.800000*%
%ADD21RoundRect,0.249999X0.450001X-0.325001X0.450001X0.325001X-0.450001X0.325001X-0.450001X-0.325001X0*%
%ADD22RoundRect,0.249999X0.325001X0.450001X-0.325001X0.450001X-0.325001X-0.450001X0.325001X-0.450001X0*%
%ADD23RoundRect,0.249999X-0.325001X-0.450001X0.325001X-0.450001X0.325001X0.450001X-0.325001X0.450001X0*%
%ADD24RoundRect,0.249999X-0.450001X0.325001X-0.450001X-0.325001X0.450001X-0.325001X0.450001X0.325001X0*%
%ADD25R,2.000000X1.500000*%
%ADD26R,2.000000X3.800000*%
%ADD27R,0.900000X2.000000*%
%ADD28R,2.000000X0.900000*%
%ADD29R,5.000000X5.000000*%
%ADD30R,0.900000X1.700000*%
%ADD31R,2.000000X1.050000*%
%ADD32RoundRect,0.250000X0.250000X1.500000X-0.250000X1.500000X-0.250000X-1.500000X0.250000X-1.500000X0*%
%ADD33RoundRect,0.250000X0.500000X1.450000X-0.500000X1.450000X-0.500000X-1.450000X0.500000X-1.450000X0*%
%ADD34RoundRect,0.250000X-0.250000X-0.475000X0.250000X-0.475000X0.250000X0.475000X-0.250000X0.475000X0*%
%ADD35RoundRect,0.243750X-0.456250X0.243750X-0.456250X-0.243750X0.456250X-0.243750X0.456250X0.243750X0*%
%ADD36C,0.650000*%
%ADD37R,0.300000X1.150000*%
%ADD38O,1.000000X2.100000*%
%ADD39O,1.000000X1.600000*%
%ADD40RoundRect,0.249998X0.262502X0.450002X-0.262502X0.450002X-0.262502X-0.450002X0.262502X-0.450002X0*%
%ADD41RoundRect,0.249998X0.450002X-0.262502X0.450002X0.262502X-0.450002X0.262502X-0.450002X-0.262502X0*%
%ADD42RoundRect,0.062500X0.337500X0.062500X-0.337500X0.062500X-0.337500X-0.062500X0.337500X-0.062500X0*%
%ADD43RoundRect,0.062500X0.062500X0.337500X-0.062500X0.337500X-0.062500X-0.337500X0.062500X-0.337500X0*%
%ADD44R,3.350000X3.350000*%
%ADD45C,2.050000*%
%ADD46C,2.250000*%
%ADD47R,0.800000X0.900000*%
%ADD48R,0.900000X0.800000*%
%ADD49RoundRect,0.249998X-0.262502X-0.450002X0.262502X-0.450002X0.262502X0.450002X-0.262502X0.450002X0*%
%ADD50RoundRect,0.249998X-0.450002X0.262502X-0.450002X-0.262502X0.450002X-0.262502X0.450002X0.262502X0*%
%ADD51RoundRect,0.100000X-0.637500X-0.100000X0.637500X-0.100000X0.637500X0.100000X-0.637500X0.100000X0*%
%ADD52R,1.400000X0.300000*%
%ADD53R,2.100000X1.800000*%
%ADD54R,1.050000X2.000000*%
%ADD55R,0.600000X0.450000*%
%ADD56C,3.200000*%
%ADD57R,0.600000X0.800000*%
%ADD58RoundRect,0.249999X0.450001X-0.262501X0.450001X0.262501X-0.450001X0.262501X-0.450001X-0.262501X0*%
G04 APERTURE END LIST*
D10*
X41500000Y-41875000D03*
X40174175Y-41325825D03*
D11*
X41500000Y-40000000D03*
D10*
X43375000Y-40000000D03*
X39625000Y-40000000D03*
X40174175Y-38674175D03*
X42825825Y-38674175D03*
X42825825Y-41325825D03*
X41500000Y-38125000D03*
X42825825Y-92325825D03*
X39625000Y-91000000D03*
X43375000Y-91000000D03*
D11*
X41500000Y-91000000D03*
D10*
X42825825Y-89674175D03*
X40174175Y-92325825D03*
X40174175Y-89674175D03*
X41500000Y-92875000D03*
X41500000Y-89125000D03*
X136825825Y-41325825D03*
X134174175Y-41325825D03*
X133625000Y-40000000D03*
X135500000Y-38125000D03*
X137375000Y-40000000D03*
X135500000Y-41875000D03*
X134174175Y-38674175D03*
D11*
X135500000Y-40000000D03*
D10*
X136825825Y-38674175D03*
X134174175Y-92325825D03*
X136825825Y-92325825D03*
D11*
X135500000Y-91000000D03*
D10*
X134174175Y-89674175D03*
X133625000Y-91000000D03*
X136825825Y-89674175D03*
X135500000Y-89125000D03*
X135500000Y-92875000D03*
X137375000Y-91000000D03*
D12*
X60579000Y-75728500D03*
X60579000Y-78703500D03*
D13*
X88707000Y-52705000D03*
X86807000Y-52705000D03*
X106487000Y-50419000D03*
X104587000Y-50419000D03*
D14*
X106008500Y-47625000D03*
X103033500Y-47625000D03*
D13*
X116901000Y-52578000D03*
X115001000Y-52578000D03*
D15*
X56134000Y-77531000D03*
X56134000Y-75631000D03*
D16*
X104013000Y-79949000D03*
X104013000Y-81849000D03*
X101473000Y-79949000D03*
X101473000Y-81849000D03*
X98933000Y-79949000D03*
X98933000Y-81849000D03*
X96139000Y-79949000D03*
X96139000Y-81849000D03*
X93853000Y-79949000D03*
X93853000Y-81849000D03*
X91567000Y-79949000D03*
X91567000Y-81849000D03*
X80264000Y-43858000D03*
X80264000Y-45758000D03*
D15*
X52578000Y-88326000D03*
X52578000Y-86426000D03*
X54864000Y-88326000D03*
X54864000Y-86426000D03*
X59690000Y-88326000D03*
X59690000Y-86426000D03*
X57404000Y-88326000D03*
X57404000Y-86426000D03*
X46736000Y-88376800D03*
X46736000Y-86476800D03*
D17*
X69596000Y-89408000D03*
D18*
X69596000Y-91948000D03*
X72136000Y-89408000D03*
X72136000Y-91948000D03*
X74676000Y-89408000D03*
X74676000Y-91948000D03*
X77216000Y-89408000D03*
X77216000Y-91948000D03*
X79756000Y-89408000D03*
X79756000Y-91948000D03*
D17*
X107569000Y-89154000D03*
D18*
X105029000Y-89154000D03*
X102489000Y-89154000D03*
X99949000Y-89154000D03*
X97409000Y-89154000D03*
X94869000Y-89154000D03*
X92329000Y-89154000D03*
D17*
X67564000Y-83312000D03*
D18*
X70104000Y-83312000D03*
X72644000Y-83312000D03*
X75184000Y-83312000D03*
X77724000Y-83312000D03*
X80264000Y-83312000D03*
X82804000Y-83312000D03*
D17*
X67564000Y-40640000D03*
D18*
X70104000Y-40640000D03*
X72644000Y-40640000D03*
X75184000Y-40640000D03*
X77724000Y-40640000D03*
X80264000Y-40640000D03*
X82804000Y-40640000D03*
D17*
X62738000Y-83312000D03*
D18*
X60198000Y-83312000D03*
X57658000Y-83312000D03*
X55118000Y-83312000D03*
X52578000Y-83312000D03*
X50038000Y-83312000D03*
X47498000Y-83312000D03*
D19*
X88646000Y-40132000D03*
D20*
X93646000Y-40132000D03*
D21*
X58293000Y-77733000D03*
X58293000Y-75683000D03*
D22*
X110626000Y-92456000D03*
X108576000Y-92456000D03*
D23*
X104512000Y-92456000D03*
X106562000Y-92456000D03*
X100448000Y-92456000D03*
X102498000Y-92456000D03*
X96384000Y-92456000D03*
X98434000Y-92456000D03*
X92320000Y-92456000D03*
X94370000Y-92456000D03*
X88265000Y-92456000D03*
X90315000Y-92456000D03*
D24*
X104013000Y-83938000D03*
X104013000Y-85988000D03*
X101473000Y-83938000D03*
X101473000Y-85988000D03*
X98933000Y-83938000D03*
X98933000Y-85988000D03*
X96139000Y-83938000D03*
X96139000Y-85988000D03*
X93853000Y-83938000D03*
X93853000Y-85988000D03*
X91567000Y-83938000D03*
X91567000Y-85988000D03*
D21*
X72644000Y-45983000D03*
X72644000Y-43933000D03*
X75184000Y-45983000D03*
X75184000Y-43933000D03*
X77724000Y-45983000D03*
X77724000Y-43933000D03*
D22*
X93862000Y-56134000D03*
X91812000Y-56134000D03*
X93862000Y-53975000D03*
X91812000Y-53975000D03*
D25*
X99720000Y-39864000D03*
X99720000Y-42164000D03*
D26*
X106020000Y-42164000D03*
D25*
X99720000Y-44464000D03*
D27*
X56134000Y-73016000D03*
X57404000Y-73016000D03*
X58674000Y-73016000D03*
X59944000Y-73016000D03*
X61214000Y-73016000D03*
X62484000Y-73016000D03*
X63754000Y-73016000D03*
X65024000Y-73016000D03*
X66294000Y-73016000D03*
X67564000Y-73016000D03*
X68834000Y-73016000D03*
X70104000Y-73016000D03*
X71374000Y-73016000D03*
X72644000Y-73016000D03*
D28*
X73644000Y-70231000D03*
X73644000Y-68961000D03*
X73644000Y-67691000D03*
X73644000Y-66421000D03*
X73644000Y-65151000D03*
X73644000Y-63881000D03*
X73644000Y-62611000D03*
X73644000Y-61341000D03*
X73644000Y-60071000D03*
X73644000Y-58801000D03*
D27*
X72644000Y-56016000D03*
X71374000Y-56016000D03*
X70104000Y-56016000D03*
X68834000Y-56016000D03*
X67564000Y-56016000D03*
X66294000Y-56016000D03*
X65024000Y-56016000D03*
X63754000Y-56016000D03*
X62484000Y-56016000D03*
X61214000Y-56016000D03*
X59944000Y-56016000D03*
X58674000Y-56016000D03*
X57404000Y-56016000D03*
X56134000Y-56016000D03*
D29*
X63634000Y-65516000D03*
D30*
X83053000Y-75439000D03*
X84333000Y-75439000D03*
X85593000Y-75439000D03*
X86863000Y-75439000D03*
X88143000Y-75439000D03*
X89413000Y-75439000D03*
X90673000Y-75439000D03*
X91953000Y-75439000D03*
X91953000Y-66039000D03*
X90673000Y-66039000D03*
X89413000Y-66039000D03*
X88143000Y-66039000D03*
X86863000Y-66039000D03*
X85593000Y-66039000D03*
X84333000Y-66039000D03*
X83053000Y-66039000D03*
D23*
X70603000Y-52197000D03*
X72653000Y-52197000D03*
D31*
X63500000Y-79888000D03*
X63500000Y-75438000D03*
D32*
X127079000Y-44887000D03*
X125079000Y-44887000D03*
X123079000Y-44887000D03*
X121079000Y-44887000D03*
D33*
X118729000Y-39137000D03*
X129429000Y-39137000D03*
D34*
X68138000Y-43688000D03*
X70038000Y-43688000D03*
D35*
X51943000Y-38178500D03*
X51943000Y-40053500D03*
D36*
X55530000Y-43753000D03*
X61310000Y-43753000D03*
D37*
X61770000Y-44818000D03*
X60970000Y-44818000D03*
X59670000Y-44818000D03*
X58670000Y-44818000D03*
X58170000Y-44818000D03*
X57170000Y-44818000D03*
X55870000Y-44818000D03*
X55070000Y-44818000D03*
X55370000Y-44818000D03*
X56170000Y-44818000D03*
X56670000Y-44818000D03*
X57670000Y-44818000D03*
X59170000Y-44818000D03*
X60170000Y-44818000D03*
X60670000Y-44818000D03*
X61470000Y-44818000D03*
D38*
X62740000Y-44253000D03*
D39*
X54100000Y-40073000D03*
D38*
X54100000Y-44253000D03*
D39*
X62740000Y-40073000D03*
D40*
X62253500Y-47117000D03*
X60428500Y-47117000D03*
X66495300Y-43688000D03*
X64670300Y-43688000D03*
D41*
X58928000Y-52728500D03*
X58928000Y-50903500D03*
X61214000Y-52728500D03*
X61214000Y-50903500D03*
D42*
X49186000Y-47728000D03*
X49186000Y-47228000D03*
X49186000Y-46728000D03*
X49186000Y-46228000D03*
X49186000Y-45728000D03*
X49186000Y-45228000D03*
X49186000Y-44728000D03*
D43*
X48236000Y-43778000D03*
X47736000Y-43778000D03*
X47236000Y-43778000D03*
X46736000Y-43778000D03*
X46236000Y-43778000D03*
X45736000Y-43778000D03*
X45236000Y-43778000D03*
D42*
X44286000Y-44728000D03*
X44286000Y-45228000D03*
X44286000Y-45728000D03*
X44286000Y-46228000D03*
X44286000Y-46728000D03*
X44286000Y-47228000D03*
X44286000Y-47728000D03*
D43*
X45236000Y-48678000D03*
X45736000Y-48678000D03*
X46236000Y-48678000D03*
X46736000Y-48678000D03*
X47236000Y-48678000D03*
X47736000Y-48678000D03*
X48236000Y-48678000D03*
D44*
X46736000Y-46228000D03*
D13*
X88478400Y-89408000D03*
X86578400Y-89408000D03*
D16*
X45593000Y-39944000D03*
X45593000Y-41844000D03*
X49784000Y-39944000D03*
X49784000Y-41844000D03*
X51435000Y-47310000D03*
X51435000Y-49210000D03*
D13*
X116901000Y-65913000D03*
X115001000Y-65913000D03*
X80198000Y-70993000D03*
X78298000Y-70993000D03*
D34*
X122748000Y-82042000D03*
X124648000Y-82042000D03*
X122621000Y-72009000D03*
X124521000Y-72009000D03*
X127066000Y-81534000D03*
X128966000Y-81534000D03*
X126939000Y-50927000D03*
X128839000Y-50927000D03*
X127066000Y-71120000D03*
X128966000Y-71120000D03*
X127066000Y-62484000D03*
X128966000Y-62484000D03*
D17*
X41021000Y-81026000D03*
D18*
X41021000Y-78486000D03*
X41021000Y-75946000D03*
X41021000Y-73406000D03*
X41021000Y-70866000D03*
X41021000Y-68326000D03*
X41021000Y-65786000D03*
X41021000Y-63246000D03*
X41021000Y-60706000D03*
X41021000Y-58166000D03*
X41021000Y-55626000D03*
X41021000Y-53086000D03*
X41021000Y-50546000D03*
X41021000Y-48006000D03*
D45*
X134366000Y-83820000D03*
D46*
X136906000Y-86360000D03*
X131826000Y-81280000D03*
X131826000Y-86360000D03*
X136906000Y-81280000D03*
D45*
X134239000Y-52451000D03*
D46*
X131699000Y-49911000D03*
X131699000Y-54991000D03*
X136779000Y-49911000D03*
X136779000Y-54991000D03*
D45*
X134366000Y-74422000D03*
D46*
X136906000Y-76962000D03*
X131826000Y-71882000D03*
X136906000Y-71882000D03*
X131826000Y-76962000D03*
D45*
X134366000Y-61341000D03*
D46*
X131826000Y-63881000D03*
X136906000Y-58801000D03*
X131826000Y-58801000D03*
X136906000Y-63881000D03*
D47*
X122875000Y-86217000D03*
X124775000Y-86217000D03*
X123825000Y-84217000D03*
D48*
X124825000Y-54671000D03*
X124825000Y-52771000D03*
X122825000Y-53721000D03*
D47*
X122748000Y-76565000D03*
X124648000Y-76565000D03*
X123698000Y-74565000D03*
D48*
X124825000Y-61910000D03*
X124825000Y-60010000D03*
X122825000Y-60960000D03*
D40*
X111275500Y-62103000D03*
X109450500Y-62103000D03*
X111275500Y-64389000D03*
X109450500Y-64389000D03*
D49*
X78335500Y-65913000D03*
X80160500Y-65913000D03*
D50*
X47625000Y-39981500D03*
X47625000Y-41806500D03*
D49*
X78335500Y-68453000D03*
X80160500Y-68453000D03*
X118213500Y-49149000D03*
X120038500Y-49149000D03*
X123293500Y-49149000D03*
X125118500Y-49149000D03*
X127103500Y-86233000D03*
X128928500Y-86233000D03*
X126849500Y-53340000D03*
X128674500Y-53340000D03*
X127103500Y-83947000D03*
X128928500Y-83947000D03*
D40*
X128674500Y-55753000D03*
X126849500Y-55753000D03*
X124610500Y-88519000D03*
X122785500Y-88519000D03*
X124737500Y-56769000D03*
X122912500Y-56769000D03*
X124483500Y-78867000D03*
X122658500Y-78867000D03*
X124737500Y-64135000D03*
X122912500Y-64135000D03*
X129055500Y-76200000D03*
X127230500Y-76200000D03*
X128928500Y-60198000D03*
X127103500Y-60198000D03*
D49*
X127103500Y-73660000D03*
X128928500Y-73660000D03*
X127103500Y-64643000D03*
X128928500Y-64643000D03*
D51*
X82862500Y-54845000D03*
X82862500Y-55495000D03*
X82862500Y-56145000D03*
X82862500Y-56795000D03*
X82862500Y-57445000D03*
X82862500Y-58095000D03*
X82862500Y-58745000D03*
X82862500Y-59395000D03*
X82862500Y-60045000D03*
X82862500Y-60695000D03*
X82862500Y-61345000D03*
X82862500Y-61995000D03*
X88587500Y-61995000D03*
X88587500Y-61345000D03*
X88587500Y-60695000D03*
X88587500Y-60045000D03*
X88587500Y-59395000D03*
X88587500Y-58745000D03*
X88587500Y-58095000D03*
X88587500Y-57445000D03*
X88587500Y-56795000D03*
X88587500Y-56145000D03*
X88587500Y-55495000D03*
X88587500Y-54845000D03*
D52*
X115148000Y-68469000D03*
X115148000Y-68969000D03*
X115148000Y-69469000D03*
X115148000Y-69969000D03*
X115148000Y-70469000D03*
X119548000Y-70469000D03*
X119548000Y-69969000D03*
X119548000Y-69469000D03*
X119548000Y-68969000D03*
X119548000Y-68469000D03*
X115148000Y-54880000D03*
X115148000Y-55380000D03*
X115148000Y-55880000D03*
X115148000Y-56380000D03*
X115148000Y-56880000D03*
X119548000Y-56880000D03*
X119548000Y-56380000D03*
X119548000Y-55880000D03*
X119548000Y-55380000D03*
X119548000Y-54880000D03*
D53*
X112194000Y-68827000D03*
X109294000Y-68827000D03*
X109294000Y-71127000D03*
X112194000Y-71127000D03*
X112194000Y-55111000D03*
X109294000Y-55111000D03*
X109294000Y-57411000D03*
X112194000Y-57411000D03*
D34*
X66360000Y-52197000D03*
X68260000Y-52197000D03*
D54*
X72710000Y-49657000D03*
X68260000Y-49657000D03*
D55*
X100550000Y-67818000D03*
X102650000Y-67818000D03*
X100550000Y-70768000D03*
X102650000Y-70768000D03*
D17*
X105537000Y-68453000D03*
D18*
X105537000Y-70993000D03*
D48*
X96250000Y-64718000D03*
X96250000Y-66618000D03*
X98250000Y-65668000D03*
X96250000Y-69268000D03*
X96250000Y-71168000D03*
X98250000Y-70218000D03*
D49*
X100767500Y-64868000D03*
X102592500Y-64868000D03*
X96317500Y-73968000D03*
X98142500Y-73968000D03*
D56*
X114092000Y-83355000D03*
X113792000Y-46355000D03*
D47*
X78806000Y-50390300D03*
X80706000Y-50390300D03*
X79756000Y-48390300D03*
X74830900Y-50403000D03*
X76730900Y-50403000D03*
X75780900Y-48403000D03*
D40*
X80579600Y-52755800D03*
X78754600Y-52755800D03*
D49*
X74792200Y-52692300D03*
X76617200Y-52692300D03*
D16*
X53987700Y-75631000D03*
X53987700Y-77531000D03*
D41*
X96470000Y-61972500D03*
X96470000Y-60147500D03*
X94070000Y-62002500D03*
X94070000Y-60177500D03*
D57*
X53910000Y-48514000D03*
X55310000Y-48514000D03*
X57977000Y-48514000D03*
X56577000Y-48514000D03*
D58*
X91821000Y-61999500D03*
X91821000Y-60174500D03*
M02*
